G04 #@! TF.GenerationSoftware,KiCad,Pcbnew,6.0.7-1.fc36*
G04 #@! TF.CreationDate,2022-08-10T12:40:39+02:00*
G04 #@! TF.ProjectId,LAITS-HW,4c414954-532d-4485-972e-6b696361645f,1.0.1*
G04 #@! TF.SameCoordinates,Original*
G04 #@! TF.FileFunction,Soldermask,Top*
G04 #@! TF.FilePolarity,Negative*
%FSLAX46Y46*%
G04 Gerber Fmt 4.6, Leading zero omitted, Abs format (unit mm)*
G04 Created by KiCad (PCBNEW 6.0.7-1.fc36) date 2022-08-10 12:40:39*
%MOMM*%
%LPD*%
G01*
G04 APERTURE LIST*
G04 Aperture macros list*
%AMRoundRect*
0 Rectangle with rounded corners*
0 $1 Rounding radius*
0 $2 $3 $4 $5 $6 $7 $8 $9 X,Y pos of 4 corners*
0 Add a 4 corners polygon primitive as box body*
4,1,4,$2,$3,$4,$5,$6,$7,$8,$9,$2,$3,0*
0 Add four circle primitives for the rounded corners*
1,1,$1+$1,$2,$3*
1,1,$1+$1,$4,$5*
1,1,$1+$1,$6,$7*
1,1,$1+$1,$8,$9*
0 Add four rect primitives between the rounded corners*
20,1,$1+$1,$2,$3,$4,$5,0*
20,1,$1+$1,$4,$5,$6,$7,0*
20,1,$1+$1,$6,$7,$8,$9,0*
20,1,$1+$1,$8,$9,$2,$3,0*%
%AMRotRect*
0 Rectangle, with rotation*
0 The origin of the aperture is its center*
0 $1 length*
0 $2 width*
0 $3 Rotation angle, in degrees counterclockwise*
0 Add horizontal line*
21,1,$1,$2,0,0,$3*%
%AMFreePoly0*
4,1,25,1.026854,0.150354,1.027000,0.150000,1.027000,-0.250000,1.026854,-0.250354,1.026500,-0.250500,-0.153500,-0.250500,-0.153512,-0.250495,-0.153526,-0.250500,-0.153685,-0.250424,-0.153854,-0.250354,-0.153860,-0.250340,-0.153872,-0.250334,-0.198723,-0.200500,-0.813500,-0.200500,-0.813854,-0.200354,-0.814000,-0.200000,-0.814000,0.000000,-0.813854,0.000354,-0.813500,0.000500,-0.200192,0.000500,
-0.033835,0.150371,-0.033669,0.150430,-0.033500,0.150500,1.026500,0.150500,1.026854,0.150354,1.026854,0.150354,$1*%
%AMFreePoly1*
4,1,22,0.550000,-0.750000,0.000000,-0.750000,0.000000,-0.745033,-0.079941,-0.743568,-0.215256,-0.701293,-0.333266,-0.622738,-0.424486,-0.514219,-0.481581,-0.384460,-0.499164,-0.250000,-0.500000,-0.250000,-0.500000,0.250000,-0.499164,0.250000,-0.499963,0.256109,-0.478152,0.396186,-0.417904,0.524511,-0.324060,0.630769,-0.204165,0.706417,-0.067858,0.745374,0.000000,0.744959,0.000000,0.750000,
0.550000,0.750000,0.550000,-0.750000,0.550000,-0.750000,$1*%
%AMFreePoly2*
4,1,20,0.000000,0.744959,0.073905,0.744508,0.209726,0.703889,0.328688,0.626782,0.421226,0.519385,0.479903,0.390333,0.500000,0.250000,0.500000,-0.250000,0.499851,-0.262216,0.476331,-0.402017,0.414519,-0.529596,0.319384,-0.634700,0.198574,-0.708877,0.061801,-0.746166,0.000000,-0.745033,0.000000,-0.750000,-0.550000,-0.750000,-0.550000,0.750000,0.000000,0.750000,0.000000,0.744959,
0.000000,0.744959,$1*%
G04 Aperture macros list end*
%ADD10R,0.300000X0.700000*%
%ADD11R,0.723000X0.200000*%
%ADD12R,3.025000X0.300000*%
%ADD13R,3.025000X0.200000*%
%ADD14R,2.025000X0.250000*%
%ADD15R,2.425000X0.200000*%
%ADD16R,0.200000X0.625000*%
%ADD17R,0.200000X0.600000*%
%ADD18FreePoly0,270.000000*%
%ADD19R,0.625000X0.200000*%
%ADD20R,1.500000X1.050000*%
%ADD21O,1.500000X1.050000*%
%ADD22R,1.440000X1.480000*%
%ADD23RoundRect,0.200000X-0.275000X0.200000X-0.275000X-0.200000X0.275000X-0.200000X0.275000X0.200000X0*%
%ADD24RoundRect,0.250000X0.633743X-0.956031X1.051555X-0.458102X-0.633743X0.956031X-1.051555X0.458102X0*%
%ADD25RoundRect,0.200000X0.329975X0.082105X0.023558X0.339220X-0.329975X-0.082105X-0.023558X-0.339220X0*%
%ADD26RoundRect,0.243750X-0.192828X0.479995X-0.506187X0.106549X0.192828X-0.479995X0.506187X-0.106549X0*%
%ADD27RoundRect,0.200000X-0.329975X-0.082105X-0.023558X-0.339220X0.329975X0.082105X0.023558X0.339220X0*%
%ADD28RoundRect,0.250000X0.650000X-0.325000X0.650000X0.325000X-0.650000X0.325000X-0.650000X-0.325000X0*%
%ADD29RoundRect,0.225000X0.333843X-0.040915X0.075733X0.327703X-0.333843X0.040915X-0.075733X-0.327703X0*%
%ADD30R,2.000000X2.000000*%
%ADD31C,2.000000*%
%ADD32RoundRect,0.200000X-0.082105X0.329975X-0.339220X0.023558X0.082105X-0.329975X0.339220X-0.023558X0*%
%ADD33RoundRect,0.225000X0.225000X0.250000X-0.225000X0.250000X-0.225000X-0.250000X0.225000X-0.250000X0*%
%ADD34RoundRect,0.225000X-0.333057X-0.046884X0.011663X-0.336138X0.333057X0.046884X-0.011663X0.336138X0*%
%ADD35RoundRect,0.243750X0.243750X0.456250X-0.243750X0.456250X-0.243750X-0.456250X0.243750X-0.456250X0*%
%ADD36RoundRect,0.150000X-0.587500X-0.150000X0.587500X-0.150000X0.587500X0.150000X-0.587500X0.150000X0*%
%ADD37RoundRect,0.225000X0.333057X0.046884X-0.011663X0.336138X-0.333057X-0.046884X0.011663X-0.336138X0*%
%ADD38RoundRect,0.200000X0.275000X-0.200000X0.275000X0.200000X-0.275000X0.200000X-0.275000X-0.200000X0*%
%ADD39RoundRect,0.225000X-0.225000X-0.250000X0.225000X-0.250000X0.225000X0.250000X-0.225000X0.250000X0*%
%ADD40RoundRect,0.225000X-0.250000X0.225000X-0.250000X-0.225000X0.250000X-0.225000X0.250000X0.225000X0*%
%ADD41RoundRect,0.200000X-0.200000X-0.275000X0.200000X-0.275000X0.200000X0.275000X-0.200000X0.275000X0*%
%ADD42RoundRect,0.225000X0.040915X0.333843X-0.327703X0.075733X-0.040915X-0.333843X0.327703X-0.075733X0*%
%ADD43O,0.950000X0.650000*%
%ADD44C,0.650000*%
%ADD45O,0.800000X1.400000*%
%ADD46RoundRect,0.225000X-0.046884X0.333057X-0.336138X-0.011663X0.046884X-0.333057X0.336138X0.011663X0*%
%ADD47C,1.500000*%
%ADD48RoundRect,0.225000X0.250000X-0.225000X0.250000X0.225000X-0.250000X0.225000X-0.250000X-0.225000X0*%
%ADD49RoundRect,0.225000X0.046884X-0.333057X0.336138X0.011663X-0.046884X0.333057X-0.336138X-0.011663X0*%
%ADD50RoundRect,0.225000X-0.040915X-0.333843X0.327703X-0.075733X0.040915X0.333843X-0.327703X0.075733X0*%
%ADD51FreePoly1,90.000000*%
%ADD52R,1.500000X1.000000*%
%ADD53FreePoly2,90.000000*%
%ADD54RoundRect,0.200000X-0.340037X0.000162X-0.104923X-0.323444X0.340037X-0.000162X0.104923X0.323444X0*%
%ADD55R,0.700000X0.900000*%
%ADD56RoundRect,0.040600X-0.669400X-0.249400X0.669400X-0.249400X0.669400X0.249400X-0.669400X0.249400X0*%
%ADD57RoundRect,0.250000X-0.312500X-0.625000X0.312500X-0.625000X0.312500X0.625000X-0.312500X0.625000X0*%
%ADD58RoundRect,0.200000X0.006097X0.339982X-0.321564X0.110552X-0.006097X-0.339982X0.321564X-0.110552X0*%
%ADD59FreePoly2,0.000000*%
%ADD60R,1.000000X1.500000*%
%ADD61FreePoly1,0.000000*%
%ADD62RoundRect,0.250000X0.325000X0.650000X-0.325000X0.650000X-0.325000X-0.650000X0.325000X-0.650000X0*%
%ADD63R,1.000000X0.400000*%
%ADD64RoundRect,0.150000X-0.262731X-0.546469X0.492544X0.353633X0.262731X0.546469X-0.492544X-0.353633X0*%
%ADD65R,0.250000X0.550000*%
%ADD66RotRect,0.360000X0.250000X230.000000*%
%ADD67RoundRect,0.041300X0.734764X-0.607039X-0.319126X0.898071X-0.734764X0.607039X0.319126X-0.898071X0*%
%ADD68R,0.450000X0.600000*%
%ADD69R,0.200000X0.800000*%
%ADD70R,0.800000X0.200000*%
%ADD71R,2.750000X2.750000*%
%ADD72R,2.950000X3.500000*%
%ADD73RoundRect,0.250000X-0.325000X-0.650000X0.325000X-0.650000X0.325000X0.650000X-0.325000X0.650000X0*%
%ADD74RoundRect,0.200000X-0.218447X0.260588X-0.315216X-0.127531X0.218447X-0.260588X0.315216X0.127531X0*%
%ADD75RotRect,3.000000X1.500000X135.000000*%
%ADD76RotRect,1.500000X3.000000X135.000000*%
%ADD77RoundRect,0.200000X0.200000X0.275000X-0.200000X0.275000X-0.200000X-0.275000X0.200000X-0.275000X0*%
%ADD78RoundRect,0.200000X-0.339982X0.006097X-0.110552X-0.321564X0.339982X-0.006097X0.110552X0.321564X0*%
%ADD79RoundRect,0.225000X-0.188142X0.278797X-0.297006X-0.157836X0.188142X-0.278797X0.297006X0.157836X0*%
%ADD80RoundRect,0.200000X-0.006097X-0.339982X0.321564X-0.110552X0.006097X0.339982X-0.321564X0.110552X0*%
%ADD81R,0.220000X0.400000*%
%ADD82R,0.400000X0.220000*%
%ADD83RotRect,1.500000X0.900000X230.000000*%
%ADD84RotRect,0.900000X0.900000X230.000000*%
%ADD85R,1.500000X2.120000*%
%ADD86R,5.300000X2.000000*%
%ADD87RoundRect,0.243750X0.192828X-0.479995X0.506187X-0.106549X-0.192828X0.479995X-0.506187X0.106549X0*%
%ADD88R,3.400000X0.980000*%
%ADD89R,1.508000X1.508000*%
%ADD90C,1.508000*%
%ADD91RoundRect,0.225000X0.188142X-0.278797X0.297006X0.157836X-0.188142X0.278797X-0.297006X-0.157836X0*%
%ADD92RoundRect,0.200000X0.339982X-0.006097X0.110552X0.321564X-0.339982X0.006097X-0.110552X-0.321564X0*%
%ADD93RoundRect,0.150000X0.546469X-0.262731X-0.353633X0.492544X-0.546469X0.262731X0.353633X-0.492544X0*%
%ADD94RoundRect,0.200000X0.300311X0.159494X-0.059207X0.334843X-0.300311X-0.159494X0.059207X-0.334843X0*%
%ADD95R,0.690000X0.590000*%
%ADD96RoundRect,0.200000X0.082105X-0.329975X0.339220X-0.023558X-0.082105X0.329975X-0.339220X0.023558X0*%
%ADD97RoundRect,0.250000X-1.100000X0.325000X-1.100000X-0.325000X1.100000X-0.325000X1.100000X0.325000X0*%
%ADD98RotRect,0.600000X0.450000X50.000000*%
%ADD99RoundRect,0.225000X0.297006X-0.157836X0.188142X0.278797X-0.297006X0.157836X-0.188142X-0.278797X0*%
%ADD100R,1.700000X1.700000*%
%ADD101O,1.700000X1.700000*%
%ADD102RoundRect,0.250000X0.312500X0.625000X-0.312500X0.625000X-0.312500X-0.625000X0.312500X-0.625000X0*%
%ADD103R,1.000000X0.700000*%
%ADD104R,0.600000X0.700000*%
%ADD105RoundRect,0.225000X-0.334506X0.035083X-0.070003X-0.328975X0.334506X-0.035083X0.070003X0.328975X0*%
%ADD106RoundRect,0.225000X-0.311821X-0.126065X0.092636X-0.323332X0.311821X0.126065X-0.092636X0.323332X0*%
%ADD107RoundRect,0.150000X0.587500X0.150000X-0.587500X0.150000X-0.587500X-0.150000X0.587500X-0.150000X0*%
%ADD108RoundRect,0.062500X-0.298714X0.169063X0.218366X-0.264819X0.298714X-0.169063X-0.218366X0.264819X0*%
%ADD109RoundRect,0.062500X-0.264819X-0.218366X-0.169063X-0.298714X0.264819X0.218366X0.169063X0.298714X0*%
%ADD110RotRect,3.350000X3.350000X320.000000*%
%ADD111RoundRect,0.150000X-0.546469X0.262731X0.353633X-0.492544X0.546469X-0.262731X-0.353633X0.492544X0*%
%ADD112C,2.250000*%
%ADD113C,1.308000*%
%ADD114RoundRect,0.450000X-0.633974X-0.055466X0.055466X-0.633974X0.633974X0.055466X-0.055466X0.633974X0*%
%ADD115C,1.800000*%
%ADD116C,2.100000*%
%ADD117C,1.750000*%
%ADD118R,1.800000X1.800000*%
%ADD119C,3.450000*%
%ADD120C,3.170000*%
%ADD121C,2.390000*%
G04 APERTURE END LIST*
D10*
X69450000Y-126700000D03*
X68950000Y-126700000D03*
X68450000Y-126700000D03*
X68450000Y-128200000D03*
X68950000Y-128200000D03*
X69450000Y-128200000D03*
D11*
X74338000Y-142811000D03*
D12*
X73188000Y-142311000D03*
D13*
X73188000Y-141811000D03*
D12*
X73187000Y-141311000D03*
D14*
X73687000Y-140786000D03*
D15*
X73487000Y-140311000D03*
D16*
X73800000Y-139413000D03*
X73400000Y-139413000D03*
X73000000Y-139413000D03*
X72600000Y-139413000D03*
D17*
X72200000Y-139400000D03*
D18*
X71900000Y-139910000D03*
D17*
X71400000Y-139400000D03*
D16*
X71000000Y-139413000D03*
D19*
X70412000Y-140001000D03*
X70412000Y-140401000D03*
X70412000Y-140801000D03*
X70412000Y-141201000D03*
X70412000Y-141601000D03*
X70412000Y-142001000D03*
X70412000Y-142401000D03*
X70412000Y-142801000D03*
D16*
X71000000Y-143387000D03*
X71400000Y-143387000D03*
X71800000Y-143387000D03*
X72200000Y-143387000D03*
X72600000Y-143387000D03*
X73000000Y-143387000D03*
X73400000Y-143387000D03*
X73800000Y-143387000D03*
D20*
X87900000Y-127150000D03*
D21*
X87900000Y-128420000D03*
X87900000Y-129690000D03*
D22*
X65360000Y-121350000D03*
X69690000Y-121350000D03*
X77547500Y-133800000D03*
X81877500Y-133800000D03*
D23*
X74300000Y-157975000D03*
X74300000Y-159625000D03*
D24*
X120561888Y-123729916D03*
X122458112Y-121470084D03*
D25*
X98581987Y-152480299D03*
X97318013Y-151419699D03*
D23*
X92900000Y-124500000D03*
X92900000Y-126150000D03*
D26*
X104125658Y-150440399D03*
X102920432Y-151876733D03*
D27*
X100088013Y-141099700D03*
X101351987Y-142160300D03*
D28*
X77900000Y-145025000D03*
X77900000Y-142075000D03*
D29*
X43744522Y-134934843D03*
X42855478Y-133665157D03*
D30*
X50200000Y-122500000D03*
D31*
X50200000Y-117500000D03*
D32*
X120305300Y-126593013D03*
X119244700Y-127856987D03*
D33*
X67265000Y-144470000D03*
X65715000Y-144470000D03*
D34*
X122581316Y-128576840D03*
X123768684Y-129573160D03*
D23*
X92650000Y-116875000D03*
X92650000Y-118525000D03*
D35*
X67262500Y-157575000D03*
X65387500Y-157575000D03*
D36*
X88112500Y-148400000D03*
X88112500Y-150300000D03*
X89987500Y-149350000D03*
D23*
X74475000Y-147175000D03*
X74475000Y-148825000D03*
D37*
X94043684Y-144598160D03*
X92856316Y-143601840D03*
D27*
X93818013Y-142369700D03*
X95081987Y-143430300D03*
D38*
X71525000Y-129050000D03*
X71525000Y-127400000D03*
D39*
X66825000Y-130525000D03*
X68375000Y-130525000D03*
D40*
X96730000Y-108715000D03*
X96730000Y-110265000D03*
D41*
X94545000Y-107100000D03*
X96195000Y-107100000D03*
D42*
X54034843Y-146480478D03*
X52765157Y-147369522D03*
D40*
X80550000Y-148975000D03*
X80550000Y-150525000D03*
D41*
X61175000Y-152200000D03*
X62825000Y-152200000D03*
D43*
X87600000Y-154640000D03*
D44*
X80400000Y-154640000D03*
D10*
X81250000Y-153980000D03*
X81750000Y-153980000D03*
X82250000Y-153980000D03*
X82750000Y-153980000D03*
X83250000Y-153980000D03*
X83750000Y-153980000D03*
X84250000Y-153980000D03*
X84750000Y-153980000D03*
X85250000Y-153980000D03*
X85750000Y-153980000D03*
X86250000Y-153980000D03*
X86750000Y-153980000D03*
D44*
X86800000Y-155290000D03*
X86400000Y-155990000D03*
X85600000Y-155990000D03*
X85200000Y-155290000D03*
X84800000Y-155990000D03*
X84400000Y-155290000D03*
X83600000Y-155290000D03*
X83200000Y-155990000D03*
X82800000Y-155290000D03*
X82400000Y-155990000D03*
X81600000Y-155990000D03*
X81200000Y-155290000D03*
D45*
X88490000Y-161840000D03*
X88130000Y-155890000D03*
X79510000Y-161840000D03*
X79870000Y-155890000D03*
D32*
X95780300Y-148643013D03*
X94719700Y-149906987D03*
D46*
X94623160Y-147656316D03*
X93626840Y-148843684D03*
D47*
X76070000Y-106940000D03*
D46*
X99048160Y-154156316D03*
X98051840Y-155343684D03*
D32*
X116660526Y-123440195D03*
X115599926Y-124704169D03*
D33*
X75975000Y-145700000D03*
X74425000Y-145700000D03*
D27*
X94818013Y-141169699D03*
X96081987Y-142230299D03*
D48*
X98900000Y-114925000D03*
X98900000Y-113375000D03*
D23*
X93100000Y-112725000D03*
X93100000Y-114375000D03*
D49*
X120451840Y-128793684D03*
X121448160Y-127606316D03*
D50*
X41215157Y-136694522D03*
X42484843Y-135805478D03*
D47*
X82930000Y-123400000D03*
D51*
X45525000Y-112475000D03*
D52*
X45525000Y-111175000D03*
D53*
X45525000Y-109875000D03*
D38*
X64050000Y-144600000D03*
X64050000Y-142950000D03*
D54*
X117815077Y-89532561D03*
X118784923Y-90867439D03*
D47*
X97250000Y-159650000D03*
D55*
X82050000Y-113575000D03*
X81100000Y-113575000D03*
X80150000Y-113575000D03*
X80150000Y-116475000D03*
X81100000Y-116475000D03*
X82050000Y-116475000D03*
D56*
X70955000Y-111550000D03*
X70955000Y-112500000D03*
X70955000Y-113450000D03*
X73245000Y-113450000D03*
X73245000Y-111550000D03*
D57*
X60362500Y-118125000D03*
X63287500Y-118125000D03*
D58*
X40675800Y-132451799D03*
X39324200Y-133398201D03*
D38*
X91375000Y-126150000D03*
X91375000Y-124500000D03*
D33*
X81575000Y-110425000D03*
X80025000Y-110425000D03*
D41*
X65015000Y-137160000D03*
X66665000Y-137160000D03*
D23*
X82180000Y-148925000D03*
X82180000Y-150575000D03*
D33*
X81575000Y-111950000D03*
X80025000Y-111950000D03*
D32*
X113098420Y-120451233D03*
X112037820Y-121715207D03*
D37*
X92393684Y-145348160D03*
X91206316Y-144351840D03*
D27*
X99218013Y-150819700D03*
X100481987Y-151880300D03*
D40*
X72700000Y-145675000D03*
X72700000Y-147225000D03*
X84975000Y-117800000D03*
X84975000Y-119350000D03*
D59*
X68600000Y-147550000D03*
D60*
X67300000Y-147550000D03*
D61*
X66000000Y-147550000D03*
X61300000Y-147550000D03*
D60*
X62600000Y-147550000D03*
D59*
X63900000Y-147550000D03*
D50*
X40315157Y-135444522D03*
X41584843Y-134555478D03*
D39*
X100600000Y-102425000D03*
X102150000Y-102425000D03*
D62*
X75025000Y-109500000D03*
X72075000Y-109500000D03*
D63*
X84662500Y-111900000D03*
X84662500Y-111250000D03*
X84662500Y-110600000D03*
X83162500Y-110600000D03*
X83162500Y-111250000D03*
X83162500Y-111900000D03*
D40*
X95190000Y-108715000D03*
X95190000Y-110265000D03*
D41*
X69825000Y-130525000D03*
X71475000Y-130525000D03*
D64*
X108655922Y-88112599D03*
X110111407Y-89333896D03*
X110588891Y-87286914D03*
D23*
X59500000Y-147525000D03*
X59500000Y-149175000D03*
D32*
X114285789Y-121447554D03*
X113225189Y-122711528D03*
D65*
X86900000Y-113325000D03*
X86400000Y-113325000D03*
X85900000Y-113325000D03*
X85900000Y-116075000D03*
X86400000Y-116075000D03*
X86900000Y-116075000D03*
D66*
X117355029Y-125771739D03*
X117894971Y-125128261D03*
D39*
X100600000Y-103950000D03*
X102150000Y-103950000D03*
D67*
X48075827Y-145943709D03*
X49116150Y-145215267D03*
X50156473Y-144486825D03*
X51196796Y-143758383D03*
X52237119Y-143029941D03*
X53277442Y-142301499D03*
X54317765Y-141573057D03*
X55358089Y-140844614D03*
X56398412Y-140116172D03*
X57438735Y-139387730D03*
X52024173Y-131654935D03*
X50983850Y-132383377D03*
X49943527Y-133111819D03*
X48903204Y-133840261D03*
X47862881Y-134568703D03*
X46822558Y-135297145D03*
X45782235Y-136025587D03*
X44741911Y-136754030D03*
X43701588Y-137482472D03*
X42661265Y-138210914D03*
D68*
X94100000Y-158200000D03*
X94100000Y-160300000D03*
D47*
X44900000Y-126850000D03*
D39*
X85625000Y-152300000D03*
X87175000Y-152300000D03*
D33*
X80525000Y-152050000D03*
X78975000Y-152050000D03*
D69*
X101650000Y-106250000D03*
X101250000Y-106250000D03*
X100850000Y-106250000D03*
X100450000Y-106250000D03*
X100050000Y-106250000D03*
X99650000Y-106250000D03*
X99250000Y-106250000D03*
D70*
X98450000Y-107050000D03*
X98450000Y-107450000D03*
X98450000Y-107850000D03*
X98450000Y-108250000D03*
X98450000Y-108650000D03*
X98450000Y-109050000D03*
X98450000Y-109450000D03*
D69*
X99250000Y-110250000D03*
X99650000Y-110250000D03*
X100050000Y-110250000D03*
X100450000Y-110250000D03*
X100850000Y-110250000D03*
X101250000Y-110250000D03*
X101650000Y-110250000D03*
D70*
X102450000Y-109450000D03*
X102450000Y-109050000D03*
X102450000Y-108650000D03*
X102450000Y-108250000D03*
X102450000Y-107850000D03*
X102450000Y-107450000D03*
X102450000Y-107050000D03*
D71*
X100450000Y-108250000D03*
D34*
X121606316Y-129751840D03*
X122793684Y-130748160D03*
D64*
X104994093Y-87076753D03*
X106449578Y-88298050D03*
X106927062Y-86251068D03*
D38*
X77500000Y-159625000D03*
X77500000Y-157975000D03*
D25*
X108649991Y-85303659D03*
X107386017Y-84243059D03*
D32*
X115473156Y-122443875D03*
X114412556Y-123707849D03*
D61*
X66000000Y-150150000D03*
D60*
X67300000Y-150150000D03*
D59*
X68600000Y-150150000D03*
D72*
X65100000Y-127675000D03*
X59650000Y-127675000D03*
D73*
X60375000Y-122900000D03*
X63325000Y-122900000D03*
D74*
X125009586Y-124649506D03*
X124610414Y-126250494D03*
D23*
X60800000Y-139925000D03*
X60800000Y-141575000D03*
X69200000Y-111575000D03*
X69200000Y-113225000D03*
D32*
X114693616Y-83607386D03*
X113633016Y-84871360D03*
D75*
X63504163Y-98678175D03*
X64847666Y-97334672D03*
X66191169Y-95991169D03*
X67534672Y-94647666D03*
X68878175Y-93304163D03*
D76*
X68878175Y-88495837D03*
X67534672Y-87152334D03*
X66191169Y-85808831D03*
X64847666Y-84465328D03*
X63504163Y-83121825D03*
D75*
X58695837Y-83121825D03*
X57352334Y-84465328D03*
X56008831Y-85808831D03*
X54665328Y-87152334D03*
X53321825Y-88495837D03*
D76*
X53321825Y-93304163D03*
X54665328Y-94647666D03*
X56008831Y-95991169D03*
X57352334Y-97334672D03*
X58695837Y-98678175D03*
D36*
X86462500Y-144550000D03*
X86462500Y-146450000D03*
X88337500Y-145500000D03*
D62*
X71650000Y-136800000D03*
X68700000Y-136800000D03*
D77*
X75025000Y-135600000D03*
X73375000Y-135600000D03*
D78*
X43676799Y-132174200D03*
X44623201Y-133525800D03*
D79*
X125737489Y-121748021D03*
X125362511Y-123251979D03*
D80*
X41849200Y-131648201D03*
X43200800Y-130701799D03*
D47*
X70775000Y-118050000D03*
D81*
X97350000Y-113450000D03*
X96850000Y-113450000D03*
X96350000Y-113450000D03*
D82*
X96250000Y-114050000D03*
D81*
X96350000Y-114650000D03*
X96850000Y-114650000D03*
X97350000Y-114650000D03*
D82*
X97450000Y-114050000D03*
D33*
X84625000Y-108900000D03*
X83075000Y-108900000D03*
D83*
X121082147Y-132715811D03*
X120109270Y-131899470D03*
X119136394Y-131083130D03*
X118163517Y-130266790D03*
X117190641Y-129450449D03*
X116217764Y-128634109D03*
X115244888Y-127817769D03*
X114272011Y-127001429D03*
X113299135Y-126185088D03*
X112326259Y-125368748D03*
X111353382Y-124552408D03*
X110380506Y-123736068D03*
X109407629Y-122919727D03*
X108434753Y-122103387D03*
X107461876Y-121287047D03*
X106489000Y-120470707D03*
X105516123Y-119654366D03*
X104543247Y-118838026D03*
X103570371Y-118021686D03*
X92321587Y-131427463D03*
X93294464Y-132243804D03*
X94267340Y-133060144D03*
X95240217Y-133876484D03*
X96213093Y-134692825D03*
X97185970Y-135509165D03*
X98158846Y-136325505D03*
X99131723Y-137141845D03*
X100104599Y-137958186D03*
X101077475Y-138774526D03*
X102050352Y-139590866D03*
X103023228Y-140407206D03*
X103996105Y-141223547D03*
X104968981Y-142039887D03*
X105941858Y-142856227D03*
X106914734Y-143672567D03*
X107887611Y-144488908D03*
X108860487Y-145305248D03*
X109833363Y-146121588D03*
D84*
X108007138Y-133036348D03*
X111051965Y-133763692D03*
X109079600Y-133936251D03*
X111951868Y-132691229D03*
X109979503Y-132863789D03*
X110152062Y-134836154D03*
X110879405Y-131791327D03*
X108907040Y-131963886D03*
X109806943Y-130891424D03*
D85*
X72325000Y-121110000D03*
X72325000Y-125340000D03*
D32*
X106976165Y-79513373D03*
X105915565Y-80777347D03*
D86*
X76975000Y-121475000D03*
X76975000Y-128075000D03*
D87*
X105197387Y-149218167D03*
X106402613Y-147781833D03*
D77*
X43900000Y-114825000D03*
X42250000Y-114825000D03*
D51*
X48175000Y-112475000D03*
D52*
X48175000Y-111175000D03*
D53*
X48175000Y-109875000D03*
D77*
X67350000Y-155825000D03*
X65700000Y-155825000D03*
D38*
X97330000Y-117725000D03*
X97330000Y-116075000D03*
D41*
X65015000Y-135640000D03*
X66665000Y-135640000D03*
D40*
X88475000Y-113475000D03*
X88475000Y-115025000D03*
D88*
X88250000Y-141735000D03*
X88250000Y-139365000D03*
D89*
X109187500Y-114425000D03*
D90*
X111687500Y-114425000D03*
X114187500Y-114425000D03*
X116687500Y-114425000D03*
X119187500Y-114425000D03*
X121687500Y-114425000D03*
D27*
X102618013Y-146669700D03*
X103881987Y-147730300D03*
D28*
X80300000Y-145025000D03*
X80300000Y-142075000D03*
D91*
X43122511Y-106661979D03*
X43497489Y-105158021D03*
D92*
X56698201Y-145750800D03*
X55751799Y-144399200D03*
D41*
X83217919Y-68900000D03*
X84867919Y-68900000D03*
D48*
X118087500Y-102725000D03*
X118087500Y-101175000D03*
D93*
X96807518Y-140830356D03*
X98028815Y-139374871D03*
X95981833Y-138897387D03*
D77*
X75025000Y-132400000D03*
X73375000Y-132400000D03*
D39*
X101005000Y-112440000D03*
X102555000Y-112440000D03*
D48*
X87760000Y-124880000D03*
X87760000Y-123330000D03*
D23*
X75000000Y-111475000D03*
X75000000Y-113125000D03*
D94*
X104541505Y-77661656D03*
X103058495Y-76938344D03*
D17*
X120100000Y-97500000D03*
X119200000Y-97500000D03*
X118400000Y-97500000D03*
X117600000Y-97500000D03*
X116700000Y-97500000D03*
X117100000Y-98450000D03*
X118000000Y-98450000D03*
X118800000Y-98450000D03*
X119700000Y-98450000D03*
D41*
X65675000Y-152200000D03*
X67325000Y-152200000D03*
D33*
X88025000Y-111725000D03*
X86475000Y-111725000D03*
D47*
X73920000Y-154300000D03*
D40*
X67600000Y-111625000D03*
X67600000Y-113175000D03*
D39*
X86575000Y-117450000D03*
X88125000Y-117450000D03*
D95*
X83360000Y-113375000D03*
X83360000Y-114175000D03*
X83360000Y-114975000D03*
X83360000Y-115775000D03*
X84640000Y-115775000D03*
X84640000Y-114975000D03*
X84640000Y-114175000D03*
X84640000Y-113375000D03*
D33*
X87750000Y-110175000D03*
X86200000Y-110175000D03*
D64*
X103291065Y-83545507D03*
X104746550Y-84766804D03*
X105224034Y-82719822D03*
D37*
X97543684Y-153598159D03*
X96356316Y-152601839D03*
D38*
X53725000Y-113600000D03*
X53725000Y-111950000D03*
D46*
X93423160Y-146456315D03*
X92426840Y-147643683D03*
D77*
X75025000Y-134000000D03*
X73375000Y-134000000D03*
D51*
X42875000Y-112475000D03*
D52*
X42875000Y-111175000D03*
D53*
X42875000Y-109875000D03*
D96*
X95969700Y-150781987D03*
X97030300Y-149518013D03*
D97*
X81450000Y-136275000D03*
X81450000Y-139225000D03*
D48*
X86210000Y-124880000D03*
X86210000Y-123330000D03*
D38*
X104400000Y-110800000D03*
X104400000Y-109150000D03*
D98*
X118325073Y-122204347D03*
X119674927Y-120595653D03*
D39*
X73675000Y-137125000D03*
X75225000Y-137125000D03*
D23*
X77380000Y-148925000D03*
X77380000Y-150575000D03*
D25*
X105291987Y-145490300D03*
X104028013Y-144429700D03*
D99*
X43387489Y-122791979D03*
X43012511Y-121288021D03*
D40*
X71150000Y-145675000D03*
X71150000Y-147225000D03*
D39*
X81900000Y-118025000D03*
X83450000Y-118025000D03*
D61*
X61300000Y-150150000D03*
D60*
X62600000Y-150150000D03*
D59*
X63900000Y-150150000D03*
D38*
X128700000Y-115225000D03*
X128700000Y-113575000D03*
D100*
X94975000Y-97975000D03*
D101*
X94975000Y-95435000D03*
X92435000Y-97975000D03*
X92435000Y-95435000D03*
D23*
X94650000Y-111775000D03*
X94650000Y-113425000D03*
D38*
X89290000Y-124925000D03*
X89290000Y-123275000D03*
D102*
X81212500Y-147050000D03*
X78287500Y-147050000D03*
D39*
X101005000Y-113970000D03*
X102555000Y-113970000D03*
D47*
X83700000Y-146850000D03*
D39*
X96175000Y-111850000D03*
X97725000Y-111850000D03*
D41*
X65025000Y-139000000D03*
X66675000Y-139000000D03*
D77*
X90875000Y-121730000D03*
X89225000Y-121730000D03*
D103*
X92050000Y-158250000D03*
D104*
X90350000Y-158250000D03*
X90350000Y-160250000D03*
X92250000Y-160250000D03*
D33*
X43850000Y-116350000D03*
X42300000Y-116350000D03*
D73*
X60375000Y-120500000D03*
X63325000Y-120500000D03*
D48*
X119612500Y-102725000D03*
X119612500Y-101175000D03*
D40*
X78980000Y-148975000D03*
X78980000Y-150525000D03*
D105*
X116020059Y-87086312D03*
X116931127Y-88340288D03*
D49*
X118101840Y-126843684D03*
X119098160Y-125656316D03*
D106*
X100303435Y-75660262D03*
X101696565Y-76339738D03*
D107*
X57412500Y-113725000D03*
X57412500Y-111825000D03*
X55537500Y-112775000D03*
D108*
X97587373Y-142626104D03*
X97265979Y-143009126D03*
X96944585Y-143392148D03*
X96623191Y-143775170D03*
X96301797Y-144158193D03*
X95980404Y-144541215D03*
X95659010Y-144924237D03*
D109*
X95776104Y-146262627D03*
X96159126Y-146584021D03*
X96542148Y-146905415D03*
X96925170Y-147226809D03*
X97308193Y-147548203D03*
X97691215Y-147869596D03*
X98074237Y-148190990D03*
D108*
X99412627Y-148073896D03*
X99734021Y-147690874D03*
X100055415Y-147307852D03*
X100376809Y-146924830D03*
X100698203Y-146541807D03*
X101019596Y-146158785D03*
X101340990Y-145775763D03*
D109*
X101223896Y-144437373D03*
X100840874Y-144115979D03*
X100457852Y-143794585D03*
X100074830Y-143473191D03*
X99691807Y-143151797D03*
X99308785Y-142830404D03*
X98925763Y-142509010D03*
D110*
X98500000Y-145350000D03*
D62*
X69825000Y-124125000D03*
X66875000Y-124125000D03*
D97*
X78150000Y-136275000D03*
X78150000Y-139225000D03*
D41*
X68725000Y-152200000D03*
X70375000Y-152200000D03*
D111*
X93454353Y-135574435D03*
X92233056Y-137029920D03*
X94280038Y-137507404D03*
D23*
X75900000Y-157975000D03*
X75900000Y-159625000D03*
D112*
X61863356Y-156026653D03*
X54986258Y-151560613D03*
D113*
X60102148Y-154882911D03*
X58424807Y-153793633D03*
X56747466Y-152704355D03*
D114*
X108400000Y-80700000D03*
D115*
X110741635Y-80675425D03*
X110929479Y-82822485D03*
X113076539Y-82634641D03*
D116*
X41800828Y-127978681D03*
X40104956Y-121176908D03*
D117*
X37991322Y-122992163D03*
X39079971Y-127358494D03*
D116*
X126195543Y-128017492D03*
X127891416Y-121215719D03*
D117*
X128913982Y-127407008D03*
X130002631Y-123040677D03*
D118*
X82725000Y-71460388D03*
D115*
X85265000Y-71460388D03*
D116*
X106669440Y-75539751D03*
X100368894Y-72466769D03*
D117*
X106637492Y-72753790D03*
X102592919Y-70781120D03*
D116*
X117666671Y-84596421D03*
X121787045Y-90267631D03*
D117*
X123066766Y-87792774D03*
X120421732Y-84152198D03*
D116*
X40108584Y-106776444D03*
X41804457Y-99974671D03*
D117*
X39086018Y-100585155D03*
X37997369Y-104951486D03*
D116*
X39490000Y-117485000D03*
X39490000Y-110475000D03*
D117*
X37000000Y-111725000D03*
X37000000Y-116225000D03*
D118*
X126500000Y-112700000D03*
D115*
X126500000Y-115240000D03*
D119*
X66495000Y-141600000D03*
X101505000Y-86400000D03*
D120*
X84000000Y-141600000D03*
X84000000Y-86400000D03*
D121*
X101505000Y-149820000D03*
M02*
