%FSLAX45Y45*%
G04 Gerber Fmt 4.5, Leading zero omitted, Abs format (unit mm)*
G04 Created by KiCad (PCBNEW 6.0.6-1.fc36) date 2022-07-28 10:28:27*
%MOMM*%
%LPD*%
G01*
G04 APERTURE LIST*
%TA.AperFunction,Profile*%
%ADD10C,0.200000*%
%TD*%
%ADD11C,0.200000*%
%ADD12C,0.065000*%
%ADD13C,0.150000*%
%ADD14C,0.239000*%
%ADD15C,0.317000*%
%ADD16C,0.345000*%
G04 APERTURE END LIST*
D10*
X10861676Y-15388086D02*
X11059640Y-15554198D01*
X13012761Y-13146288D02*
G75*
G03*
X13091815Y-13125270I32139J38298D01*
G01*
X12854316Y-13013349D02*
G75*
G03*
X12431667Y-13050326I-192837J-229811D01*
G01*
X13091815Y-13125270D02*
G75*
G03*
X11054043Y-15634874I-4692007J1727735D01*
G01*
X12431667Y-13050326D02*
X10824699Y-14965437D01*
X12854317Y-13013349D02*
X13012756Y-13146295D01*
X11054042Y-15634873D02*
G75*
G03*
X11059640Y-15554198I-26542J42373D01*
G01*
X10824695Y-14965434D02*
G75*
G03*
X10861676Y-15388086I229815J-192836D01*
G01*
D11*
D12*
X8007500Y-15431500D02*
X8072500Y-15496500D01*
X8072500Y-15431500D02*
X8007500Y-15496500D01*
X8727500Y-15431500D02*
X8792500Y-15496500D01*
X8792500Y-15431500D02*
X8727500Y-15496500D01*
D11*
X8745000Y-15496500D02*
X8775000Y-15496500D01*
X8745000Y-15431500D02*
X8775000Y-15431500D01*
X8775000Y-15496500D02*
G75*
G03*
X8775000Y-15431500I0J32500D01*
G01*
X8745000Y-15431500D02*
G75*
G03*
X8745000Y-15496500I0J-32500D01*
G01*
D13*
X5573626Y-15156061D02*
G75*
G03*
X5573626Y-15156061I-75000J0D01*
G01*
X6261336Y-15602665D02*
G75*
G03*
X6261336Y-15602665I-75000J0D01*
G01*
D14*
X10150500Y-14862500D02*
X10150500Y-15101500D01*
X10031000Y-14982000D02*
X10270000Y-14982000D01*
D15*
X8512078Y-8752078D02*
X8512078Y-8527923D01*
X8287922Y-8527923D01*
X8287922Y-8752078D01*
X8512078Y-8752078D01*
X8512078Y-14272077D02*
X8512078Y-14047922D01*
X8287922Y-14047922D01*
X8287922Y-14272077D01*
X8512078Y-14272077D01*
D16*
X6649500Y-14332500D02*
X6822000Y-14160000D01*
X6649500Y-13987500D01*
X6477000Y-14160000D01*
X6649500Y-14332500D01*
X10150500Y-8812500D02*
X10323000Y-8640000D01*
X10150500Y-8467500D01*
X9978000Y-8640000D01*
X10150500Y-8812500D01*
D11*
X3647427Y-16718011D02*
X3647427Y-16518011D01*
X3695046Y-16518011D01*
X3723617Y-16527535D01*
X3742665Y-16546583D01*
X3752189Y-16565630D01*
X3761713Y-16603725D01*
X3761713Y-16632297D01*
X3752189Y-16670392D01*
X3742665Y-16689440D01*
X3723617Y-16708487D01*
X3695046Y-16718011D01*
X3647427Y-16718011D01*
X3847427Y-16718011D02*
X3847427Y-16584678D01*
X3847427Y-16622773D02*
X3856951Y-16603725D01*
X3866475Y-16594202D01*
X3885522Y-16584678D01*
X3904570Y-16584678D01*
X3971236Y-16718011D02*
X3971236Y-16584678D01*
X3971236Y-16518011D02*
X3961713Y-16527535D01*
X3971236Y-16537059D01*
X3980760Y-16527535D01*
X3971236Y-16518011D01*
X3971236Y-16537059D01*
X4095046Y-16718011D02*
X4075998Y-16708487D01*
X4066475Y-16689440D01*
X4066475Y-16518011D01*
X4199808Y-16718011D02*
X4180760Y-16708487D01*
X4171236Y-16689440D01*
X4171236Y-16518011D01*
X4428379Y-16718011D02*
X4428379Y-16518011D01*
X4495046Y-16660868D01*
X4561713Y-16518011D01*
X4561713Y-16718011D01*
X4742665Y-16718011D02*
X4742665Y-16613249D01*
X4733141Y-16594202D01*
X4714094Y-16584678D01*
X4675998Y-16584678D01*
X4656951Y-16594202D01*
X4742665Y-16708487D02*
X4723618Y-16718011D01*
X4675998Y-16718011D01*
X4656951Y-16708487D01*
X4647427Y-16689440D01*
X4647427Y-16670392D01*
X4656951Y-16651344D01*
X4675998Y-16641821D01*
X4723618Y-16641821D01*
X4742665Y-16632297D01*
X4837903Y-16584678D02*
X4837903Y-16784678D01*
X4837903Y-16594202D02*
X4856951Y-16584678D01*
X4895046Y-16584678D01*
X4914094Y-16594202D01*
X4923618Y-16603725D01*
X4933141Y-16622773D01*
X4933141Y-16679916D01*
X4923618Y-16698963D01*
X4914094Y-16708487D01*
X4895046Y-16718011D01*
X4856951Y-16718011D01*
X4837903Y-16708487D01*
X5018856Y-16698963D02*
X5028379Y-16708487D01*
X5018856Y-16718011D01*
X5009332Y-16708487D01*
X5018856Y-16698963D01*
X5018856Y-16718011D01*
X5018856Y-16594202D02*
X5028379Y-16603725D01*
X5018856Y-16613249D01*
X5009332Y-16603725D01*
X5018856Y-16594202D01*
X5018856Y-16613249D01*
D12*
X3324808Y-17015035D02*
X3389808Y-17080035D01*
X3389808Y-17015035D02*
X3324808Y-17080035D01*
D11*
X3685522Y-16938011D02*
X3704570Y-16938011D01*
X3723617Y-16947535D01*
X3733141Y-16957059D01*
X3742665Y-16976106D01*
X3752189Y-17014202D01*
X3752189Y-17061821D01*
X3742665Y-17099916D01*
X3733141Y-17118964D01*
X3723617Y-17128487D01*
X3704570Y-17138011D01*
X3685522Y-17138011D01*
X3666475Y-17128487D01*
X3656951Y-17118964D01*
X3647427Y-17099916D01*
X3637903Y-17061821D01*
X3637903Y-17014202D01*
X3647427Y-16976106D01*
X3656951Y-16957059D01*
X3666475Y-16947535D01*
X3685522Y-16938011D01*
X3837903Y-17118964D02*
X3847427Y-17128487D01*
X3837903Y-17138011D01*
X3828379Y-17128487D01*
X3837903Y-17118964D01*
X3837903Y-17138011D01*
X4018856Y-16938011D02*
X3980760Y-16938011D01*
X3961713Y-16947535D01*
X3952189Y-16957059D01*
X3933141Y-16985630D01*
X3923617Y-17023725D01*
X3923617Y-17099916D01*
X3933141Y-17118964D01*
X3942665Y-17128487D01*
X3961713Y-17138011D01*
X3999808Y-17138011D01*
X4018856Y-17128487D01*
X4028379Y-17118964D01*
X4037903Y-17099916D01*
X4037903Y-17052297D01*
X4028379Y-17033249D01*
X4018856Y-17023725D01*
X3999808Y-17014202D01*
X3961713Y-17014202D01*
X3942665Y-17023725D01*
X3933141Y-17033249D01*
X3923617Y-17052297D01*
X4218856Y-16938011D02*
X4123617Y-16938011D01*
X4114094Y-17033249D01*
X4123617Y-17023725D01*
X4142665Y-17014202D01*
X4190284Y-17014202D01*
X4209332Y-17023725D01*
X4218856Y-17033249D01*
X4228379Y-17052297D01*
X4228379Y-17099916D01*
X4218856Y-17118964D01*
X4209332Y-17128487D01*
X4190284Y-17138011D01*
X4142665Y-17138011D01*
X4123617Y-17128487D01*
X4114094Y-17118964D01*
X4352189Y-16938011D02*
X4371237Y-16938011D01*
X4390284Y-16947535D01*
X4399808Y-16957059D01*
X4409332Y-16976106D01*
X4418856Y-17014202D01*
X4418856Y-17061821D01*
X4409332Y-17099916D01*
X4399808Y-17118964D01*
X4390284Y-17128487D01*
X4371237Y-17138011D01*
X4352189Y-17138011D01*
X4333141Y-17128487D01*
X4323618Y-17118964D01*
X4314094Y-17099916D01*
X4304570Y-17061821D01*
X4304570Y-17014202D01*
X4314094Y-16976106D01*
X4323618Y-16957059D01*
X4333141Y-16947535D01*
X4352189Y-16938011D01*
X4504570Y-17138011D02*
X4504570Y-17004678D01*
X4504570Y-17023725D02*
X4514094Y-17014202D01*
X4533141Y-17004678D01*
X4561713Y-17004678D01*
X4580760Y-17014202D01*
X4590284Y-17033249D01*
X4590284Y-17138011D01*
X4590284Y-17033249D02*
X4599808Y-17014202D01*
X4618856Y-17004678D01*
X4647427Y-17004678D01*
X4666475Y-17014202D01*
X4675998Y-17033249D01*
X4675998Y-17138011D01*
X4771237Y-17138011D02*
X4771237Y-17004678D01*
X4771237Y-17023725D02*
X4780760Y-17014202D01*
X4799808Y-17004678D01*
X4828379Y-17004678D01*
X4847427Y-17014202D01*
X4856951Y-17033249D01*
X4856951Y-17138011D01*
X4856951Y-17033249D02*
X4866475Y-17014202D01*
X4885522Y-17004678D01*
X4914094Y-17004678D01*
X4933141Y-17014202D01*
X4942665Y-17033249D01*
X4942665Y-17138011D01*
X5333141Y-16928487D02*
X5161713Y-17185630D01*
X5590284Y-16938011D02*
X5609332Y-16938011D01*
X5628379Y-16947535D01*
X5637903Y-16957059D01*
X5647427Y-16976106D01*
X5656951Y-17014202D01*
X5656951Y-17061821D01*
X5647427Y-17099916D01*
X5637903Y-17118964D01*
X5628379Y-17128487D01*
X5609332Y-17138011D01*
X5590284Y-17138011D01*
X5571237Y-17128487D01*
X5561713Y-17118964D01*
X5552189Y-17099916D01*
X5542665Y-17061821D01*
X5542665Y-17014202D01*
X5552189Y-16976106D01*
X5561713Y-16957059D01*
X5571237Y-16947535D01*
X5590284Y-16938011D01*
X5742665Y-17118964D02*
X5752189Y-17128487D01*
X5742665Y-17138011D01*
X5733141Y-17128487D01*
X5742665Y-17118964D01*
X5742665Y-17138011D01*
X5875998Y-16938011D02*
X5895046Y-16938011D01*
X5914094Y-16947535D01*
X5923617Y-16957059D01*
X5933141Y-16976106D01*
X5942665Y-17014202D01*
X5942665Y-17061821D01*
X5933141Y-17099916D01*
X5923617Y-17118964D01*
X5914094Y-17128487D01*
X5895046Y-17138011D01*
X5875998Y-17138011D01*
X5856951Y-17128487D01*
X5847427Y-17118964D01*
X5837903Y-17099916D01*
X5828379Y-17061821D01*
X5828379Y-17014202D01*
X5837903Y-16976106D01*
X5847427Y-16957059D01*
X5856951Y-16947535D01*
X5875998Y-16938011D01*
X6018856Y-16957059D02*
X6028379Y-16947535D01*
X6047427Y-16938011D01*
X6095046Y-16938011D01*
X6114094Y-16947535D01*
X6123617Y-16957059D01*
X6133141Y-16976106D01*
X6133141Y-16995154D01*
X6123617Y-17023725D01*
X6009332Y-17138011D01*
X6133141Y-17138011D01*
X6314094Y-16938011D02*
X6218856Y-16938011D01*
X6209332Y-17033249D01*
X6218856Y-17023725D01*
X6237903Y-17014202D01*
X6285522Y-17014202D01*
X6304570Y-17023725D01*
X6314094Y-17033249D01*
X6323617Y-17052297D01*
X6323617Y-17099916D01*
X6314094Y-17118964D01*
X6304570Y-17128487D01*
X6285522Y-17138011D01*
X6237903Y-17138011D01*
X6218856Y-17128487D01*
X6209332Y-17118964D01*
X6495046Y-16938011D02*
X6456951Y-16938011D01*
X6437903Y-16947535D01*
X6428379Y-16957059D01*
X6409332Y-16985630D01*
X6399808Y-17023725D01*
X6399808Y-17099916D01*
X6409332Y-17118964D01*
X6418856Y-17128487D01*
X6437903Y-17138011D01*
X6475998Y-17138011D01*
X6495046Y-17128487D01*
X6504570Y-17118964D01*
X6514094Y-17099916D01*
X6514094Y-17052297D01*
X6504570Y-17033249D01*
X6495046Y-17023725D01*
X6475998Y-17014202D01*
X6437903Y-17014202D01*
X6418856Y-17023725D01*
X6409332Y-17033249D01*
X6399808Y-17052297D01*
X6590284Y-16938011D02*
X6590284Y-16976106D01*
X6666475Y-16938011D02*
X6666475Y-16976106D01*
X6961713Y-17214202D02*
X6952189Y-17204678D01*
X6933141Y-17176106D01*
X6923617Y-17157059D01*
X6914094Y-17128487D01*
X6904570Y-17080868D01*
X6904570Y-17042773D01*
X6914094Y-16995154D01*
X6923617Y-16966583D01*
X6933141Y-16947535D01*
X6952189Y-16918964D01*
X6961713Y-16909440D01*
X7142665Y-17138011D02*
X7028379Y-17138011D01*
X7085522Y-17138011D02*
X7085522Y-16938011D01*
X7066475Y-16966583D01*
X7047427Y-16985630D01*
X7028379Y-16995154D01*
X7380760Y-17138011D02*
X7380760Y-16938011D01*
X7466475Y-17138011D02*
X7466475Y-17033249D01*
X7456951Y-17014202D01*
X7437903Y-17004678D01*
X7409332Y-17004678D01*
X7390284Y-17014202D01*
X7380760Y-17023725D01*
X7590284Y-17138011D02*
X7571236Y-17128487D01*
X7561713Y-17118964D01*
X7552189Y-17099916D01*
X7552189Y-17042773D01*
X7561713Y-17023725D01*
X7571236Y-17014202D01*
X7590284Y-17004678D01*
X7618856Y-17004678D01*
X7637903Y-17014202D01*
X7647427Y-17023725D01*
X7656951Y-17042773D01*
X7656951Y-17099916D01*
X7647427Y-17118964D01*
X7637903Y-17128487D01*
X7618856Y-17138011D01*
X7590284Y-17138011D01*
X7771236Y-17138011D02*
X7752189Y-17128487D01*
X7742665Y-17109440D01*
X7742665Y-16938011D01*
X7923617Y-17128487D02*
X7904570Y-17138011D01*
X7866475Y-17138011D01*
X7847427Y-17128487D01*
X7837903Y-17109440D01*
X7837903Y-17033249D01*
X7847427Y-17014202D01*
X7866475Y-17004678D01*
X7904570Y-17004678D01*
X7923617Y-17014202D01*
X7933141Y-17033249D01*
X7933141Y-17052297D01*
X7837903Y-17071345D01*
X8009332Y-17128487D02*
X8028379Y-17138011D01*
X8066475Y-17138011D01*
X8085522Y-17128487D01*
X8095046Y-17109440D01*
X8095046Y-17099916D01*
X8085522Y-17080868D01*
X8066475Y-17071345D01*
X8037903Y-17071345D01*
X8018856Y-17061821D01*
X8009332Y-17042773D01*
X8009332Y-17033249D01*
X8018856Y-17014202D01*
X8037903Y-17004678D01*
X8066475Y-17004678D01*
X8085522Y-17014202D01*
X8333141Y-17061821D02*
X8485522Y-17061821D01*
X8409332Y-17138011D02*
X8409332Y-16985630D01*
X8837903Y-17138011D02*
X8723618Y-17138011D01*
X8780760Y-17138011D02*
X8780760Y-16938011D01*
X8761713Y-16966583D01*
X8742665Y-16985630D01*
X8723618Y-16995154D01*
X9066475Y-17128487D02*
X9085522Y-17138011D01*
X9123618Y-17138011D01*
X9142665Y-17128487D01*
X9152189Y-17109440D01*
X9152189Y-17099916D01*
X9142665Y-17080868D01*
X9123618Y-17071345D01*
X9095046Y-17071345D01*
X9075998Y-17061821D01*
X9066475Y-17042773D01*
X9066475Y-17033249D01*
X9075998Y-17014202D01*
X9095046Y-17004678D01*
X9123618Y-17004678D01*
X9142665Y-17014202D01*
X9266475Y-17138011D02*
X9247427Y-17128487D01*
X9237903Y-17109440D01*
X9237903Y-16938011D01*
X9371237Y-17138011D02*
X9352189Y-17128487D01*
X9342665Y-17118964D01*
X9333141Y-17099916D01*
X9333141Y-17042773D01*
X9342665Y-17023725D01*
X9352189Y-17014202D01*
X9371237Y-17004678D01*
X9399808Y-17004678D01*
X9418856Y-17014202D01*
X9428379Y-17023725D01*
X9437903Y-17042773D01*
X9437903Y-17099916D01*
X9428379Y-17118964D01*
X9418856Y-17128487D01*
X9399808Y-17138011D01*
X9371237Y-17138011D01*
X9495046Y-17004678D02*
X9571237Y-17004678D01*
X9523618Y-16938011D02*
X9523618Y-17109440D01*
X9533141Y-17128487D01*
X9552189Y-17138011D01*
X9571237Y-17138011D01*
X9618856Y-17214202D02*
X9628379Y-17204678D01*
X9647427Y-17176106D01*
X9656951Y-17157059D01*
X9666475Y-17128487D01*
X9675998Y-17080868D01*
X9675998Y-17042773D01*
X9666475Y-16995154D01*
X9656951Y-16966583D01*
X9647427Y-16947535D01*
X9628379Y-16918964D01*
X9618856Y-16909440D01*
X9980760Y-17214202D02*
X9971237Y-17204678D01*
X9952189Y-17176106D01*
X9942665Y-17157059D01*
X9933141Y-17128487D01*
X9923618Y-17080868D01*
X9923618Y-17042773D01*
X9933141Y-16995154D01*
X9942665Y-16966583D01*
X9952189Y-16947535D01*
X9971237Y-16918964D01*
X9980760Y-16909440D01*
X10056951Y-17004678D02*
X10056951Y-17138011D01*
X10056951Y-17023725D02*
X10066475Y-17014202D01*
X10085522Y-17004678D01*
X10114094Y-17004678D01*
X10133141Y-17014202D01*
X10142665Y-17033249D01*
X10142665Y-17138011D01*
X10266475Y-17138011D02*
X10247427Y-17128487D01*
X10237903Y-17118964D01*
X10228379Y-17099916D01*
X10228379Y-17042773D01*
X10237903Y-17023725D01*
X10247427Y-17014202D01*
X10266475Y-17004678D01*
X10295046Y-17004678D01*
X10314094Y-17014202D01*
X10323618Y-17023725D01*
X10333141Y-17042773D01*
X10333141Y-17099916D01*
X10323618Y-17118964D01*
X10314094Y-17128487D01*
X10295046Y-17138011D01*
X10266475Y-17138011D01*
X10390284Y-17004678D02*
X10466475Y-17004678D01*
X10418856Y-16938011D02*
X10418856Y-17109440D01*
X10428379Y-17128487D01*
X10447427Y-17138011D01*
X10466475Y-17138011D01*
X10685522Y-17004678D02*
X10685522Y-17204678D01*
X10685522Y-17014202D02*
X10704570Y-17004678D01*
X10742665Y-17004678D01*
X10761713Y-17014202D01*
X10771237Y-17023725D01*
X10780760Y-17042773D01*
X10780760Y-17099916D01*
X10771237Y-17118964D01*
X10761713Y-17128487D01*
X10742665Y-17138011D01*
X10704570Y-17138011D01*
X10685522Y-17128487D01*
X10895046Y-17138011D02*
X10875998Y-17128487D01*
X10866475Y-17109440D01*
X10866475Y-16938011D01*
X11056951Y-17138011D02*
X11056951Y-17033249D01*
X11047427Y-17014202D01*
X11028379Y-17004678D01*
X10990284Y-17004678D01*
X10971237Y-17014202D01*
X11056951Y-17128487D02*
X11037903Y-17138011D01*
X10990284Y-17138011D01*
X10971237Y-17128487D01*
X10961713Y-17109440D01*
X10961713Y-17090392D01*
X10971237Y-17071345D01*
X10990284Y-17061821D01*
X11037903Y-17061821D01*
X11056951Y-17052297D01*
X11123618Y-17004678D02*
X11199808Y-17004678D01*
X11152189Y-16938011D02*
X11152189Y-17109440D01*
X11161713Y-17128487D01*
X11180760Y-17138011D01*
X11199808Y-17138011D01*
X11342665Y-17128487D02*
X11323617Y-17138011D01*
X11285522Y-17138011D01*
X11266475Y-17128487D01*
X11256951Y-17109440D01*
X11256951Y-17033249D01*
X11266475Y-17014202D01*
X11285522Y-17004678D01*
X11323617Y-17004678D01*
X11342665Y-17014202D01*
X11352189Y-17033249D01*
X11352189Y-17052297D01*
X11256951Y-17071345D01*
X11523617Y-17138011D02*
X11523617Y-16938011D01*
X11523617Y-17128487D02*
X11504570Y-17138011D01*
X11466475Y-17138011D01*
X11447427Y-17128487D01*
X11437903Y-17118964D01*
X11428379Y-17099916D01*
X11428379Y-17042773D01*
X11437903Y-17023725D01*
X11447427Y-17014202D01*
X11466475Y-17004678D01*
X11504570Y-17004678D01*
X11523617Y-17014202D01*
X11599808Y-17214202D02*
X11609332Y-17204678D01*
X11628379Y-17176106D01*
X11637903Y-17157059D01*
X11647427Y-17128487D01*
X11656951Y-17080868D01*
X11656951Y-17042773D01*
X11647427Y-16995154D01*
X11637903Y-16966583D01*
X11628379Y-16947535D01*
X11609332Y-16918964D01*
X11599808Y-16909440D01*
D13*
X3389808Y-17311535D02*
G75*
G03*
X3389808Y-17311535I-75000J0D01*
G01*
D11*
X3752189Y-17402011D02*
X3637903Y-17402011D01*
X3695046Y-17402011D02*
X3695046Y-17202011D01*
X3675998Y-17230583D01*
X3656951Y-17249630D01*
X3637903Y-17259154D01*
X3837903Y-17382964D02*
X3847427Y-17392487D01*
X3837903Y-17402011D01*
X3828379Y-17392487D01*
X3837903Y-17382964D01*
X3837903Y-17402011D01*
X4028379Y-17202011D02*
X3933141Y-17202011D01*
X3923617Y-17297249D01*
X3933141Y-17287725D01*
X3952189Y-17278202D01*
X3999808Y-17278202D01*
X4018856Y-17287725D01*
X4028379Y-17297249D01*
X4037903Y-17316297D01*
X4037903Y-17363916D01*
X4028379Y-17382964D01*
X4018856Y-17392487D01*
X3999808Y-17402011D01*
X3952189Y-17402011D01*
X3933141Y-17392487D01*
X3923617Y-17382964D01*
X4161713Y-17202011D02*
X4180760Y-17202011D01*
X4199808Y-17211535D01*
X4209332Y-17221059D01*
X4218856Y-17240106D01*
X4228379Y-17278202D01*
X4228379Y-17325821D01*
X4218856Y-17363916D01*
X4209332Y-17382964D01*
X4199808Y-17392487D01*
X4180760Y-17402011D01*
X4161713Y-17402011D01*
X4142665Y-17392487D01*
X4133141Y-17382964D01*
X4123617Y-17363916D01*
X4114094Y-17325821D01*
X4114094Y-17278202D01*
X4123617Y-17240106D01*
X4133141Y-17221059D01*
X4142665Y-17211535D01*
X4161713Y-17202011D01*
X4352189Y-17202011D02*
X4371237Y-17202011D01*
X4390284Y-17211535D01*
X4399808Y-17221059D01*
X4409332Y-17240106D01*
X4418856Y-17278202D01*
X4418856Y-17325821D01*
X4409332Y-17363916D01*
X4399808Y-17382964D01*
X4390284Y-17392487D01*
X4371237Y-17402011D01*
X4352189Y-17402011D01*
X4333141Y-17392487D01*
X4323618Y-17382964D01*
X4314094Y-17363916D01*
X4304570Y-17325821D01*
X4304570Y-17278202D01*
X4314094Y-17240106D01*
X4323618Y-17221059D01*
X4333141Y-17211535D01*
X4352189Y-17202011D01*
X4504570Y-17402011D02*
X4504570Y-17268678D01*
X4504570Y-17287725D02*
X4514094Y-17278202D01*
X4533141Y-17268678D01*
X4561713Y-17268678D01*
X4580760Y-17278202D01*
X4590284Y-17297249D01*
X4590284Y-17402011D01*
X4590284Y-17297249D02*
X4599808Y-17278202D01*
X4618856Y-17268678D01*
X4647427Y-17268678D01*
X4666475Y-17278202D01*
X4675998Y-17297249D01*
X4675998Y-17402011D01*
X4771237Y-17402011D02*
X4771237Y-17268678D01*
X4771237Y-17287725D02*
X4780760Y-17278202D01*
X4799808Y-17268678D01*
X4828379Y-17268678D01*
X4847427Y-17278202D01*
X4856951Y-17297249D01*
X4856951Y-17402011D01*
X4856951Y-17297249D02*
X4866475Y-17278202D01*
X4885522Y-17268678D01*
X4914094Y-17268678D01*
X4933141Y-17278202D01*
X4942665Y-17297249D01*
X4942665Y-17402011D01*
X5333141Y-17192487D02*
X5161713Y-17449630D01*
X5590284Y-17202011D02*
X5609332Y-17202011D01*
X5628379Y-17211535D01*
X5637903Y-17221059D01*
X5647427Y-17240106D01*
X5656951Y-17278202D01*
X5656951Y-17325821D01*
X5647427Y-17363916D01*
X5637903Y-17382964D01*
X5628379Y-17392487D01*
X5609332Y-17402011D01*
X5590284Y-17402011D01*
X5571237Y-17392487D01*
X5561713Y-17382964D01*
X5552189Y-17363916D01*
X5542665Y-17325821D01*
X5542665Y-17278202D01*
X5552189Y-17240106D01*
X5561713Y-17221059D01*
X5571237Y-17211535D01*
X5590284Y-17202011D01*
X5742665Y-17382964D02*
X5752189Y-17392487D01*
X5742665Y-17402011D01*
X5733141Y-17392487D01*
X5742665Y-17382964D01*
X5742665Y-17402011D01*
X5875998Y-17202011D02*
X5895046Y-17202011D01*
X5914094Y-17211535D01*
X5923617Y-17221059D01*
X5933141Y-17240106D01*
X5942665Y-17278202D01*
X5942665Y-17325821D01*
X5933141Y-17363916D01*
X5923617Y-17382964D01*
X5914094Y-17392487D01*
X5895046Y-17402011D01*
X5875998Y-17402011D01*
X5856951Y-17392487D01*
X5847427Y-17382964D01*
X5837903Y-17363916D01*
X5828379Y-17325821D01*
X5828379Y-17278202D01*
X5837903Y-17240106D01*
X5847427Y-17221059D01*
X5856951Y-17211535D01*
X5875998Y-17202011D01*
X6123617Y-17202011D02*
X6028379Y-17202011D01*
X6018856Y-17297249D01*
X6028379Y-17287725D01*
X6047427Y-17278202D01*
X6095046Y-17278202D01*
X6114094Y-17287725D01*
X6123617Y-17297249D01*
X6133141Y-17316297D01*
X6133141Y-17363916D01*
X6123617Y-17382964D01*
X6114094Y-17392487D01*
X6095046Y-17402011D01*
X6047427Y-17402011D01*
X6028379Y-17392487D01*
X6018856Y-17382964D01*
X6228379Y-17402011D02*
X6266475Y-17402011D01*
X6285522Y-17392487D01*
X6295046Y-17382964D01*
X6314094Y-17354392D01*
X6323617Y-17316297D01*
X6323617Y-17240106D01*
X6314094Y-17221059D01*
X6304570Y-17211535D01*
X6285522Y-17202011D01*
X6247427Y-17202011D01*
X6228379Y-17211535D01*
X6218856Y-17221059D01*
X6209332Y-17240106D01*
X6209332Y-17287725D01*
X6218856Y-17306773D01*
X6228379Y-17316297D01*
X6247427Y-17325821D01*
X6285522Y-17325821D01*
X6304570Y-17316297D01*
X6314094Y-17306773D01*
X6323617Y-17287725D01*
X6514094Y-17402011D02*
X6399808Y-17402011D01*
X6456951Y-17402011D02*
X6456951Y-17202011D01*
X6437903Y-17230583D01*
X6418856Y-17249630D01*
X6399808Y-17259154D01*
X6590284Y-17202011D02*
X6590284Y-17240106D01*
X6666475Y-17202011D02*
X6666475Y-17240106D01*
X6961713Y-17478202D02*
X6952189Y-17468678D01*
X6933141Y-17440106D01*
X6923617Y-17421059D01*
X6914094Y-17392487D01*
X6904570Y-17344868D01*
X6904570Y-17306773D01*
X6914094Y-17259154D01*
X6923617Y-17230583D01*
X6933141Y-17211535D01*
X6952189Y-17182964D01*
X6961713Y-17173440D01*
X7028379Y-17221059D02*
X7037903Y-17211535D01*
X7056951Y-17202011D01*
X7104570Y-17202011D01*
X7123617Y-17211535D01*
X7133141Y-17221059D01*
X7142665Y-17240106D01*
X7142665Y-17259154D01*
X7133141Y-17287725D01*
X7018856Y-17402011D01*
X7142665Y-17402011D01*
X7380760Y-17402011D02*
X7380760Y-17202011D01*
X7466475Y-17402011D02*
X7466475Y-17297249D01*
X7456951Y-17278202D01*
X7437903Y-17268678D01*
X7409332Y-17268678D01*
X7390284Y-17278202D01*
X7380760Y-17287725D01*
X7590284Y-17402011D02*
X7571236Y-17392487D01*
X7561713Y-17382964D01*
X7552189Y-17363916D01*
X7552189Y-17306773D01*
X7561713Y-17287725D01*
X7571236Y-17278202D01*
X7590284Y-17268678D01*
X7618856Y-17268678D01*
X7637903Y-17278202D01*
X7647427Y-17287725D01*
X7656951Y-17306773D01*
X7656951Y-17363916D01*
X7647427Y-17382964D01*
X7637903Y-17392487D01*
X7618856Y-17402011D01*
X7590284Y-17402011D01*
X7771236Y-17402011D02*
X7752189Y-17392487D01*
X7742665Y-17373440D01*
X7742665Y-17202011D01*
X7923617Y-17392487D02*
X7904570Y-17402011D01*
X7866475Y-17402011D01*
X7847427Y-17392487D01*
X7837903Y-17373440D01*
X7837903Y-17297249D01*
X7847427Y-17278202D01*
X7866475Y-17268678D01*
X7904570Y-17268678D01*
X7923617Y-17278202D01*
X7933141Y-17297249D01*
X7933141Y-17316297D01*
X7837903Y-17335345D01*
X8009332Y-17392487D02*
X8028379Y-17402011D01*
X8066475Y-17402011D01*
X8085522Y-17392487D01*
X8095046Y-17373440D01*
X8095046Y-17363916D01*
X8085522Y-17344868D01*
X8066475Y-17335345D01*
X8037903Y-17335345D01*
X8018856Y-17325821D01*
X8009332Y-17306773D01*
X8009332Y-17297249D01*
X8018856Y-17278202D01*
X8037903Y-17268678D01*
X8066475Y-17268678D01*
X8085522Y-17278202D01*
X8161713Y-17478202D02*
X8171236Y-17468678D01*
X8190284Y-17440106D01*
X8199808Y-17421059D01*
X8209332Y-17392487D01*
X8218856Y-17344868D01*
X8218856Y-17306773D01*
X8209332Y-17259154D01*
X8199808Y-17230583D01*
X8190284Y-17211535D01*
X8171236Y-17182964D01*
X8161713Y-17173440D01*
X8523618Y-17478202D02*
X8514094Y-17468678D01*
X8495046Y-17440106D01*
X8485522Y-17421059D01*
X8475998Y-17392487D01*
X8466475Y-17344868D01*
X8466475Y-17306773D01*
X8475998Y-17259154D01*
X8485522Y-17230583D01*
X8495046Y-17211535D01*
X8514094Y-17182964D01*
X8523618Y-17173440D01*
X8599808Y-17268678D02*
X8599808Y-17402011D01*
X8599808Y-17287725D02*
X8609332Y-17278202D01*
X8628379Y-17268678D01*
X8656951Y-17268678D01*
X8675998Y-17278202D01*
X8685522Y-17297249D01*
X8685522Y-17402011D01*
X8809332Y-17402011D02*
X8790284Y-17392487D01*
X8780760Y-17382964D01*
X8771237Y-17363916D01*
X8771237Y-17306773D01*
X8780760Y-17287725D01*
X8790284Y-17278202D01*
X8809332Y-17268678D01*
X8837903Y-17268678D01*
X8856951Y-17278202D01*
X8866475Y-17287725D01*
X8875998Y-17306773D01*
X8875998Y-17363916D01*
X8866475Y-17382964D01*
X8856951Y-17392487D01*
X8837903Y-17402011D01*
X8809332Y-17402011D01*
X8933141Y-17268678D02*
X9009332Y-17268678D01*
X8961713Y-17202011D02*
X8961713Y-17373440D01*
X8971237Y-17392487D01*
X8990284Y-17402011D01*
X9009332Y-17402011D01*
X9228379Y-17268678D02*
X9228379Y-17468678D01*
X9228379Y-17278202D02*
X9247427Y-17268678D01*
X9285522Y-17268678D01*
X9304570Y-17278202D01*
X9314094Y-17287725D01*
X9323618Y-17306773D01*
X9323618Y-17363916D01*
X9314094Y-17382964D01*
X9304570Y-17392487D01*
X9285522Y-17402011D01*
X9247427Y-17402011D01*
X9228379Y-17392487D01*
X9437903Y-17402011D02*
X9418856Y-17392487D01*
X9409332Y-17373440D01*
X9409332Y-17202011D01*
X9599808Y-17402011D02*
X9599808Y-17297249D01*
X9590284Y-17278202D01*
X9571237Y-17268678D01*
X9533141Y-17268678D01*
X9514094Y-17278202D01*
X9599808Y-17392487D02*
X9580760Y-17402011D01*
X9533141Y-17402011D01*
X9514094Y-17392487D01*
X9504570Y-17373440D01*
X9504570Y-17354392D01*
X9514094Y-17335345D01*
X9533141Y-17325821D01*
X9580760Y-17325821D01*
X9599808Y-17316297D01*
X9666475Y-17268678D02*
X9742665Y-17268678D01*
X9695046Y-17202011D02*
X9695046Y-17373440D01*
X9704570Y-17392487D01*
X9723618Y-17402011D01*
X9742665Y-17402011D01*
X9885522Y-17392487D02*
X9866475Y-17402011D01*
X9828379Y-17402011D01*
X9809332Y-17392487D01*
X9799808Y-17373440D01*
X9799808Y-17297249D01*
X9809332Y-17278202D01*
X9828379Y-17268678D01*
X9866475Y-17268678D01*
X9885522Y-17278202D01*
X9895046Y-17297249D01*
X9895046Y-17316297D01*
X9799808Y-17335345D01*
X10066475Y-17402011D02*
X10066475Y-17202011D01*
X10066475Y-17392487D02*
X10047427Y-17402011D01*
X10009332Y-17402011D01*
X9990284Y-17392487D01*
X9980760Y-17382964D01*
X9971237Y-17363916D01*
X9971237Y-17306773D01*
X9980760Y-17287725D01*
X9990284Y-17278202D01*
X10009332Y-17268678D01*
X10047427Y-17268678D01*
X10066475Y-17278202D01*
X10142665Y-17478202D02*
X10152189Y-17468678D01*
X10171237Y-17440106D01*
X10180760Y-17421059D01*
X10190284Y-17392487D01*
X10199808Y-17344868D01*
X10199808Y-17306773D01*
X10190284Y-17259154D01*
X10180760Y-17230583D01*
X10171237Y-17211535D01*
X10152189Y-17182964D01*
X10142665Y-17173440D01*
X3289808Y-17481535D02*
X3289808Y-17681535D01*
X3189808Y-17581535D02*
X3389808Y-17581535D01*
X3637903Y-17491059D02*
X3647427Y-17481535D01*
X3666475Y-17472011D01*
X3714094Y-17472011D01*
X3733141Y-17481535D01*
X3742665Y-17491059D01*
X3752189Y-17510106D01*
X3752189Y-17529154D01*
X3742665Y-17557725D01*
X3628379Y-17672011D01*
X3752189Y-17672011D01*
X3837903Y-17652964D02*
X3847427Y-17662487D01*
X3837903Y-17672011D01*
X3828379Y-17662487D01*
X3837903Y-17652964D01*
X3837903Y-17672011D01*
X3914094Y-17472011D02*
X4037903Y-17472011D01*
X3971236Y-17548202D01*
X3999808Y-17548202D01*
X4018856Y-17557725D01*
X4028379Y-17567249D01*
X4037903Y-17586297D01*
X4037903Y-17633916D01*
X4028379Y-17652964D01*
X4018856Y-17662487D01*
X3999808Y-17672011D01*
X3942665Y-17672011D01*
X3923617Y-17662487D01*
X3914094Y-17652964D01*
X4133141Y-17672011D02*
X4171236Y-17672011D01*
X4190284Y-17662487D01*
X4199808Y-17652964D01*
X4218856Y-17624392D01*
X4228379Y-17586297D01*
X4228379Y-17510106D01*
X4218856Y-17491059D01*
X4209332Y-17481535D01*
X4190284Y-17472011D01*
X4152189Y-17472011D01*
X4133141Y-17481535D01*
X4123617Y-17491059D01*
X4114094Y-17510106D01*
X4114094Y-17557725D01*
X4123617Y-17576773D01*
X4133141Y-17586297D01*
X4152189Y-17595821D01*
X4190284Y-17595821D01*
X4209332Y-17586297D01*
X4218856Y-17576773D01*
X4228379Y-17557725D01*
X4352189Y-17472011D02*
X4371237Y-17472011D01*
X4390284Y-17481535D01*
X4399808Y-17491059D01*
X4409332Y-17510106D01*
X4418856Y-17548202D01*
X4418856Y-17595821D01*
X4409332Y-17633916D01*
X4399808Y-17652964D01*
X4390284Y-17662487D01*
X4371237Y-17672011D01*
X4352189Y-17672011D01*
X4333141Y-17662487D01*
X4323618Y-17652964D01*
X4314094Y-17633916D01*
X4304570Y-17595821D01*
X4304570Y-17548202D01*
X4314094Y-17510106D01*
X4323618Y-17491059D01*
X4333141Y-17481535D01*
X4352189Y-17472011D01*
X4504570Y-17672011D02*
X4504570Y-17538678D01*
X4504570Y-17557725D02*
X4514094Y-17548202D01*
X4533141Y-17538678D01*
X4561713Y-17538678D01*
X4580760Y-17548202D01*
X4590284Y-17567249D01*
X4590284Y-17672011D01*
X4590284Y-17567249D02*
X4599808Y-17548202D01*
X4618856Y-17538678D01*
X4647427Y-17538678D01*
X4666475Y-17548202D01*
X4675998Y-17567249D01*
X4675998Y-17672011D01*
X4771237Y-17672011D02*
X4771237Y-17538678D01*
X4771237Y-17557725D02*
X4780760Y-17548202D01*
X4799808Y-17538678D01*
X4828379Y-17538678D01*
X4847427Y-17548202D01*
X4856951Y-17567249D01*
X4856951Y-17672011D01*
X4856951Y-17567249D02*
X4866475Y-17548202D01*
X4885522Y-17538678D01*
X4914094Y-17538678D01*
X4933141Y-17548202D01*
X4942665Y-17567249D01*
X4942665Y-17672011D01*
X5333141Y-17462487D02*
X5161713Y-17719630D01*
X5590284Y-17472011D02*
X5609332Y-17472011D01*
X5628379Y-17481535D01*
X5637903Y-17491059D01*
X5647427Y-17510106D01*
X5656951Y-17548202D01*
X5656951Y-17595821D01*
X5647427Y-17633916D01*
X5637903Y-17652964D01*
X5628379Y-17662487D01*
X5609332Y-17672011D01*
X5590284Y-17672011D01*
X5571237Y-17662487D01*
X5561713Y-17652964D01*
X5552189Y-17633916D01*
X5542665Y-17595821D01*
X5542665Y-17548202D01*
X5552189Y-17510106D01*
X5561713Y-17491059D01*
X5571237Y-17481535D01*
X5590284Y-17472011D01*
X5742665Y-17652964D02*
X5752189Y-17662487D01*
X5742665Y-17672011D01*
X5733141Y-17662487D01*
X5742665Y-17652964D01*
X5742665Y-17672011D01*
X5875998Y-17472011D02*
X5895046Y-17472011D01*
X5914094Y-17481535D01*
X5923617Y-17491059D01*
X5933141Y-17510106D01*
X5942665Y-17548202D01*
X5942665Y-17595821D01*
X5933141Y-17633916D01*
X5923617Y-17652964D01*
X5914094Y-17662487D01*
X5895046Y-17672011D01*
X5875998Y-17672011D01*
X5856951Y-17662487D01*
X5847427Y-17652964D01*
X5837903Y-17633916D01*
X5828379Y-17595821D01*
X5828379Y-17548202D01*
X5837903Y-17510106D01*
X5847427Y-17491059D01*
X5856951Y-17481535D01*
X5875998Y-17472011D01*
X6037903Y-17672011D02*
X6075998Y-17672011D01*
X6095046Y-17662487D01*
X6104570Y-17652964D01*
X6123617Y-17624392D01*
X6133141Y-17586297D01*
X6133141Y-17510106D01*
X6123617Y-17491059D01*
X6114094Y-17481535D01*
X6095046Y-17472011D01*
X6056951Y-17472011D01*
X6037903Y-17481535D01*
X6028379Y-17491059D01*
X6018856Y-17510106D01*
X6018856Y-17557725D01*
X6028379Y-17576773D01*
X6037903Y-17586297D01*
X6056951Y-17595821D01*
X6095046Y-17595821D01*
X6114094Y-17586297D01*
X6123617Y-17576773D01*
X6133141Y-17557725D01*
X6304570Y-17538678D02*
X6304570Y-17672011D01*
X6256951Y-17462487D02*
X6209332Y-17605345D01*
X6333141Y-17605345D01*
X6514094Y-17672011D02*
X6399808Y-17672011D01*
X6456951Y-17672011D02*
X6456951Y-17472011D01*
X6437903Y-17500583D01*
X6418856Y-17519630D01*
X6399808Y-17529154D01*
X6590284Y-17472011D02*
X6590284Y-17510106D01*
X6666475Y-17472011D02*
X6666475Y-17510106D01*
X6961713Y-17748202D02*
X6952189Y-17738678D01*
X6933141Y-17710106D01*
X6923617Y-17691059D01*
X6914094Y-17662487D01*
X6904570Y-17614868D01*
X6904570Y-17576773D01*
X6914094Y-17529154D01*
X6923617Y-17500583D01*
X6933141Y-17481535D01*
X6952189Y-17452964D01*
X6961713Y-17443440D01*
X7142665Y-17672011D02*
X7028379Y-17672011D01*
X7085522Y-17672011D02*
X7085522Y-17472011D01*
X7066475Y-17500583D01*
X7047427Y-17519630D01*
X7028379Y-17529154D01*
X7380760Y-17672011D02*
X7380760Y-17472011D01*
X7466475Y-17672011D02*
X7466475Y-17567249D01*
X7456951Y-17548202D01*
X7437903Y-17538678D01*
X7409332Y-17538678D01*
X7390284Y-17548202D01*
X7380760Y-17557725D01*
X7590284Y-17672011D02*
X7571236Y-17662487D01*
X7561713Y-17652964D01*
X7552189Y-17633916D01*
X7552189Y-17576773D01*
X7561713Y-17557725D01*
X7571236Y-17548202D01*
X7590284Y-17538678D01*
X7618856Y-17538678D01*
X7637903Y-17548202D01*
X7647427Y-17557725D01*
X7656951Y-17576773D01*
X7656951Y-17633916D01*
X7647427Y-17652964D01*
X7637903Y-17662487D01*
X7618856Y-17672011D01*
X7590284Y-17672011D01*
X7771236Y-17672011D02*
X7752189Y-17662487D01*
X7742665Y-17643440D01*
X7742665Y-17472011D01*
X7923617Y-17662487D02*
X7904570Y-17672011D01*
X7866475Y-17672011D01*
X7847427Y-17662487D01*
X7837903Y-17643440D01*
X7837903Y-17567249D01*
X7847427Y-17548202D01*
X7866475Y-17538678D01*
X7904570Y-17538678D01*
X7923617Y-17548202D01*
X7933141Y-17567249D01*
X7933141Y-17586297D01*
X7837903Y-17605345D01*
X7999808Y-17748202D02*
X8009332Y-17738678D01*
X8028379Y-17710106D01*
X8037903Y-17691059D01*
X8047427Y-17662487D01*
X8056951Y-17614868D01*
X8056951Y-17576773D01*
X8047427Y-17529154D01*
X8037903Y-17500583D01*
X8028379Y-17481535D01*
X8009332Y-17452964D01*
X7999808Y-17443440D01*
X8361713Y-17748202D02*
X8352189Y-17738678D01*
X8333141Y-17710106D01*
X8323617Y-17691059D01*
X8314094Y-17662487D01*
X8304570Y-17614868D01*
X8304570Y-17576773D01*
X8314094Y-17529154D01*
X8323617Y-17500583D01*
X8333141Y-17481535D01*
X8352189Y-17452964D01*
X8361713Y-17443440D01*
X8437903Y-17538678D02*
X8437903Y-17672011D01*
X8437903Y-17557725D02*
X8447427Y-17548202D01*
X8466475Y-17538678D01*
X8495046Y-17538678D01*
X8514094Y-17548202D01*
X8523618Y-17567249D01*
X8523618Y-17672011D01*
X8647427Y-17672011D02*
X8628379Y-17662487D01*
X8618856Y-17652964D01*
X8609332Y-17633916D01*
X8609332Y-17576773D01*
X8618856Y-17557725D01*
X8628379Y-17548202D01*
X8647427Y-17538678D01*
X8675998Y-17538678D01*
X8695046Y-17548202D01*
X8704570Y-17557725D01*
X8714094Y-17576773D01*
X8714094Y-17633916D01*
X8704570Y-17652964D01*
X8695046Y-17662487D01*
X8675998Y-17672011D01*
X8647427Y-17672011D01*
X8771237Y-17538678D02*
X8847427Y-17538678D01*
X8799808Y-17472011D02*
X8799808Y-17643440D01*
X8809332Y-17662487D01*
X8828379Y-17672011D01*
X8847427Y-17672011D01*
X9066475Y-17538678D02*
X9066475Y-17738678D01*
X9066475Y-17548202D02*
X9085522Y-17538678D01*
X9123618Y-17538678D01*
X9142665Y-17548202D01*
X9152189Y-17557725D01*
X9161713Y-17576773D01*
X9161713Y-17633916D01*
X9152189Y-17652964D01*
X9142665Y-17662487D01*
X9123618Y-17672011D01*
X9085522Y-17672011D01*
X9066475Y-17662487D01*
X9275998Y-17672011D02*
X9256951Y-17662487D01*
X9247427Y-17643440D01*
X9247427Y-17472011D01*
X9437903Y-17672011D02*
X9437903Y-17567249D01*
X9428379Y-17548202D01*
X9409332Y-17538678D01*
X9371237Y-17538678D01*
X9352189Y-17548202D01*
X9437903Y-17662487D02*
X9418856Y-17672011D01*
X9371237Y-17672011D01*
X9352189Y-17662487D01*
X9342665Y-17643440D01*
X9342665Y-17624392D01*
X9352189Y-17605345D01*
X9371237Y-17595821D01*
X9418856Y-17595821D01*
X9437903Y-17586297D01*
X9504570Y-17538678D02*
X9580760Y-17538678D01*
X9533141Y-17472011D02*
X9533141Y-17643440D01*
X9542665Y-17662487D01*
X9561713Y-17672011D01*
X9580760Y-17672011D01*
X9723618Y-17662487D02*
X9704570Y-17672011D01*
X9666475Y-17672011D01*
X9647427Y-17662487D01*
X9637903Y-17643440D01*
X9637903Y-17567249D01*
X9647427Y-17548202D01*
X9666475Y-17538678D01*
X9704570Y-17538678D01*
X9723618Y-17548202D01*
X9733141Y-17567249D01*
X9733141Y-17586297D01*
X9637903Y-17605345D01*
X9904570Y-17672011D02*
X9904570Y-17472011D01*
X9904570Y-17662487D02*
X9885522Y-17672011D01*
X9847427Y-17672011D01*
X9828379Y-17662487D01*
X9818856Y-17652964D01*
X9809332Y-17633916D01*
X9809332Y-17576773D01*
X9818856Y-17557725D01*
X9828379Y-17548202D01*
X9847427Y-17538678D01*
X9885522Y-17538678D01*
X9904570Y-17548202D01*
X9980760Y-17748202D02*
X9990284Y-17738678D01*
X10009332Y-17710106D01*
X10018856Y-17691059D01*
X10028379Y-17662487D01*
X10037903Y-17614868D01*
X10037903Y-17576773D01*
X10028379Y-17529154D01*
X10018856Y-17500583D01*
X10009332Y-17481535D01*
X9990284Y-17452964D01*
X9980760Y-17443440D01*
X3360519Y-17972246D02*
X3360519Y-17830824D01*
X3219097Y-17830824D01*
X3219097Y-17972246D01*
X3360519Y-17972246D01*
X3628379Y-17792011D02*
X3752189Y-17792011D01*
X3685522Y-17868202D01*
X3714094Y-17868202D01*
X3733141Y-17877725D01*
X3742665Y-17887249D01*
X3752189Y-17906297D01*
X3752189Y-17953916D01*
X3742665Y-17972964D01*
X3733141Y-17982487D01*
X3714094Y-17992011D01*
X3656951Y-17992011D01*
X3637903Y-17982487D01*
X3628379Y-17972964D01*
X3837903Y-17972964D02*
X3847427Y-17982487D01*
X3837903Y-17992011D01*
X3828379Y-17982487D01*
X3837903Y-17972964D01*
X3837903Y-17992011D01*
X4037903Y-17992011D02*
X3923617Y-17992011D01*
X3980760Y-17992011D02*
X3980760Y-17792011D01*
X3961713Y-17820583D01*
X3942665Y-17839630D01*
X3923617Y-17849154D01*
X4104570Y-17792011D02*
X4237903Y-17792011D01*
X4152189Y-17992011D01*
X4352189Y-17792011D02*
X4371237Y-17792011D01*
X4390284Y-17801535D01*
X4399808Y-17811059D01*
X4409332Y-17830106D01*
X4418856Y-17868202D01*
X4418856Y-17915821D01*
X4409332Y-17953916D01*
X4399808Y-17972964D01*
X4390284Y-17982487D01*
X4371237Y-17992011D01*
X4352189Y-17992011D01*
X4333141Y-17982487D01*
X4323618Y-17972964D01*
X4314094Y-17953916D01*
X4304570Y-17915821D01*
X4304570Y-17868202D01*
X4314094Y-17830106D01*
X4323618Y-17811059D01*
X4333141Y-17801535D01*
X4352189Y-17792011D01*
X4504570Y-17992011D02*
X4504570Y-17858678D01*
X4504570Y-17877725D02*
X4514094Y-17868202D01*
X4533141Y-17858678D01*
X4561713Y-17858678D01*
X4580760Y-17868202D01*
X4590284Y-17887249D01*
X4590284Y-17992011D01*
X4590284Y-17887249D02*
X4599808Y-17868202D01*
X4618856Y-17858678D01*
X4647427Y-17858678D01*
X4666475Y-17868202D01*
X4675998Y-17887249D01*
X4675998Y-17992011D01*
X4771237Y-17992011D02*
X4771237Y-17858678D01*
X4771237Y-17877725D02*
X4780760Y-17868202D01*
X4799808Y-17858678D01*
X4828379Y-17858678D01*
X4847427Y-17868202D01*
X4856951Y-17887249D01*
X4856951Y-17992011D01*
X4856951Y-17887249D02*
X4866475Y-17868202D01*
X4885522Y-17858678D01*
X4914094Y-17858678D01*
X4933141Y-17868202D01*
X4942665Y-17887249D01*
X4942665Y-17992011D01*
X5333141Y-17782487D02*
X5161713Y-18039630D01*
X5590284Y-17792011D02*
X5609332Y-17792011D01*
X5628379Y-17801535D01*
X5637903Y-17811059D01*
X5647427Y-17830106D01*
X5656951Y-17868202D01*
X5656951Y-17915821D01*
X5647427Y-17953916D01*
X5637903Y-17972964D01*
X5628379Y-17982487D01*
X5609332Y-17992011D01*
X5590284Y-17992011D01*
X5571237Y-17982487D01*
X5561713Y-17972964D01*
X5552189Y-17953916D01*
X5542665Y-17915821D01*
X5542665Y-17868202D01*
X5552189Y-17830106D01*
X5561713Y-17811059D01*
X5571237Y-17801535D01*
X5590284Y-17792011D01*
X5742665Y-17972964D02*
X5752189Y-17982487D01*
X5742665Y-17992011D01*
X5733141Y-17982487D01*
X5742665Y-17972964D01*
X5742665Y-17992011D01*
X5942665Y-17992011D02*
X5828379Y-17992011D01*
X5885522Y-17992011D02*
X5885522Y-17792011D01*
X5866475Y-17820583D01*
X5847427Y-17839630D01*
X5828379Y-17849154D01*
X6018856Y-17811059D02*
X6028379Y-17801535D01*
X6047427Y-17792011D01*
X6095046Y-17792011D01*
X6114094Y-17801535D01*
X6123617Y-17811059D01*
X6133141Y-17830106D01*
X6133141Y-17849154D01*
X6123617Y-17877725D01*
X6009332Y-17992011D01*
X6133141Y-17992011D01*
X6304570Y-17858678D02*
X6304570Y-17992011D01*
X6256951Y-17782487D02*
X6209332Y-17925345D01*
X6333141Y-17925345D01*
X6437903Y-17877725D02*
X6418856Y-17868202D01*
X6409332Y-17858678D01*
X6399808Y-17839630D01*
X6399808Y-17830106D01*
X6409332Y-17811059D01*
X6418856Y-17801535D01*
X6437903Y-17792011D01*
X6475998Y-17792011D01*
X6495046Y-17801535D01*
X6504570Y-17811059D01*
X6514094Y-17830106D01*
X6514094Y-17839630D01*
X6504570Y-17858678D01*
X6495046Y-17868202D01*
X6475998Y-17877725D01*
X6437903Y-17877725D01*
X6418856Y-17887249D01*
X6409332Y-17896773D01*
X6399808Y-17915821D01*
X6399808Y-17953916D01*
X6409332Y-17972964D01*
X6418856Y-17982487D01*
X6437903Y-17992011D01*
X6475998Y-17992011D01*
X6495046Y-17982487D01*
X6504570Y-17972964D01*
X6514094Y-17953916D01*
X6514094Y-17915821D01*
X6504570Y-17896773D01*
X6495046Y-17887249D01*
X6475998Y-17877725D01*
X6590284Y-17792011D02*
X6590284Y-17830106D01*
X6666475Y-17792011D02*
X6666475Y-17830106D01*
X6961713Y-18068202D02*
X6952189Y-18058678D01*
X6933141Y-18030106D01*
X6923617Y-18011059D01*
X6914094Y-17982487D01*
X6904570Y-17934868D01*
X6904570Y-17896773D01*
X6914094Y-17849154D01*
X6923617Y-17820583D01*
X6933141Y-17801535D01*
X6952189Y-17772964D01*
X6961713Y-17763440D01*
X7028379Y-17811059D02*
X7037903Y-17801535D01*
X7056951Y-17792011D01*
X7104570Y-17792011D01*
X7123617Y-17801535D01*
X7133141Y-17811059D01*
X7142665Y-17830106D01*
X7142665Y-17849154D01*
X7133141Y-17877725D01*
X7018856Y-17992011D01*
X7142665Y-17992011D01*
X7380760Y-17992011D02*
X7380760Y-17792011D01*
X7466475Y-17992011D02*
X7466475Y-17887249D01*
X7456951Y-17868202D01*
X7437903Y-17858678D01*
X7409332Y-17858678D01*
X7390284Y-17868202D01*
X7380760Y-17877725D01*
X7590284Y-17992011D02*
X7571236Y-17982487D01*
X7561713Y-17972964D01*
X7552189Y-17953916D01*
X7552189Y-17896773D01*
X7561713Y-17877725D01*
X7571236Y-17868202D01*
X7590284Y-17858678D01*
X7618856Y-17858678D01*
X7637903Y-17868202D01*
X7647427Y-17877725D01*
X7656951Y-17896773D01*
X7656951Y-17953916D01*
X7647427Y-17972964D01*
X7637903Y-17982487D01*
X7618856Y-17992011D01*
X7590284Y-17992011D01*
X7771236Y-17992011D02*
X7752189Y-17982487D01*
X7742665Y-17963440D01*
X7742665Y-17792011D01*
X7923617Y-17982487D02*
X7904570Y-17992011D01*
X7866475Y-17992011D01*
X7847427Y-17982487D01*
X7837903Y-17963440D01*
X7837903Y-17887249D01*
X7847427Y-17868202D01*
X7866475Y-17858678D01*
X7904570Y-17858678D01*
X7923617Y-17868202D01*
X7933141Y-17887249D01*
X7933141Y-17906297D01*
X7837903Y-17925345D01*
X8009332Y-17982487D02*
X8028379Y-17992011D01*
X8066475Y-17992011D01*
X8085522Y-17982487D01*
X8095046Y-17963440D01*
X8095046Y-17953916D01*
X8085522Y-17934868D01*
X8066475Y-17925345D01*
X8037903Y-17925345D01*
X8018856Y-17915821D01*
X8009332Y-17896773D01*
X8009332Y-17887249D01*
X8018856Y-17868202D01*
X8037903Y-17858678D01*
X8066475Y-17858678D01*
X8085522Y-17868202D01*
X8161713Y-18068202D02*
X8171236Y-18058678D01*
X8190284Y-18030106D01*
X8199808Y-18011059D01*
X8209332Y-17982487D01*
X8218856Y-17934868D01*
X8218856Y-17896773D01*
X8209332Y-17849154D01*
X8199808Y-17820583D01*
X8190284Y-17801535D01*
X8171236Y-17772964D01*
X8161713Y-17763440D01*
X8523618Y-18068202D02*
X8514094Y-18058678D01*
X8495046Y-18030106D01*
X8485522Y-18011059D01*
X8475998Y-17982487D01*
X8466475Y-17934868D01*
X8466475Y-17896773D01*
X8475998Y-17849154D01*
X8485522Y-17820583D01*
X8495046Y-17801535D01*
X8514094Y-17772964D01*
X8523618Y-17763440D01*
X8599808Y-17858678D02*
X8599808Y-17992011D01*
X8599808Y-17877725D02*
X8609332Y-17868202D01*
X8628379Y-17858678D01*
X8656951Y-17858678D01*
X8675998Y-17868202D01*
X8685522Y-17887249D01*
X8685522Y-17992011D01*
X8809332Y-17992011D02*
X8790284Y-17982487D01*
X8780760Y-17972964D01*
X8771237Y-17953916D01*
X8771237Y-17896773D01*
X8780760Y-17877725D01*
X8790284Y-17868202D01*
X8809332Y-17858678D01*
X8837903Y-17858678D01*
X8856951Y-17868202D01*
X8866475Y-17877725D01*
X8875998Y-17896773D01*
X8875998Y-17953916D01*
X8866475Y-17972964D01*
X8856951Y-17982487D01*
X8837903Y-17992011D01*
X8809332Y-17992011D01*
X8933141Y-17858678D02*
X9009332Y-17858678D01*
X8961713Y-17792011D02*
X8961713Y-17963440D01*
X8971237Y-17982487D01*
X8990284Y-17992011D01*
X9009332Y-17992011D01*
X9228379Y-17858678D02*
X9228379Y-18058678D01*
X9228379Y-17868202D02*
X9247427Y-17858678D01*
X9285522Y-17858678D01*
X9304570Y-17868202D01*
X9314094Y-17877725D01*
X9323618Y-17896773D01*
X9323618Y-17953916D01*
X9314094Y-17972964D01*
X9304570Y-17982487D01*
X9285522Y-17992011D01*
X9247427Y-17992011D01*
X9228379Y-17982487D01*
X9437903Y-17992011D02*
X9418856Y-17982487D01*
X9409332Y-17963440D01*
X9409332Y-17792011D01*
X9599808Y-17992011D02*
X9599808Y-17887249D01*
X9590284Y-17868202D01*
X9571237Y-17858678D01*
X9533141Y-17858678D01*
X9514094Y-17868202D01*
X9599808Y-17982487D02*
X9580760Y-17992011D01*
X9533141Y-17992011D01*
X9514094Y-17982487D01*
X9504570Y-17963440D01*
X9504570Y-17944392D01*
X9514094Y-17925345D01*
X9533141Y-17915821D01*
X9580760Y-17915821D01*
X9599808Y-17906297D01*
X9666475Y-17858678D02*
X9742665Y-17858678D01*
X9695046Y-17792011D02*
X9695046Y-17963440D01*
X9704570Y-17982487D01*
X9723618Y-17992011D01*
X9742665Y-17992011D01*
X9885522Y-17982487D02*
X9866475Y-17992011D01*
X9828379Y-17992011D01*
X9809332Y-17982487D01*
X9799808Y-17963440D01*
X9799808Y-17887249D01*
X9809332Y-17868202D01*
X9828379Y-17858678D01*
X9866475Y-17858678D01*
X9885522Y-17868202D01*
X9895046Y-17887249D01*
X9895046Y-17906297D01*
X9799808Y-17925345D01*
X10066475Y-17992011D02*
X10066475Y-17792011D01*
X10066475Y-17982487D02*
X10047427Y-17992011D01*
X10009332Y-17992011D01*
X9990284Y-17982487D01*
X9980760Y-17972964D01*
X9971237Y-17953916D01*
X9971237Y-17896773D01*
X9980760Y-17877725D01*
X9990284Y-17868202D01*
X10009332Y-17858678D01*
X10047427Y-17858678D01*
X10066475Y-17868202D01*
X10142665Y-18068202D02*
X10152189Y-18058678D01*
X10171237Y-18030106D01*
X10180760Y-18011059D01*
X10190284Y-17982487D01*
X10199808Y-17934868D01*
X10199808Y-17896773D01*
X10190284Y-17849154D01*
X10180760Y-17820583D01*
X10171237Y-17801535D01*
X10152189Y-17772964D01*
X10142665Y-17763440D01*
X3289808Y-18321535D02*
X3389808Y-18221535D01*
X3289808Y-18121535D01*
X3189808Y-18221535D01*
X3289808Y-18321535D01*
X3628379Y-18112011D02*
X3752189Y-18112011D01*
X3685522Y-18188202D01*
X3714094Y-18188202D01*
X3733141Y-18197725D01*
X3742665Y-18207249D01*
X3752189Y-18226297D01*
X3752189Y-18273916D01*
X3742665Y-18292964D01*
X3733141Y-18302487D01*
X3714094Y-18312011D01*
X3656951Y-18312011D01*
X3637903Y-18302487D01*
X3628379Y-18292964D01*
X3837903Y-18292964D02*
X3847427Y-18302487D01*
X3837903Y-18312011D01*
X3828379Y-18302487D01*
X3837903Y-18292964D01*
X3837903Y-18312011D01*
X4018856Y-18178678D02*
X4018856Y-18312011D01*
X3971236Y-18102487D02*
X3923617Y-18245345D01*
X4047427Y-18245345D01*
X4218856Y-18112011D02*
X4123617Y-18112011D01*
X4114094Y-18207249D01*
X4123617Y-18197725D01*
X4142665Y-18188202D01*
X4190284Y-18188202D01*
X4209332Y-18197725D01*
X4218856Y-18207249D01*
X4228379Y-18226297D01*
X4228379Y-18273916D01*
X4218856Y-18292964D01*
X4209332Y-18302487D01*
X4190284Y-18312011D01*
X4142665Y-18312011D01*
X4123617Y-18302487D01*
X4114094Y-18292964D01*
X4352189Y-18112011D02*
X4371237Y-18112011D01*
X4390284Y-18121535D01*
X4399808Y-18131059D01*
X4409332Y-18150106D01*
X4418856Y-18188202D01*
X4418856Y-18235821D01*
X4409332Y-18273916D01*
X4399808Y-18292964D01*
X4390284Y-18302487D01*
X4371237Y-18312011D01*
X4352189Y-18312011D01*
X4333141Y-18302487D01*
X4323618Y-18292964D01*
X4314094Y-18273916D01*
X4304570Y-18235821D01*
X4304570Y-18188202D01*
X4314094Y-18150106D01*
X4323618Y-18131059D01*
X4333141Y-18121535D01*
X4352189Y-18112011D01*
X4504570Y-18312011D02*
X4504570Y-18178678D01*
X4504570Y-18197725D02*
X4514094Y-18188202D01*
X4533141Y-18178678D01*
X4561713Y-18178678D01*
X4580760Y-18188202D01*
X4590284Y-18207249D01*
X4590284Y-18312011D01*
X4590284Y-18207249D02*
X4599808Y-18188202D01*
X4618856Y-18178678D01*
X4647427Y-18178678D01*
X4666475Y-18188202D01*
X4675998Y-18207249D01*
X4675998Y-18312011D01*
X4771237Y-18312011D02*
X4771237Y-18178678D01*
X4771237Y-18197725D02*
X4780760Y-18188202D01*
X4799808Y-18178678D01*
X4828379Y-18178678D01*
X4847427Y-18188202D01*
X4856951Y-18207249D01*
X4856951Y-18312011D01*
X4856951Y-18207249D02*
X4866475Y-18188202D01*
X4885522Y-18178678D01*
X4914094Y-18178678D01*
X4933141Y-18188202D01*
X4942665Y-18207249D01*
X4942665Y-18312011D01*
X5333141Y-18102487D02*
X5161713Y-18359630D01*
X5590284Y-18112011D02*
X5609332Y-18112011D01*
X5628379Y-18121535D01*
X5637903Y-18131059D01*
X5647427Y-18150106D01*
X5656951Y-18188202D01*
X5656951Y-18235821D01*
X5647427Y-18273916D01*
X5637903Y-18292964D01*
X5628379Y-18302487D01*
X5609332Y-18312011D01*
X5590284Y-18312011D01*
X5571237Y-18302487D01*
X5561713Y-18292964D01*
X5552189Y-18273916D01*
X5542665Y-18235821D01*
X5542665Y-18188202D01*
X5552189Y-18150106D01*
X5561713Y-18131059D01*
X5571237Y-18121535D01*
X5590284Y-18112011D01*
X5742665Y-18292964D02*
X5752189Y-18302487D01*
X5742665Y-18312011D01*
X5733141Y-18302487D01*
X5742665Y-18292964D01*
X5742665Y-18312011D01*
X5942665Y-18312011D02*
X5828379Y-18312011D01*
X5885522Y-18312011D02*
X5885522Y-18112011D01*
X5866475Y-18140583D01*
X5847427Y-18159630D01*
X5828379Y-18169154D01*
X6009332Y-18112011D02*
X6133141Y-18112011D01*
X6066475Y-18188202D01*
X6095046Y-18188202D01*
X6114094Y-18197725D01*
X6123617Y-18207249D01*
X6133141Y-18226297D01*
X6133141Y-18273916D01*
X6123617Y-18292964D01*
X6114094Y-18302487D01*
X6095046Y-18312011D01*
X6037903Y-18312011D01*
X6018856Y-18302487D01*
X6009332Y-18292964D01*
X6314094Y-18112011D02*
X6218856Y-18112011D01*
X6209332Y-18207249D01*
X6218856Y-18197725D01*
X6237903Y-18188202D01*
X6285522Y-18188202D01*
X6304570Y-18197725D01*
X6314094Y-18207249D01*
X6323617Y-18226297D01*
X6323617Y-18273916D01*
X6314094Y-18292964D01*
X6304570Y-18302487D01*
X6285522Y-18312011D01*
X6237903Y-18312011D01*
X6218856Y-18302487D01*
X6209332Y-18292964D01*
X6437903Y-18197725D02*
X6418856Y-18188202D01*
X6409332Y-18178678D01*
X6399808Y-18159630D01*
X6399808Y-18150106D01*
X6409332Y-18131059D01*
X6418856Y-18121535D01*
X6437903Y-18112011D01*
X6475998Y-18112011D01*
X6495046Y-18121535D01*
X6504570Y-18131059D01*
X6514094Y-18150106D01*
X6514094Y-18159630D01*
X6504570Y-18178678D01*
X6495046Y-18188202D01*
X6475998Y-18197725D01*
X6437903Y-18197725D01*
X6418856Y-18207249D01*
X6409332Y-18216773D01*
X6399808Y-18235821D01*
X6399808Y-18273916D01*
X6409332Y-18292964D01*
X6418856Y-18302487D01*
X6437903Y-18312011D01*
X6475998Y-18312011D01*
X6495046Y-18302487D01*
X6504570Y-18292964D01*
X6514094Y-18273916D01*
X6514094Y-18235821D01*
X6504570Y-18216773D01*
X6495046Y-18207249D01*
X6475998Y-18197725D01*
X6590284Y-18112011D02*
X6590284Y-18150106D01*
X6666475Y-18112011D02*
X6666475Y-18150106D01*
X6961713Y-18388202D02*
X6952189Y-18378678D01*
X6933141Y-18350106D01*
X6923617Y-18331059D01*
X6914094Y-18302487D01*
X6904570Y-18254868D01*
X6904570Y-18216773D01*
X6914094Y-18169154D01*
X6923617Y-18140583D01*
X6933141Y-18121535D01*
X6952189Y-18092964D01*
X6961713Y-18083440D01*
X7028379Y-18131059D02*
X7037903Y-18121535D01*
X7056951Y-18112011D01*
X7104570Y-18112011D01*
X7123617Y-18121535D01*
X7133141Y-18131059D01*
X7142665Y-18150106D01*
X7142665Y-18169154D01*
X7133141Y-18197725D01*
X7018856Y-18312011D01*
X7142665Y-18312011D01*
X7380760Y-18312011D02*
X7380760Y-18112011D01*
X7466475Y-18312011D02*
X7466475Y-18207249D01*
X7456951Y-18188202D01*
X7437903Y-18178678D01*
X7409332Y-18178678D01*
X7390284Y-18188202D01*
X7380760Y-18197725D01*
X7590284Y-18312011D02*
X7571236Y-18302487D01*
X7561713Y-18292964D01*
X7552189Y-18273916D01*
X7552189Y-18216773D01*
X7561713Y-18197725D01*
X7571236Y-18188202D01*
X7590284Y-18178678D01*
X7618856Y-18178678D01*
X7637903Y-18188202D01*
X7647427Y-18197725D01*
X7656951Y-18216773D01*
X7656951Y-18273916D01*
X7647427Y-18292964D01*
X7637903Y-18302487D01*
X7618856Y-18312011D01*
X7590284Y-18312011D01*
X7771236Y-18312011D02*
X7752189Y-18302487D01*
X7742665Y-18283440D01*
X7742665Y-18112011D01*
X7923617Y-18302487D02*
X7904570Y-18312011D01*
X7866475Y-18312011D01*
X7847427Y-18302487D01*
X7837903Y-18283440D01*
X7837903Y-18207249D01*
X7847427Y-18188202D01*
X7866475Y-18178678D01*
X7904570Y-18178678D01*
X7923617Y-18188202D01*
X7933141Y-18207249D01*
X7933141Y-18226297D01*
X7837903Y-18245345D01*
X8009332Y-18302487D02*
X8028379Y-18312011D01*
X8066475Y-18312011D01*
X8085522Y-18302487D01*
X8095046Y-18283440D01*
X8095046Y-18273916D01*
X8085522Y-18254868D01*
X8066475Y-18245345D01*
X8037903Y-18245345D01*
X8018856Y-18235821D01*
X8009332Y-18216773D01*
X8009332Y-18207249D01*
X8018856Y-18188202D01*
X8037903Y-18178678D01*
X8066475Y-18178678D01*
X8085522Y-18188202D01*
X8161713Y-18388202D02*
X8171236Y-18378678D01*
X8190284Y-18350106D01*
X8199808Y-18331059D01*
X8209332Y-18302487D01*
X8218856Y-18254868D01*
X8218856Y-18216773D01*
X8209332Y-18169154D01*
X8199808Y-18140583D01*
X8190284Y-18121535D01*
X8171236Y-18092964D01*
X8161713Y-18083440D01*
X8523618Y-18388202D02*
X8514094Y-18378678D01*
X8495046Y-18350106D01*
X8485522Y-18331059D01*
X8475998Y-18302487D01*
X8466475Y-18254868D01*
X8466475Y-18216773D01*
X8475998Y-18169154D01*
X8485522Y-18140583D01*
X8495046Y-18121535D01*
X8514094Y-18092964D01*
X8523618Y-18083440D01*
X8599808Y-18178678D02*
X8599808Y-18312011D01*
X8599808Y-18197725D02*
X8609332Y-18188202D01*
X8628379Y-18178678D01*
X8656951Y-18178678D01*
X8675998Y-18188202D01*
X8685522Y-18207249D01*
X8685522Y-18312011D01*
X8809332Y-18312011D02*
X8790284Y-18302487D01*
X8780760Y-18292964D01*
X8771237Y-18273916D01*
X8771237Y-18216773D01*
X8780760Y-18197725D01*
X8790284Y-18188202D01*
X8809332Y-18178678D01*
X8837903Y-18178678D01*
X8856951Y-18188202D01*
X8866475Y-18197725D01*
X8875998Y-18216773D01*
X8875998Y-18273916D01*
X8866475Y-18292964D01*
X8856951Y-18302487D01*
X8837903Y-18312011D01*
X8809332Y-18312011D01*
X8933141Y-18178678D02*
X9009332Y-18178678D01*
X8961713Y-18112011D02*
X8961713Y-18283440D01*
X8971237Y-18302487D01*
X8990284Y-18312011D01*
X9009332Y-18312011D01*
X9228379Y-18178678D02*
X9228379Y-18378678D01*
X9228379Y-18188202D02*
X9247427Y-18178678D01*
X9285522Y-18178678D01*
X9304570Y-18188202D01*
X9314094Y-18197725D01*
X9323618Y-18216773D01*
X9323618Y-18273916D01*
X9314094Y-18292964D01*
X9304570Y-18302487D01*
X9285522Y-18312011D01*
X9247427Y-18312011D01*
X9228379Y-18302487D01*
X9437903Y-18312011D02*
X9418856Y-18302487D01*
X9409332Y-18283440D01*
X9409332Y-18112011D01*
X9599808Y-18312011D02*
X9599808Y-18207249D01*
X9590284Y-18188202D01*
X9571237Y-18178678D01*
X9533141Y-18178678D01*
X9514094Y-18188202D01*
X9599808Y-18302487D02*
X9580760Y-18312011D01*
X9533141Y-18312011D01*
X9514094Y-18302487D01*
X9504570Y-18283440D01*
X9504570Y-18264392D01*
X9514094Y-18245345D01*
X9533141Y-18235821D01*
X9580760Y-18235821D01*
X9599808Y-18226297D01*
X9666475Y-18178678D02*
X9742665Y-18178678D01*
X9695046Y-18112011D02*
X9695046Y-18283440D01*
X9704570Y-18302487D01*
X9723618Y-18312011D01*
X9742665Y-18312011D01*
X9885522Y-18302487D02*
X9866475Y-18312011D01*
X9828379Y-18312011D01*
X9809332Y-18302487D01*
X9799808Y-18283440D01*
X9799808Y-18207249D01*
X9809332Y-18188202D01*
X9828379Y-18178678D01*
X9866475Y-18178678D01*
X9885522Y-18188202D01*
X9895046Y-18207249D01*
X9895046Y-18226297D01*
X9799808Y-18245345D01*
X10066475Y-18312011D02*
X10066475Y-18112011D01*
X10066475Y-18302487D02*
X10047427Y-18312011D01*
X10009332Y-18312011D01*
X9990284Y-18302487D01*
X9980760Y-18292964D01*
X9971237Y-18273916D01*
X9971237Y-18216773D01*
X9980760Y-18197725D01*
X9990284Y-18188202D01*
X10009332Y-18178678D01*
X10047427Y-18178678D01*
X10066475Y-18188202D01*
X10142665Y-18388202D02*
X10152189Y-18378678D01*
X10171237Y-18350106D01*
X10180760Y-18331059D01*
X10190284Y-18302487D01*
X10199808Y-18254868D01*
X10199808Y-18216773D01*
X10190284Y-18169154D01*
X10180760Y-18140583D01*
X10171237Y-18121535D01*
X10152189Y-18092964D01*
X10142665Y-18083440D01*
M02*
