%TF.GenerationSoftware,KiCad,Pcbnew,6.0.7-1.fc36*%
%TF.CreationDate,2022-08-11T18:35:03+02:00*%
%TF.ProjectId,LAITS-HW,4c414954-532d-4485-972e-6b696361645f,1.0.2*%
%TF.SameCoordinates,Original*%
%TF.FileFunction,Drillmap*%
%TF.FilePolarity,Positive*%
%FSLAX45Y45*%
G04 Gerber Fmt 4.5, Leading zero omitted, Abs format (unit mm)*
G04 Created by KiCad (PCBNEW 6.0.7-1.fc36) date 2022-08-11 18:35:03*
%MOMM*%
%LPD*%
G01*
G04 APERTURE LIST*
%ADD10C,0.200000*%
%ADD11C,0.020000*%
%ADD12C,0.040000*%
%ADD13C,0.050000*%
%ADD14C,0.070000*%
%ADD15C,0.075000*%
%ADD16C,0.080000*%
%ADD17C,0.090000*%
%ADD18C,0.099000*%
%ADD19C,0.100000*%
%ADD20C,0.130000*%
G04 APERTURE END LIST*
D10*
X10861676Y-15388086D02*
X11059640Y-15554198D01*
X13012761Y-13146288D02*
G75*
G03*
X13091815Y-13125270I32139J38298D01*
G01*
X12854316Y-13013349D02*
G75*
G03*
X12431667Y-13050326I-192837J-229811D01*
G01*
X13091815Y-13125270D02*
G75*
G03*
X11054043Y-15634874I-4692007J1727735D01*
G01*
X12431667Y-13050326D02*
X10824699Y-14965437D01*
X12854317Y-13013349D02*
X13012756Y-13146295D01*
X11054042Y-15634873D02*
G75*
G03*
X11059640Y-15554198I-26542J42373D01*
G01*
X10824695Y-14965434D02*
G75*
G03*
X10861676Y-15388086I229815J-192836D01*
G01*
D11*
X3635000Y-10839000D02*
X3655000Y-10859000D01*
X3655000Y-10839000D02*
X3635000Y-10859000D01*
X3699000Y-12585000D02*
X3719000Y-12605000D01*
X3719000Y-12585000D02*
X3699000Y-12605000D01*
X3862439Y-9489679D02*
X3882439Y-9509679D01*
X3882439Y-9489679D02*
X3862439Y-9509679D01*
X3980000Y-13135000D02*
X4000000Y-13155000D01*
X4000000Y-13135000D02*
X3980000Y-13155000D01*
X4027637Y-12419374D02*
X4047637Y-12439374D01*
X4047637Y-12419374D02*
X4027637Y-12439374D01*
X4062500Y-11382500D02*
X4082500Y-11402500D01*
X4082500Y-11382500D02*
X4062500Y-11402500D01*
X4062500Y-11540000D02*
X4082500Y-11560000D01*
X4082500Y-11540000D02*
X4062500Y-11560000D01*
X4090000Y-13360000D02*
X4110000Y-13380000D01*
X4110000Y-13360000D02*
X4090000Y-13380000D01*
X4096353Y-9307971D02*
X4116353Y-9327971D01*
X4116353Y-9307971D02*
X4096353Y-9327971D01*
X4105000Y-13067500D02*
X4125000Y-13087500D01*
X4125000Y-13067500D02*
X4105000Y-13087500D01*
X4126672Y-13545070D02*
X4146672Y-13565070D01*
X4146672Y-13545070D02*
X4126672Y-13565070D01*
X4132661Y-9483648D02*
X4152661Y-9503648D01*
X4152661Y-9483648D02*
X4132661Y-9503648D01*
X4143348Y-9029720D02*
X4163348Y-9049720D01*
X4163348Y-9029720D02*
X4143348Y-9049720D01*
X4156583Y-9748116D02*
X4176583Y-9768116D01*
X4176583Y-9748116D02*
X4156583Y-9768116D01*
X4172500Y-10472500D02*
X4192500Y-10492500D01*
X4192500Y-10472500D02*
X4172500Y-10492500D01*
X4176000Y-13929000D02*
X4196000Y-13949000D01*
X4196000Y-13929000D02*
X4176000Y-13949000D01*
X4200000Y-12327000D02*
X4220000Y-12347000D01*
X4220000Y-12327000D02*
X4200000Y-12347000D01*
X4215000Y-13282500D02*
X4235000Y-13302500D01*
X4235000Y-13282500D02*
X4215000Y-13302500D01*
X4341000Y-10840000D02*
X4361000Y-10860000D01*
X4361000Y-10840000D02*
X4341000Y-10860000D01*
X4375601Y-8548395D02*
X4395601Y-8568395D01*
X4395601Y-8548395D02*
X4375601Y-8568395D01*
X4409966Y-13076093D02*
X4429966Y-13096093D01*
X4429966Y-13076093D02*
X4409966Y-13096093D01*
X4435000Y-9968000D02*
X4455000Y-9988000D01*
X4455000Y-9968000D02*
X4435000Y-9988000D01*
X4435497Y-9294426D02*
X4455497Y-9314426D01*
X4455497Y-9294426D02*
X4435497Y-9314426D01*
X4442550Y-13157500D02*
X4462550Y-13177500D01*
X4462550Y-13157500D02*
X4442550Y-13177500D01*
X4449765Y-8950020D02*
X4469765Y-8970020D01*
X4469765Y-8950020D02*
X4449765Y-8970020D01*
X4464000Y-9729000D02*
X4484000Y-9749000D01*
X4484000Y-9729000D02*
X4464000Y-9749000D01*
X4480000Y-11625000D02*
X4500000Y-11645000D01*
X4500000Y-11625000D02*
X4480000Y-11645000D01*
X4485000Y-11472500D02*
X4505000Y-11492500D01*
X4505000Y-11472500D02*
X4485000Y-11492500D01*
X4525000Y-13828000D02*
X4545000Y-13848000D01*
X4545000Y-13828000D02*
X4525000Y-13848000D01*
X4535000Y-10309000D02*
X4555000Y-10329000D01*
X4555000Y-10309000D02*
X4535000Y-10329000D01*
X4568386Y-11794680D02*
X4588386Y-11814680D01*
X4588386Y-11794680D02*
X4568386Y-11814680D01*
X4577027Y-12215219D02*
X4597027Y-12235219D01*
X4597027Y-12215219D02*
X4577027Y-12235219D01*
X4578000Y-10849950D02*
X4598000Y-10869950D01*
X4598000Y-10849950D02*
X4578000Y-10869950D01*
X4618660Y-12844889D02*
X4638660Y-12864889D01*
X4638660Y-12844889D02*
X4618660Y-12864889D01*
X4618821Y-9495376D02*
X4638821Y-9515376D01*
X4638821Y-9495376D02*
X4618821Y-9515376D01*
X4632500Y-11382500D02*
X4652500Y-11402500D01*
X4652500Y-11382500D02*
X4632500Y-11402500D01*
X4645000Y-11630000D02*
X4665000Y-11650000D01*
X4665000Y-11630000D02*
X4645000Y-11650000D01*
X4658000Y-8639000D02*
X4678000Y-8659000D01*
X4678000Y-8639000D02*
X4658000Y-8659000D01*
X4670000Y-13000000D02*
X4690000Y-13020000D01*
X4690000Y-13000000D02*
X4670000Y-13020000D01*
X4676451Y-14490381D02*
X4696451Y-14510381D01*
X4696451Y-14490381D02*
X4676451Y-14510381D01*
X4683000Y-8276000D02*
X4703000Y-8296000D01*
X4703000Y-8276000D02*
X4683000Y-8296000D01*
X4692474Y-8974590D02*
X4712474Y-8994590D01*
X4712474Y-8974590D02*
X4692474Y-8994590D01*
X4710739Y-9269866D02*
X4730739Y-9289866D01*
X4730739Y-9269866D02*
X4710739Y-9289866D01*
X4742938Y-13859577D02*
X4762938Y-13879577D01*
X4762938Y-13859577D02*
X4742938Y-13879577D01*
X4747000Y-10007000D02*
X4767000Y-10027000D01*
X4767000Y-10007000D02*
X4747000Y-10027000D01*
X4812500Y-11580000D02*
X4832500Y-11600000D01*
X4832500Y-11580000D02*
X4812500Y-11600000D01*
X4838000Y-9695000D02*
X4858000Y-9715000D01*
X4858000Y-9695000D02*
X4838000Y-9715000D01*
X4871137Y-9465615D02*
X4891137Y-9485615D01*
X4891137Y-9465615D02*
X4871137Y-9485615D01*
X4872000Y-10107000D02*
X4892000Y-10127000D01*
X4892000Y-10107000D02*
X4872000Y-10127000D01*
X4887335Y-8776479D02*
X4907335Y-8796479D01*
X4907335Y-8776479D02*
X4887335Y-8796479D01*
X4895000Y-11365000D02*
X4915000Y-11385000D01*
X4915000Y-11365000D02*
X4895000Y-11385000D01*
X4899516Y-8951757D02*
X4919516Y-8971757D01*
X4919516Y-8951757D02*
X4899516Y-8971757D01*
X4917389Y-8477824D02*
X4937389Y-8497824D01*
X4937389Y-8477824D02*
X4917389Y-8497824D01*
X4960486Y-7983846D02*
X4980486Y-8003846D01*
X4980486Y-7983846D02*
X4960486Y-8003846D01*
X4980000Y-10977500D02*
X5000000Y-10997500D01*
X5000000Y-10977500D02*
X4980000Y-10997500D01*
X5006000Y-9291000D02*
X5026000Y-9311000D01*
X5026000Y-9291000D02*
X5006000Y-9311000D01*
X5066983Y-13552333D02*
X5086983Y-13572333D01*
X5086983Y-13552333D02*
X5066983Y-13572333D01*
X5074000Y-8235000D02*
X5094000Y-8255000D01*
X5094000Y-8235000D02*
X5074000Y-8255000D01*
X5115000Y-10547000D02*
X5135000Y-10567000D01*
X5135000Y-10547000D02*
X5115000Y-10567000D01*
X5118967Y-9067139D02*
X5138967Y-9087139D01*
X5138967Y-9067139D02*
X5118967Y-9087139D01*
X5128884Y-7738346D02*
X5148884Y-7758346D01*
X5148884Y-7738346D02*
X5128884Y-7758346D01*
X5134193Y-13996396D02*
X5154193Y-14016396D01*
X5154193Y-13996396D02*
X5134193Y-14016396D01*
X5180123Y-8518898D02*
X5200123Y-8538898D01*
X5200123Y-8518898D02*
X5180123Y-8538898D01*
X5207987Y-9725577D02*
X5227987Y-9745577D01*
X5227987Y-9725577D02*
X5207987Y-9745577D01*
X5211000Y-10104000D02*
X5231000Y-10124000D01*
X5231000Y-10104000D02*
X5211000Y-10124000D01*
X5216477Y-12146089D02*
X5236477Y-12166089D01*
X5236477Y-12146089D02*
X5216477Y-12166089D01*
X5223000Y-15120000D02*
X5243000Y-15140000D01*
X5243000Y-15120000D02*
X5223000Y-15140000D01*
X5231000Y-7974000D02*
X5251000Y-7994000D01*
X5251000Y-7974000D02*
X5231000Y-7994000D01*
X5231000Y-10894000D02*
X5251000Y-10914000D01*
X5251000Y-10894000D02*
X5231000Y-10914000D01*
X5281606Y-12677844D02*
X5301606Y-12697844D01*
X5301606Y-12677844D02*
X5281606Y-12697844D01*
X5291000Y-11904000D02*
X5311000Y-11924000D01*
X5311000Y-11904000D02*
X5291000Y-11924000D01*
X5348000Y-10745000D02*
X5368000Y-10765000D01*
X5368000Y-10745000D02*
X5348000Y-10765000D01*
X5390000Y-14942500D02*
X5410000Y-14962500D01*
X5410000Y-14942500D02*
X5390000Y-14962500D01*
X5390560Y-7701307D02*
X5410560Y-7721307D01*
X5410560Y-7701307D02*
X5390560Y-7721307D01*
X5400791Y-10498315D02*
X5420791Y-10518315D01*
X5420791Y-10498315D02*
X5400791Y-10518315D01*
X5412000Y-9771000D02*
X5432000Y-9791000D01*
X5432000Y-9771000D02*
X5412000Y-9791000D01*
X5412664Y-8221693D02*
X5432664Y-8241693D01*
X5432664Y-8221693D02*
X5412664Y-8241693D01*
X5435000Y-10896766D02*
X5455000Y-10916766D01*
X5455000Y-10896766D02*
X5435000Y-10916766D01*
X5458392Y-14730050D02*
X5478392Y-14750050D01*
X5478392Y-14730050D02*
X5458392Y-14750050D01*
X5467500Y-14877500D02*
X5487500Y-14897500D01*
X5487500Y-14877500D02*
X5467500Y-14897500D01*
X5499044Y-13665149D02*
X5519044Y-13685149D01*
X5519044Y-13665149D02*
X5499044Y-13685149D01*
X5528136Y-14685586D02*
X5548136Y-14705586D01*
X5548136Y-14685586D02*
X5528136Y-14705586D01*
X5534000Y-7990000D02*
X5554000Y-8010000D01*
X5554000Y-7990000D02*
X5534000Y-8010000D01*
X5536000Y-9893000D02*
X5556000Y-9913000D01*
X5556000Y-9893000D02*
X5536000Y-9913000D01*
X5540000Y-8250000D02*
X5560000Y-8270000D01*
X5560000Y-8250000D02*
X5540000Y-8270000D01*
X5667000Y-13096000D02*
X5687000Y-13116000D01*
X5687000Y-13096000D02*
X5667000Y-13116000D01*
X5669044Y-7785627D02*
X5689044Y-7805627D01*
X5689044Y-7785627D02*
X5669044Y-7805627D01*
X5674694Y-7518067D02*
X5694694Y-7538067D01*
X5694694Y-7518067D02*
X5674694Y-7538067D01*
X5677000Y-10665000D02*
X5697000Y-10685000D01*
X5697000Y-10665000D02*
X5677000Y-10685000D01*
X5711218Y-12537536D02*
X5731218Y-12557536D01*
X5731218Y-12537536D02*
X5711218Y-12557536D01*
X5719895Y-9193962D02*
X5739895Y-9213962D01*
X5739895Y-9193962D02*
X5719895Y-9213962D01*
X5735000Y-14732500D02*
X5755000Y-14752500D01*
X5755000Y-14732500D02*
X5735000Y-14752500D01*
X5754000Y-8934000D02*
X5774000Y-8954000D01*
X5774000Y-8934000D02*
X5754000Y-8954000D01*
X5768000Y-10473000D02*
X5788000Y-10493000D01*
X5788000Y-10473000D02*
X5768000Y-10493000D01*
X5837912Y-9506006D02*
X5857912Y-9526006D01*
X5857912Y-9506006D02*
X5837912Y-9526006D01*
X5863915Y-8679890D02*
X5883915Y-8699890D01*
X5883915Y-8679890D02*
X5863915Y-8699890D01*
X5883098Y-13413114D02*
X5903098Y-13433114D01*
X5903098Y-13413114D02*
X5883098Y-13433114D01*
X5897534Y-7202477D02*
X5917534Y-7222477D01*
X5917534Y-7202477D02*
X5897534Y-7222477D01*
X5928470Y-7724230D02*
X5948470Y-7744230D01*
X5948470Y-7724230D02*
X5928470Y-7744230D01*
X5938187Y-9966862D02*
X5958187Y-9986862D01*
X5958187Y-9966862D02*
X5938187Y-9986862D01*
X5940000Y-15012500D02*
X5960000Y-15032500D01*
X5960000Y-15012500D02*
X5940000Y-15032500D01*
X5947907Y-15244571D02*
X5967907Y-15264571D01*
X5967907Y-15244571D02*
X5947907Y-15264571D01*
X5949647Y-7450043D02*
X5969647Y-7470043D01*
X5969647Y-7450043D02*
X5949647Y-7470043D01*
X6072000Y-14385000D02*
X6092000Y-14405000D01*
X6092000Y-14385000D02*
X6072000Y-14405000D01*
X6122016Y-11178868D02*
X6142016Y-11198868D01*
X6142016Y-11178868D02*
X6122016Y-11198868D01*
X6127000Y-10376000D02*
X6147000Y-10396000D01*
X6147000Y-10376000D02*
X6127000Y-10396000D01*
X6139000Y-8182000D02*
X6159000Y-8202000D01*
X6159000Y-8182000D02*
X6139000Y-8202000D01*
X6142970Y-7743792D02*
X6162970Y-7763792D01*
X6162970Y-7743792D02*
X6142970Y-7763792D01*
X6143885Y-8720265D02*
X6163885Y-8740265D01*
X6163885Y-8720265D02*
X6143885Y-8740265D01*
X6162148Y-9037886D02*
X6182148Y-9057886D01*
X6182148Y-9037886D02*
X6162148Y-9057886D01*
X6168000Y-10572000D02*
X6188000Y-10592000D01*
X6188000Y-10572000D02*
X6168000Y-10592000D01*
X6170000Y-14405000D02*
X6190000Y-14425000D01*
X6190000Y-14405000D02*
X6170000Y-14425000D01*
X6173675Y-9473196D02*
X6193675Y-9493196D01*
X6193675Y-9473196D02*
X6173675Y-9493196D01*
X6210297Y-7172989D02*
X6230297Y-7192989D01*
X6230297Y-7172989D02*
X6210297Y-7192989D01*
X6213535Y-9309814D02*
X6233535Y-9329814D01*
X6233535Y-9309814D02*
X6213535Y-9329814D01*
X6213561Y-7515721D02*
X6233561Y-7535721D01*
X6233561Y-7515721D02*
X6213561Y-7535721D01*
X6228336Y-10033030D02*
X6248336Y-10053030D01*
X6248336Y-10033030D02*
X6228336Y-10053030D01*
X6251576Y-8547658D02*
X6271576Y-8567658D01*
X6271576Y-8547658D02*
X6251576Y-8567658D01*
X6272500Y-15315000D02*
X6292500Y-15335000D01*
X6292500Y-15315000D02*
X6272500Y-15335000D01*
X6297775Y-7891382D02*
X6317775Y-7911382D01*
X6317775Y-7891382D02*
X6297775Y-7911382D01*
X6298000Y-14450000D02*
X6318000Y-14470000D01*
X6318000Y-14450000D02*
X6298000Y-14470000D01*
X6337500Y-13740000D02*
X6357500Y-13760000D01*
X6357500Y-13740000D02*
X6337500Y-13760000D01*
X6395000Y-14180000D02*
X6415000Y-14200000D01*
X6415000Y-14180000D02*
X6395000Y-14200000D01*
X6407500Y-15130050D02*
X6427500Y-15150050D01*
X6427500Y-15130050D02*
X6407500Y-15150050D01*
X6408644Y-13974644D02*
X6428644Y-13994644D01*
X6428644Y-13974644D02*
X6408644Y-13994644D01*
X6409480Y-7287201D02*
X6429480Y-7307201D01*
X6429480Y-7287201D02*
X6409480Y-7307201D01*
X6427500Y-15750000D02*
X6447500Y-15770000D01*
X6447500Y-15750000D02*
X6427500Y-15770000D01*
X6431226Y-8967076D02*
X6451226Y-8987076D01*
X6451226Y-8967076D02*
X6431226Y-8987076D01*
X6439950Y-14875000D02*
X6459950Y-14895000D01*
X6459950Y-14875000D02*
X6439950Y-14895000D01*
X6440497Y-6965967D02*
X6460497Y-6985967D01*
X6460497Y-6965967D02*
X6440497Y-6985967D01*
X6450105Y-8765874D02*
X6470105Y-8785874D01*
X6470105Y-8765874D02*
X6450105Y-8785874D01*
X6455000Y-15572500D02*
X6475000Y-15592500D01*
X6475000Y-15572500D02*
X6455000Y-15592500D01*
X6479000Y-15370000D02*
X6499000Y-15390000D01*
X6499000Y-15370000D02*
X6479000Y-15390000D01*
X6494670Y-9220609D02*
X6514670Y-9240609D01*
X6514670Y-9220609D02*
X6494670Y-9240609D01*
X6499604Y-7742207D02*
X6519604Y-7762207D01*
X6519604Y-7742207D02*
X6499604Y-7762207D01*
X6542000Y-15429950D02*
X6562000Y-15449950D01*
X6562000Y-15429950D02*
X6542000Y-15449950D01*
X6566000Y-14537000D02*
X6586000Y-14557000D01*
X6586000Y-14537000D02*
X6566000Y-14557000D01*
X6575246Y-13825246D02*
X6595246Y-13845246D01*
X6595246Y-13825246D02*
X6575246Y-13845246D01*
X6576000Y-13629000D02*
X6596000Y-13649000D01*
X6596000Y-13629000D02*
X6576000Y-13649000D01*
X6630000Y-10896766D02*
X6650000Y-10916766D01*
X6650000Y-10896766D02*
X6630000Y-10916766D01*
X6637000Y-9878000D02*
X6657000Y-9898000D01*
X6657000Y-9878000D02*
X6637000Y-9898000D01*
X6643124Y-7260898D02*
X6663124Y-7280898D01*
X6663124Y-7260898D02*
X6643124Y-7280898D01*
X6645000Y-13402500D02*
X6665000Y-13422500D01*
X6665000Y-13402500D02*
X6645000Y-13422500D01*
X6645251Y-6930640D02*
X6665251Y-6950640D01*
X6665251Y-6930640D02*
X6645251Y-6950640D01*
X6652856Y-14389465D02*
X6672856Y-14409465D01*
X6672856Y-14389465D02*
X6652856Y-14409465D01*
X6658000Y-14530050D02*
X6678000Y-14550050D01*
X6678000Y-14530050D02*
X6658000Y-14550050D01*
X6665000Y-8260000D02*
X6685000Y-8280000D01*
X6685000Y-8260000D02*
X6665000Y-8280000D01*
X6682546Y-7477616D02*
X6702546Y-7497616D01*
X6702546Y-7477616D02*
X6682546Y-7497616D01*
X6694327Y-7940411D02*
X6714327Y-7960411D01*
X6714327Y-7940411D02*
X6694327Y-7960411D01*
X6698102Y-7756750D02*
X6718102Y-7776750D01*
X6718102Y-7756750D02*
X6698102Y-7776750D01*
X6722500Y-15310000D02*
X6742500Y-15330000D01*
X6742500Y-15310000D02*
X6722500Y-15330000D01*
X6740000Y-13402500D02*
X6760000Y-13422500D01*
X6760000Y-13402500D02*
X6740000Y-13422500D01*
X6742500Y-10930000D02*
X6762500Y-10950000D01*
X6762500Y-10930000D02*
X6742500Y-10950000D01*
X6747403Y-9058163D02*
X6767403Y-9078163D01*
X6767403Y-9058163D02*
X6747403Y-9078163D01*
X6760000Y-9739000D02*
X6780000Y-9759000D01*
X6780000Y-9739000D02*
X6760000Y-9759000D01*
X6762000Y-10651000D02*
X6782000Y-10671000D01*
X6782000Y-10651000D02*
X6762000Y-10671000D01*
X6775000Y-14350000D02*
X6795000Y-14370000D01*
X6795000Y-14350000D02*
X6775000Y-14370000D01*
X6820000Y-13482500D02*
X6840000Y-13502500D01*
X6840000Y-13482500D02*
X6820000Y-13502500D01*
X6825050Y-14296163D02*
X6845050Y-14316163D01*
X6845050Y-14296163D02*
X6825050Y-14316163D01*
X6832500Y-13402500D02*
X6852500Y-13422500D01*
X6852500Y-13402500D02*
X6832500Y-13422500D01*
X6872500Y-13542500D02*
X6892500Y-13562500D01*
X6892500Y-13542500D02*
X6872500Y-13562500D01*
X6885000Y-12922000D02*
X6905000Y-12942000D01*
X6905000Y-12922000D02*
X6885000Y-12942000D01*
X6915000Y-8532500D02*
X6935000Y-8552500D01*
X6935000Y-8532500D02*
X6915000Y-8552500D01*
X6917000Y-10753000D02*
X6937000Y-10773000D01*
X6937000Y-10753000D02*
X6917000Y-10773000D01*
X6918262Y-9062042D02*
X6938262Y-9082042D01*
X6938262Y-9062042D02*
X6918262Y-9082042D01*
X6920000Y-13402500D02*
X6940000Y-13422500D01*
X6940000Y-13402500D02*
X6920000Y-13422500D01*
X6920000Y-13482500D02*
X6940000Y-13502500D01*
X6940000Y-13482500D02*
X6920000Y-13502500D01*
X6933000Y-16079000D02*
X6953000Y-16099000D01*
X6953000Y-16079000D02*
X6933000Y-16099000D01*
X6937500Y-15910000D02*
X6957500Y-15930000D01*
X6957500Y-15910000D02*
X6937500Y-15930000D01*
X6942391Y-14899891D02*
X6962391Y-14919891D01*
X6962391Y-14899891D02*
X6942391Y-14919891D01*
X6949652Y-7771774D02*
X6969652Y-7791774D01*
X6969652Y-7771774D02*
X6949652Y-7791774D01*
X6950000Y-13837500D02*
X6970000Y-13857500D01*
X6970000Y-13837500D02*
X6950000Y-13857500D01*
X6951873Y-7467161D02*
X6971873Y-7487161D01*
X6971873Y-7467161D02*
X6951873Y-7487161D01*
X6959460Y-15118460D02*
X6979460Y-15138460D01*
X6979460Y-15118460D02*
X6959460Y-15138460D01*
X6967403Y-8025478D02*
X6987403Y-8045478D01*
X6987403Y-8025478D02*
X6967403Y-8045478D01*
X7002000Y-6758000D02*
X7022000Y-6778000D01*
X7022000Y-6758000D02*
X7002000Y-6778000D01*
X7012080Y-7237767D02*
X7032080Y-7257767D01*
X7032080Y-7237767D02*
X7012080Y-7257767D01*
X7060000Y-13752500D02*
X7080000Y-13772500D01*
X7080000Y-13752500D02*
X7060000Y-13772500D01*
X7062500Y-13362500D02*
X7082500Y-13382500D01*
X7082500Y-13362500D02*
X7062500Y-13382500D01*
X7062500Y-13440833D02*
X7082500Y-13460833D01*
X7082500Y-13440833D02*
X7062500Y-13460833D01*
X7062500Y-13519167D02*
X7082500Y-13539167D01*
X7082500Y-13519167D02*
X7062500Y-13539167D01*
X7062500Y-13597500D02*
X7082500Y-13617500D01*
X7082500Y-13597500D02*
X7062500Y-13617500D01*
X7062500Y-13675000D02*
X7082500Y-13695000D01*
X7082500Y-13675000D02*
X7062500Y-13695000D01*
X7064950Y-14820000D02*
X7084950Y-14840000D01*
X7084950Y-14820000D02*
X7064950Y-14840000D01*
X7074000Y-10561000D02*
X7094000Y-10581000D01*
X7094000Y-10561000D02*
X7074000Y-10581000D01*
X7077500Y-12412500D02*
X7097500Y-12432500D01*
X7097500Y-12412500D02*
X7077500Y-12432500D01*
X7095000Y-13155000D02*
X7115000Y-13175000D01*
X7115000Y-13155000D02*
X7095000Y-13175000D01*
X7129925Y-14787646D02*
X7149925Y-14807646D01*
X7149925Y-14787646D02*
X7129925Y-14807646D01*
X7130000Y-14040000D02*
X7150000Y-14060000D01*
X7150000Y-14040000D02*
X7130000Y-14060000D01*
X7147500Y-13362500D02*
X7167500Y-13382500D01*
X7167500Y-13362500D02*
X7147500Y-13382500D01*
X7147500Y-13440000D02*
X7167500Y-13460000D01*
X7167500Y-13440000D02*
X7147500Y-13460000D01*
X7147500Y-13520000D02*
X7167500Y-13540000D01*
X7167500Y-13520000D02*
X7147500Y-13540000D01*
X7152000Y-16139000D02*
X7172000Y-16159000D01*
X7172000Y-16139000D02*
X7152000Y-16159000D01*
X7170000Y-14622500D02*
X7190000Y-14642500D01*
X7190000Y-14622500D02*
X7170000Y-14642500D01*
X7192262Y-8004004D02*
X7212262Y-8024004D01*
X7212262Y-8004004D02*
X7192262Y-8024004D01*
X7240000Y-14887500D02*
X7260000Y-14907500D01*
X7260000Y-14887500D02*
X7240000Y-14907500D01*
X7245000Y-13387500D02*
X7265000Y-13407500D01*
X7265000Y-13387500D02*
X7245000Y-13407500D01*
X7247500Y-13497500D02*
X7267500Y-13517500D01*
X7267500Y-13497500D02*
X7247500Y-13517500D01*
X7259022Y-13775246D02*
X7279022Y-13795246D01*
X7279022Y-13775246D02*
X7259022Y-13795246D01*
X7265000Y-15815000D02*
X7285000Y-15835000D01*
X7285000Y-15815000D02*
X7265000Y-15835000D01*
X7272500Y-13657500D02*
X7292500Y-13677500D01*
X7292500Y-13657500D02*
X7272500Y-13677500D01*
X7333325Y-11776675D02*
X7353325Y-11796675D01*
X7353325Y-11776675D02*
X7333325Y-11796675D01*
X7335000Y-13807500D02*
X7355000Y-13827500D01*
X7355000Y-13807500D02*
X7335000Y-13827500D01*
X7343785Y-6916572D02*
X7363785Y-6936572D01*
X7363785Y-6916572D02*
X7343785Y-6936572D01*
X7410000Y-13480000D02*
X7430000Y-13500000D01*
X7430000Y-13480000D02*
X7410000Y-13500000D01*
X7416921Y-14405300D02*
X7436921Y-14425300D01*
X7436921Y-14405300D02*
X7416921Y-14425300D01*
X7432500Y-12977500D02*
X7452500Y-12997500D01*
X7452500Y-12977500D02*
X7432500Y-12997500D01*
X7432500Y-13072500D02*
X7452500Y-13092500D01*
X7452500Y-13072500D02*
X7432500Y-13092500D01*
X7442550Y-11497950D02*
X7462550Y-11517950D01*
X7462550Y-11497950D02*
X7442550Y-11517950D01*
X7455000Y-14335000D02*
X7475000Y-14355000D01*
X7475000Y-14335000D02*
X7455000Y-14355000D01*
X7469950Y-13857500D02*
X7489950Y-13877500D01*
X7489950Y-13857500D02*
X7469950Y-13877500D01*
X7476245Y-14462475D02*
X7496245Y-14482475D01*
X7496245Y-14462475D02*
X7476245Y-14482475D01*
X7480000Y-8157000D02*
X7500000Y-8177000D01*
X7500000Y-8157000D02*
X7480000Y-8177000D01*
X7510000Y-14390000D02*
X7530000Y-14410000D01*
X7530000Y-14390000D02*
X7510000Y-14410000D01*
X7512500Y-13952500D02*
X7532500Y-13972500D01*
X7532500Y-13952500D02*
X7512500Y-13972500D01*
X7535000Y-14900550D02*
X7555000Y-14920550D01*
X7555000Y-14900550D02*
X7535000Y-14920550D01*
X7537500Y-12977500D02*
X7557500Y-12997500D01*
X7557500Y-12977500D02*
X7537500Y-12997500D01*
X7537500Y-13072500D02*
X7557500Y-13092500D01*
X7557500Y-13072500D02*
X7537500Y-13092500D01*
X7547500Y-13880000D02*
X7567500Y-13900000D01*
X7567500Y-13880000D02*
X7547500Y-13900000D01*
X7550000Y-14032500D02*
X7570000Y-14052500D01*
X7570000Y-14032500D02*
X7550000Y-14052500D01*
X7565000Y-14120000D02*
X7585000Y-14140000D01*
X7585000Y-14120000D02*
X7565000Y-14140000D01*
X7565000Y-14300000D02*
X7585000Y-14320000D01*
X7585000Y-14300000D02*
X7565000Y-14320000D01*
X7567354Y-13805694D02*
X7587354Y-13825694D01*
X7587354Y-13805694D02*
X7567354Y-13825694D01*
X7571539Y-14482138D02*
X7591539Y-14502138D01*
X7591539Y-14482138D02*
X7571539Y-14502138D01*
X7596250Y-14216250D02*
X7616250Y-14236250D01*
X7616250Y-14216250D02*
X7596250Y-14236250D01*
X7605000Y-13390000D02*
X7625000Y-13410000D01*
X7625000Y-13390000D02*
X7605000Y-13410000D01*
X7610000Y-13737500D02*
X7630000Y-13757500D01*
X7630000Y-13737500D02*
X7610000Y-13757500D01*
X7610000Y-13972500D02*
X7630000Y-13992500D01*
X7630000Y-13972500D02*
X7610000Y-13992500D01*
X7617500Y-14360000D02*
X7637500Y-14380000D01*
X7637500Y-14360000D02*
X7617500Y-14380000D01*
X7632500Y-14075000D02*
X7652500Y-14095000D01*
X7652500Y-14075000D02*
X7632500Y-14095000D01*
X7637500Y-12977500D02*
X7657500Y-12997500D01*
X7657500Y-12977500D02*
X7637500Y-12997500D01*
X7637500Y-13072500D02*
X7657500Y-13092500D01*
X7657500Y-13072500D02*
X7637500Y-13092500D01*
X7640000Y-13670000D02*
X7660000Y-13690000D01*
X7660000Y-13670000D02*
X7640000Y-13690000D01*
X7640629Y-11709411D02*
X7660629Y-11729411D01*
X7660629Y-11709411D02*
X7640629Y-11729411D01*
X7652669Y-13805112D02*
X7672669Y-13825112D01*
X7672669Y-13805112D02*
X7652669Y-13825112D01*
X7653750Y-14273750D02*
X7673750Y-14293750D01*
X7673750Y-14273750D02*
X7653750Y-14293750D01*
X7670000Y-14420000D02*
X7690000Y-14440000D01*
X7690000Y-14420000D02*
X7670000Y-14440000D01*
X7710000Y-14102500D02*
X7730000Y-14122500D01*
X7730000Y-14102500D02*
X7710000Y-14122500D01*
X7712500Y-14015000D02*
X7732500Y-14035000D01*
X7732500Y-14015000D02*
X7712500Y-14035000D01*
X7720000Y-14765000D02*
X7740000Y-14785000D01*
X7740000Y-14765000D02*
X7720000Y-14785000D01*
X7725000Y-14587500D02*
X7745000Y-14607500D01*
X7745000Y-14587500D02*
X7725000Y-14607500D01*
X7737000Y-11721000D02*
X7757000Y-11741000D01*
X7757000Y-11721000D02*
X7737000Y-11741000D01*
X7737500Y-12980000D02*
X7757500Y-13000000D01*
X7757500Y-12980000D02*
X7737500Y-13000000D01*
X7737500Y-13075000D02*
X7757500Y-13095000D01*
X7757500Y-13075000D02*
X7737500Y-13095000D01*
X7745000Y-14330000D02*
X7765000Y-14350000D01*
X7765000Y-14330000D02*
X7745000Y-14350000D01*
X7746552Y-8260885D02*
X7766552Y-8280885D01*
X7766552Y-8260885D02*
X7746552Y-8280885D01*
X7778125Y-13530000D02*
X7798125Y-13550000D01*
X7798125Y-13530000D02*
X7778125Y-13550000D01*
X7785000Y-14102500D02*
X7805000Y-14122500D01*
X7805000Y-14102500D02*
X7785000Y-14122500D01*
X7787500Y-14015000D02*
X7807500Y-14035000D01*
X7807500Y-14015000D02*
X7787500Y-14035000D01*
X7820000Y-15120000D02*
X7840000Y-15140000D01*
X7840000Y-15120000D02*
X7820000Y-15140000D01*
X7840000Y-12980000D02*
X7860000Y-13000000D01*
X7860000Y-12980000D02*
X7840000Y-13000000D01*
X7840000Y-13075000D02*
X7860000Y-13095000D01*
X7860000Y-13075000D02*
X7840000Y-13095000D01*
X7856250Y-13530000D02*
X7876250Y-13550000D01*
X7876250Y-13530000D02*
X7856250Y-13550000D01*
X7857000Y-11493000D02*
X7877000Y-11513000D01*
X7877000Y-11493000D02*
X7857000Y-11513000D01*
X7857500Y-13327450D02*
X7877500Y-13347450D01*
X7877500Y-13327450D02*
X7857500Y-13347450D01*
X7859000Y-14330000D02*
X7879000Y-14350000D01*
X7879000Y-14330000D02*
X7859000Y-14350000D01*
X7860000Y-14102500D02*
X7880000Y-14122500D01*
X7880000Y-14102500D02*
X7860000Y-14122500D01*
X7862500Y-14015000D02*
X7882500Y-14035000D01*
X7882500Y-14015000D02*
X7862500Y-14035000D01*
X7872628Y-6633140D02*
X7892628Y-6653140D01*
X7892628Y-6633140D02*
X7872628Y-6653140D01*
X7895000Y-11282500D02*
X7915000Y-11302500D01*
X7915000Y-11282500D02*
X7895000Y-11302500D01*
X7900000Y-11030000D02*
X7920000Y-11050000D01*
X7920000Y-11030000D02*
X7900000Y-11050000D01*
X7900000Y-11182500D02*
X7920000Y-11202500D01*
X7920000Y-11182500D02*
X7900000Y-11202500D01*
X7900000Y-14205000D02*
X7920000Y-14225000D01*
X7920000Y-14205000D02*
X7900000Y-14225000D01*
X7900000Y-14437500D02*
X7920000Y-14457500D01*
X7920000Y-14437500D02*
X7900000Y-14457500D01*
X7900000Y-14535000D02*
X7920000Y-14555000D01*
X7920000Y-14535000D02*
X7900000Y-14555000D01*
X7905000Y-9639000D02*
X7925000Y-9659000D01*
X7925000Y-9639000D02*
X7905000Y-9659000D01*
X7914105Y-6971876D02*
X7934105Y-6991876D01*
X7934105Y-6971876D02*
X7914105Y-6991876D01*
X7934375Y-13530000D02*
X7954375Y-13550000D01*
X7954375Y-13530000D02*
X7934375Y-13550000D01*
X7935000Y-13327450D02*
X7955000Y-13347450D01*
X7955000Y-13327450D02*
X7935000Y-13347450D01*
X7935000Y-14102500D02*
X7955000Y-14122500D01*
X7955000Y-14102500D02*
X7935000Y-14122500D01*
X7937500Y-14015000D02*
X7957500Y-14035000D01*
X7957500Y-14015000D02*
X7937500Y-14035000D01*
X7937500Y-14759950D02*
X7957500Y-14779950D01*
X7957500Y-14759950D02*
X7937500Y-14779950D01*
X7940000Y-12980000D02*
X7960000Y-13000000D01*
X7960000Y-12980000D02*
X7940000Y-13000000D01*
X7940000Y-13075000D02*
X7960000Y-13095000D01*
X7960000Y-13075000D02*
X7940000Y-13095000D01*
X7943000Y-14330000D02*
X7963000Y-14350000D01*
X7963000Y-14330000D02*
X7943000Y-14350000D01*
X7944458Y-9048334D02*
X7964458Y-9068334D01*
X7964458Y-9048334D02*
X7944458Y-9068334D01*
X7953643Y-8515302D02*
X7973643Y-8535302D01*
X7973643Y-8515302D02*
X7953643Y-8535302D01*
X7970000Y-13600000D02*
X7990000Y-13620000D01*
X7990000Y-13600000D02*
X7970000Y-13620000D01*
X7970000Y-13670000D02*
X7990000Y-13690000D01*
X7990000Y-13670000D02*
X7970000Y-13690000D01*
X7970000Y-13915000D02*
X7990000Y-13935000D01*
X7990000Y-13915000D02*
X7970000Y-13935000D01*
X7973000Y-9329000D02*
X7993000Y-9349000D01*
X7993000Y-9329000D02*
X7973000Y-9349000D01*
X8010000Y-14102500D02*
X8030000Y-14122500D01*
X8030000Y-14102500D02*
X8010000Y-14122500D01*
X8012500Y-13530000D02*
X8032500Y-13550000D01*
X8032500Y-13530000D02*
X8012500Y-13550000D01*
X8012500Y-14015000D02*
X8032500Y-14035000D01*
X8032500Y-14015000D02*
X8012500Y-14035000D01*
X8017500Y-14805000D02*
X8037500Y-14825000D01*
X8037500Y-14805000D02*
X8017500Y-14825000D01*
X8018000Y-14330000D02*
X8038000Y-14350000D01*
X8038000Y-14330000D02*
X8018000Y-14350000D01*
X8052365Y-10214060D02*
X8072365Y-10234060D01*
X8072365Y-10214060D02*
X8052365Y-10234060D01*
X8069000Y-8788000D02*
X8089000Y-8808000D01*
X8089000Y-8788000D02*
X8069000Y-8808000D01*
X8070000Y-11745000D02*
X8090000Y-11765000D01*
X8090000Y-11745000D02*
X8070000Y-11765000D01*
X8075000Y-11110000D02*
X8095000Y-11130000D01*
X8095000Y-11110000D02*
X8075000Y-11130000D01*
X8085000Y-14102500D02*
X8105000Y-14122500D01*
X8105000Y-14102500D02*
X8085000Y-14122500D01*
X8087500Y-14015000D02*
X8107500Y-14035000D01*
X8107500Y-14015000D02*
X8087500Y-14035000D01*
X8090000Y-12780000D02*
X8110000Y-12800000D01*
X8110000Y-12780000D02*
X8090000Y-12800000D01*
X8090625Y-13530000D02*
X8110625Y-13550000D01*
X8110625Y-13530000D02*
X8090625Y-13550000D01*
X8096000Y-13030000D02*
X8116000Y-13050000D01*
X8116000Y-13030000D02*
X8096000Y-13050000D01*
X8097000Y-14330000D02*
X8117000Y-14350000D01*
X8117000Y-14330000D02*
X8097000Y-14350000D01*
X8119000Y-12091000D02*
X8139000Y-12111000D01*
X8139000Y-12091000D02*
X8119000Y-12111000D01*
X8135000Y-15145000D02*
X8155000Y-15165000D01*
X8155000Y-15145000D02*
X8135000Y-15165000D01*
X8160000Y-14102500D02*
X8180000Y-14122500D01*
X8180000Y-14102500D02*
X8160000Y-14122500D01*
X8162500Y-14015000D02*
X8182500Y-14035000D01*
X8182500Y-14015000D02*
X8162500Y-14035000D01*
X8162500Y-14207500D02*
X8182500Y-14227500D01*
X8182500Y-14207500D02*
X8162500Y-14227500D01*
X8165000Y-16026000D02*
X8185000Y-16046000D01*
X8185000Y-16026000D02*
X8165000Y-16046000D01*
X8168750Y-13530000D02*
X8188750Y-13550000D01*
X8188750Y-13530000D02*
X8168750Y-13550000D01*
X8181534Y-15732886D02*
X8201534Y-15752886D01*
X8201534Y-15732886D02*
X8181534Y-15752886D01*
X8187168Y-9885694D02*
X8207168Y-9905694D01*
X8207168Y-9885694D02*
X8187168Y-9905694D01*
X8192500Y-11472500D02*
X8212500Y-11492500D01*
X8212500Y-11472500D02*
X8192500Y-11492500D01*
X8210000Y-6880000D02*
X8230000Y-6900000D01*
X8230000Y-6880000D02*
X8210000Y-6900000D01*
X8246875Y-13530000D02*
X8266875Y-13550000D01*
X8266875Y-13530000D02*
X8246875Y-13550000D01*
X8267500Y-11907450D02*
X8287500Y-11927450D01*
X8287500Y-11907450D02*
X8267500Y-11927450D01*
X8284000Y-8963000D02*
X8304000Y-8983000D01*
X8304000Y-8963000D02*
X8284000Y-8983000D01*
X8286000Y-12848000D02*
X8306000Y-12868000D01*
X8306000Y-12848000D02*
X8286000Y-12868000D01*
X8297500Y-10775000D02*
X8317500Y-10795000D01*
X8317500Y-10775000D02*
X8297500Y-10795000D01*
X8318000Y-6567000D02*
X8338000Y-6587000D01*
X8338000Y-6567000D02*
X8318000Y-6587000D01*
X8320000Y-11670000D02*
X8340000Y-11690000D01*
X8340000Y-11670000D02*
X8320000Y-11690000D01*
X8325000Y-13532500D02*
X8345000Y-13552500D01*
X8345000Y-13532500D02*
X8325000Y-13552500D01*
X8326910Y-15226153D02*
X8346910Y-15246153D01*
X8346910Y-15226153D02*
X8326910Y-15246153D01*
X8327500Y-13602500D02*
X8347500Y-13622500D01*
X8347500Y-13602500D02*
X8327500Y-13622500D01*
X8327500Y-13672500D02*
X8347500Y-13692500D01*
X8347500Y-13672500D02*
X8327500Y-13692500D01*
X8327955Y-15948916D02*
X8347955Y-15968916D01*
X8347955Y-15948916D02*
X8327955Y-15968916D01*
X8330008Y-15672080D02*
X8350008Y-15692080D01*
X8350008Y-15672080D02*
X8330008Y-15692080D01*
X8349000Y-13030000D02*
X8369000Y-13050000D01*
X8369000Y-13030000D02*
X8349000Y-13050000D01*
X8384000Y-12162050D02*
X8404000Y-12182050D01*
X8404000Y-12162050D02*
X8384000Y-12182050D01*
X8387500Y-11925000D02*
X8407500Y-11945000D01*
X8407500Y-11925000D02*
X8387500Y-11945000D01*
X8391931Y-11247854D02*
X8411931Y-11267854D01*
X8411931Y-11247854D02*
X8391931Y-11267854D01*
X8410050Y-15261517D02*
X8430050Y-15281517D01*
X8430050Y-15261517D02*
X8410050Y-15281517D01*
X8420000Y-11667500D02*
X8440000Y-11687500D01*
X8440000Y-11667500D02*
X8420000Y-11687500D01*
X8452500Y-10970000D02*
X8472500Y-10990000D01*
X8472500Y-10970000D02*
X8452500Y-10990000D01*
X8477625Y-11242994D02*
X8497625Y-11262994D01*
X8497625Y-11242994D02*
X8477625Y-11262994D01*
X8498379Y-16049730D02*
X8518379Y-16069730D01*
X8518379Y-16049730D02*
X8498379Y-16069730D01*
X8505000Y-12150000D02*
X8525000Y-12170000D01*
X8525000Y-12150000D02*
X8505000Y-12170000D01*
X8510000Y-11662500D02*
X8530000Y-11682500D01*
X8530000Y-11662500D02*
X8510000Y-11682500D01*
X8556200Y-11162500D02*
X8576200Y-11182500D01*
X8576200Y-11162500D02*
X8556200Y-11182500D01*
X8565000Y-11442500D02*
X8585000Y-11462500D01*
X8585000Y-11442500D02*
X8565000Y-11462500D01*
X8580000Y-11522500D02*
X8600000Y-11542500D01*
X8600000Y-11522500D02*
X8580000Y-11542500D01*
X8611000Y-12572000D02*
X8631000Y-12592000D01*
X8631000Y-12572000D02*
X8611000Y-12592000D01*
X8612500Y-10900000D02*
X8632500Y-10920000D01*
X8632500Y-10900000D02*
X8612500Y-10920000D01*
X8628000Y-11905000D02*
X8648000Y-11925000D01*
X8648000Y-11905000D02*
X8628000Y-11925000D01*
X8630000Y-14545000D02*
X8650000Y-14565000D01*
X8650000Y-14545000D02*
X8630000Y-14565000D01*
X8631260Y-11259950D02*
X8651260Y-11279950D01*
X8651260Y-11259950D02*
X8631260Y-11279950D01*
X8639968Y-9256613D02*
X8659968Y-9276613D01*
X8659968Y-9256613D02*
X8639968Y-9276613D01*
X8640000Y-13608000D02*
X8660000Y-13628000D01*
X8660000Y-13608000D02*
X8640000Y-13628000D01*
X8642500Y-14070000D02*
X8662500Y-14090000D01*
X8662500Y-14070000D02*
X8642500Y-14090000D01*
X8651000Y-12104950D02*
X8671000Y-12124950D01*
X8671000Y-12104950D02*
X8651000Y-12124950D01*
X8651995Y-13409669D02*
X8671995Y-13429669D01*
X8671995Y-13409669D02*
X8651995Y-13429669D01*
X8657860Y-14842810D02*
X8677860Y-14862810D01*
X8677860Y-14842810D02*
X8657860Y-14862810D01*
X8661602Y-15749688D02*
X8681602Y-15769688D01*
X8681602Y-15749688D02*
X8661602Y-15769688D01*
X8667000Y-7953000D02*
X8687000Y-7973000D01*
X8687000Y-7953000D02*
X8667000Y-7973000D01*
X8668000Y-10211000D02*
X8688000Y-10231000D01*
X8688000Y-10211000D02*
X8668000Y-10231000D01*
X8690000Y-12395000D02*
X8710000Y-12415000D01*
X8710000Y-12395000D02*
X8690000Y-12415000D01*
X8700050Y-11392500D02*
X8720050Y-11412500D01*
X8720050Y-11392500D02*
X8700050Y-11412500D01*
X8727500Y-14070000D02*
X8747500Y-14090000D01*
X8747500Y-14070000D02*
X8727500Y-14090000D01*
X8739895Y-12222993D02*
X8759895Y-12242993D01*
X8759895Y-12222993D02*
X8739895Y-12242993D01*
X8747500Y-10397550D02*
X8767500Y-10417550D01*
X8767500Y-10397550D02*
X8747500Y-10417550D01*
X8778227Y-8544577D02*
X8798227Y-8564577D01*
X8798227Y-8544577D02*
X8778227Y-8564577D01*
X8782500Y-14630000D02*
X8802500Y-14650000D01*
X8802500Y-14630000D02*
X8782500Y-14650000D01*
X8797500Y-11607500D02*
X8817500Y-11627500D01*
X8817500Y-11607500D02*
X8797500Y-11627500D01*
X8802500Y-11922500D02*
X8822500Y-11942500D01*
X8822500Y-11922500D02*
X8802500Y-11942500D01*
X8810000Y-14325000D02*
X8830000Y-14345000D01*
X8830000Y-14325000D02*
X8810000Y-14345000D01*
X8817500Y-14070000D02*
X8837500Y-14090000D01*
X8837500Y-14070000D02*
X8817500Y-14090000D01*
X8843000Y-12568000D02*
X8863000Y-12588000D01*
X8863000Y-12568000D02*
X8843000Y-12588000D01*
X8851000Y-13573000D02*
X8871000Y-13593000D01*
X8871000Y-13573000D02*
X8851000Y-13593000D01*
X8871000Y-9736000D02*
X8891000Y-9756000D01*
X8891000Y-9736000D02*
X8871000Y-9756000D01*
X8885000Y-11027500D02*
X8905000Y-11047500D01*
X8905000Y-11027500D02*
X8885000Y-11047500D01*
X8890000Y-9009000D02*
X8910000Y-9029000D01*
X8910000Y-9009000D02*
X8890000Y-9029000D01*
X8902500Y-14070000D02*
X8922500Y-14090000D01*
X8922500Y-14070000D02*
X8902500Y-14090000D01*
X8910000Y-11140000D02*
X8930000Y-11160000D01*
X8930000Y-11140000D02*
X8910000Y-11160000D01*
X8942500Y-15020000D02*
X8962500Y-15040000D01*
X8962500Y-15020000D02*
X8942500Y-15040000D01*
X8945000Y-11337500D02*
X8965000Y-11357500D01*
X8965000Y-11337500D02*
X8945000Y-11357500D01*
X8957500Y-11492500D02*
X8977500Y-11512500D01*
X8977500Y-11492500D02*
X8957500Y-11512500D01*
X8965000Y-12572000D02*
X8985000Y-12592000D01*
X8985000Y-12572000D02*
X8965000Y-12592000D01*
X8977500Y-10337500D02*
X8997500Y-10357500D01*
X8997500Y-10337500D02*
X8977500Y-10357500D01*
X8987500Y-14070000D02*
X9007500Y-14090000D01*
X9007500Y-14070000D02*
X8987500Y-14090000D01*
X9027094Y-6964963D02*
X9047094Y-6984963D01*
X9047094Y-6964963D02*
X9027094Y-6984963D01*
X9042500Y-14500000D02*
X9062500Y-14520000D01*
X9062500Y-14500000D02*
X9042500Y-14520000D01*
X9047500Y-14780000D02*
X9067500Y-14800000D01*
X9067500Y-14780000D02*
X9047500Y-14800000D01*
X9050000Y-10267500D02*
X9070000Y-10287500D01*
X9070000Y-10267500D02*
X9050000Y-10287500D01*
X9090000Y-14855000D02*
X9110000Y-14875000D01*
X9110000Y-14855000D02*
X9090000Y-14875000D01*
X9100050Y-14585000D02*
X9120050Y-14605000D01*
X9120050Y-14585000D02*
X9100050Y-14605000D01*
X9100050Y-14675000D02*
X9120050Y-14695000D01*
X9120050Y-14675000D02*
X9100050Y-14695000D01*
X9127500Y-12700000D02*
X9147500Y-12720000D01*
X9147500Y-12700000D02*
X9127500Y-12720000D01*
X9135000Y-12045000D02*
X9155000Y-12065000D01*
X9155000Y-12045000D02*
X9135000Y-12065000D01*
X9155000Y-10265000D02*
X9175000Y-10285000D01*
X9175000Y-10265000D02*
X9155000Y-10285000D01*
X9192500Y-11330000D02*
X9212500Y-11350000D01*
X9212500Y-11330000D02*
X9192500Y-11350000D01*
X9195000Y-15907500D02*
X9215000Y-15927500D01*
X9215000Y-15907500D02*
X9195000Y-15927500D01*
X9200000Y-11427500D02*
X9220000Y-11447500D01*
X9220000Y-11427500D02*
X9200000Y-11447500D01*
X9202000Y-12165000D02*
X9222000Y-12185000D01*
X9222000Y-12165000D02*
X9202000Y-12185000D01*
X9202000Y-16242000D02*
X9222000Y-16262000D01*
X9222000Y-16242000D02*
X9202000Y-16262000D01*
X9203000Y-11535000D02*
X9223000Y-11555000D01*
X9223000Y-11535000D02*
X9203000Y-11555000D01*
X9248000Y-8720000D02*
X9268000Y-8740000D01*
X9268000Y-8720000D02*
X9248000Y-8740000D01*
X9280000Y-12702500D02*
X9300000Y-12722500D01*
X9300000Y-12702500D02*
X9280000Y-12722500D01*
X9283000Y-11944000D02*
X9303000Y-11964000D01*
X9303000Y-11944000D02*
X9283000Y-11964000D01*
X9291000Y-11001000D02*
X9311000Y-11021000D01*
X9311000Y-11001000D02*
X9291000Y-11021000D01*
X9304000Y-12991000D02*
X9324000Y-13011000D01*
X9324000Y-12991000D02*
X9304000Y-13011000D01*
X9307000Y-11544000D02*
X9327000Y-11564000D01*
X9327000Y-11544000D02*
X9307000Y-11564000D01*
X9308000Y-10457000D02*
X9328000Y-10477000D01*
X9328000Y-10457000D02*
X9308000Y-10477000D01*
X9331371Y-10730674D02*
X9351371Y-10750674D01*
X9351371Y-10730674D02*
X9331371Y-10750674D01*
X9352194Y-14785533D02*
X9372194Y-14805533D01*
X9372194Y-14785533D02*
X9352194Y-14805533D01*
X9372500Y-14535000D02*
X9392500Y-14555000D01*
X9392500Y-14535000D02*
X9372500Y-14555000D01*
X9377000Y-10179000D02*
X9397000Y-10199000D01*
X9397000Y-10179000D02*
X9377000Y-10199000D01*
X9380000Y-14335000D02*
X9400000Y-14355000D01*
X9400000Y-14335000D02*
X9380000Y-14355000D01*
X9389000Y-11926000D02*
X9409000Y-11946000D01*
X9409000Y-11926000D02*
X9389000Y-11946000D01*
X9397000Y-11015000D02*
X9417000Y-11035000D01*
X9417000Y-11015000D02*
X9397000Y-11035000D01*
X9398000Y-10860000D02*
X9418000Y-10880000D01*
X9418000Y-10860000D02*
X9398000Y-10880000D01*
X9416000Y-6967000D02*
X9436000Y-6987000D01*
X9436000Y-6967000D02*
X9416000Y-6987000D01*
X9438000Y-13647000D02*
X9458000Y-13667000D01*
X9458000Y-13647000D02*
X9438000Y-13667000D01*
X9446000Y-12084000D02*
X9466000Y-12104000D01*
X9466000Y-12084000D02*
X9446000Y-12104000D01*
X9457633Y-14661849D02*
X9477633Y-14681849D01*
X9477633Y-14661849D02*
X9457633Y-14681849D01*
X9467500Y-14875000D02*
X9487500Y-14895000D01*
X9487500Y-14875000D02*
X9467500Y-14895000D01*
X9511000Y-9079000D02*
X9531000Y-9099000D01*
X9531000Y-9079000D02*
X9511000Y-9099000D01*
X9512500Y-10452500D02*
X9532500Y-10472500D01*
X9532500Y-10452500D02*
X9512500Y-10472500D01*
X9527000Y-13769000D02*
X9547000Y-13789000D01*
X9547000Y-13769000D02*
X9527000Y-13789000D01*
X9527500Y-15810000D02*
X9547500Y-15830000D01*
X9547500Y-15810000D02*
X9527500Y-15830000D01*
X9569000Y-8283000D02*
X9589000Y-8303000D01*
X9589000Y-8283000D02*
X9569000Y-8303000D01*
X9608000Y-10125000D02*
X9628000Y-10145000D01*
X9628000Y-10125000D02*
X9608000Y-10145000D01*
X9625000Y-11720000D02*
X9645000Y-11740000D01*
X9645000Y-11720000D02*
X9625000Y-11740000D01*
X9633679Y-12668749D02*
X9653679Y-12688749D01*
X9653679Y-12668749D02*
X9633679Y-12688749D01*
X9648002Y-13054964D02*
X9668002Y-13074964D01*
X9668002Y-13054964D02*
X9648002Y-13074964D01*
X9660000Y-13790000D02*
X9680000Y-13810000D01*
X9680000Y-13790000D02*
X9660000Y-13810000D01*
X9678539Y-11096214D02*
X9698539Y-11116214D01*
X9698539Y-11096214D02*
X9678539Y-11116214D01*
X9690000Y-14535000D02*
X9710000Y-14555000D01*
X9710000Y-14535000D02*
X9690000Y-14555000D01*
X9700000Y-10325000D02*
X9720000Y-10345000D01*
X9720000Y-10325000D02*
X9700000Y-10345000D01*
X9714000Y-10652000D02*
X9734000Y-10672000D01*
X9734000Y-10652000D02*
X9714000Y-10672000D01*
X9722650Y-15235769D02*
X9742650Y-15255769D01*
X9742650Y-15235769D02*
X9722650Y-15255769D01*
X9725000Y-11840050D02*
X9745000Y-11860050D01*
X9745000Y-11840050D02*
X9725000Y-11860050D01*
X9732000Y-13987000D02*
X9752000Y-14007000D01*
X9752000Y-13987000D02*
X9732000Y-14007000D01*
X9742000Y-10790000D02*
X9762000Y-10810000D01*
X9762000Y-10790000D02*
X9742000Y-10810000D01*
X9752550Y-10489098D02*
X9772550Y-10509098D01*
X9772550Y-10489098D02*
X9752550Y-10509098D01*
X9762913Y-11074589D02*
X9782913Y-11094589D01*
X9782913Y-11074589D02*
X9762913Y-11094589D01*
X9777500Y-10227500D02*
X9797500Y-10247500D01*
X9797500Y-10227500D02*
X9777500Y-10247500D01*
X9785000Y-11660050D02*
X9805000Y-11680050D01*
X9805000Y-11660050D02*
X9785000Y-11680050D01*
X9794000Y-14984000D02*
X9814000Y-15004000D01*
X9814000Y-14984000D02*
X9794000Y-15004000D01*
X9800000Y-15065000D02*
X9820000Y-15085000D01*
X9820000Y-15065000D02*
X9800000Y-15085000D01*
X9805000Y-11967550D02*
X9825000Y-11987550D01*
X9825000Y-11967550D02*
X9805000Y-11987550D01*
X9805000Y-12087450D02*
X9825000Y-12107450D01*
X9825000Y-12087450D02*
X9805000Y-12107450D01*
X9811000Y-13403000D02*
X9831000Y-13423000D01*
X9831000Y-13403000D02*
X9811000Y-13423000D01*
X9834000Y-11038000D02*
X9854000Y-11058000D01*
X9854000Y-11038000D02*
X9834000Y-11058000D01*
X9835000Y-10615000D02*
X9855000Y-10635000D01*
X9855000Y-10615000D02*
X9835000Y-10635000D01*
X9856312Y-13112802D02*
X9876312Y-13132802D01*
X9876312Y-13112802D02*
X9856312Y-13132802D01*
X9865000Y-11135000D02*
X9885000Y-11155000D01*
X9885000Y-11135000D02*
X9865000Y-11155000D01*
X9866000Y-11223000D02*
X9886000Y-11243000D01*
X9886000Y-11223000D02*
X9866000Y-11243000D01*
X9867020Y-6781769D02*
X9887020Y-6801769D01*
X9887020Y-6781769D02*
X9867020Y-6801769D01*
X9880000Y-14954000D02*
X9900000Y-14974000D01*
X9900000Y-14954000D02*
X9880000Y-14974000D01*
X9882500Y-15605000D02*
X9902500Y-15625000D01*
X9902500Y-15605000D02*
X9882500Y-15625000D01*
X9884000Y-12741000D02*
X9904000Y-12761000D01*
X9904000Y-12741000D02*
X9884000Y-12761000D01*
X9890000Y-10492500D02*
X9910000Y-10512500D01*
X9910000Y-10492500D02*
X9890000Y-10512500D01*
X9900158Y-11577804D02*
X9920158Y-11597804D01*
X9920158Y-11577804D02*
X9900158Y-11597804D01*
X9901112Y-11718000D02*
X9921112Y-11738000D01*
X9921112Y-11718000D02*
X9901112Y-11738000D01*
X9902500Y-7495000D02*
X9922500Y-7515000D01*
X9922500Y-7495000D02*
X9902500Y-7515000D01*
X9902576Y-15886507D02*
X9922576Y-15906507D01*
X9922576Y-15886507D02*
X9902576Y-15906507D01*
X9903776Y-14877667D02*
X9923776Y-14897667D01*
X9923776Y-14877667D02*
X9903776Y-14897667D01*
X9911000Y-12202000D02*
X9931000Y-12222000D01*
X9931000Y-12202000D02*
X9911000Y-12222000D01*
X9911954Y-7863649D02*
X9931954Y-7883649D01*
X9931954Y-7863649D02*
X9911954Y-7883649D01*
X9927000Y-11966000D02*
X9947000Y-11986000D01*
X9947000Y-11966000D02*
X9927000Y-11986000D01*
X9927500Y-12090000D02*
X9947500Y-12110000D01*
X9947500Y-12090000D02*
X9927500Y-12110000D01*
X9936000Y-13356000D02*
X9956000Y-13376000D01*
X9956000Y-13356000D02*
X9936000Y-13376000D01*
X9946058Y-8961314D02*
X9966058Y-8981314D01*
X9966058Y-8961314D02*
X9946058Y-8981314D01*
X9955000Y-10735000D02*
X9975000Y-10755000D01*
X9975000Y-10735000D02*
X9955000Y-10755000D01*
X9955000Y-10820000D02*
X9975000Y-10840000D01*
X9975000Y-10820000D02*
X9955000Y-10840000D01*
X9955000Y-10900000D02*
X9975000Y-10920000D01*
X9975000Y-10900000D02*
X9955000Y-10920000D01*
X9962650Y-8368181D02*
X9982650Y-8388181D01*
X9982650Y-8368181D02*
X9962650Y-8388181D01*
X9965000Y-11828000D02*
X9985000Y-11848000D01*
X9985000Y-11828000D02*
X9965000Y-11848000D01*
X9980000Y-13568000D02*
X10000000Y-13588000D01*
X10000000Y-13568000D02*
X9980000Y-13588000D01*
X9985000Y-14510000D02*
X10005000Y-14530000D01*
X10005000Y-14510000D02*
X9985000Y-14530000D01*
X9987391Y-16010391D02*
X10007391Y-16030391D01*
X10007391Y-16010391D02*
X9987391Y-16030391D01*
X10007500Y-10012500D02*
X10027500Y-10032500D01*
X10027500Y-10012500D02*
X10007500Y-10032500D01*
X10008000Y-9318000D02*
X10028000Y-9338000D01*
X10028000Y-9318000D02*
X10008000Y-9338000D01*
X10015000Y-11965000D02*
X10035000Y-11985000D01*
X10035000Y-11965000D02*
X10015000Y-11985000D01*
X10029000Y-11766000D02*
X10049000Y-11786000D01*
X10049000Y-11766000D02*
X10029000Y-11786000D01*
X10032550Y-10105000D02*
X10052550Y-10125000D01*
X10052550Y-10105000D02*
X10032550Y-10125000D01*
X10037500Y-10735000D02*
X10057500Y-10755000D01*
X10057500Y-10735000D02*
X10037500Y-10755000D01*
X10040000Y-10817500D02*
X10060000Y-10837500D01*
X10060000Y-10817500D02*
X10040000Y-10837500D01*
X10040000Y-10900000D02*
X10060000Y-10920000D01*
X10060000Y-10900000D02*
X10040000Y-10920000D01*
X10057000Y-15661000D02*
X10077000Y-15681000D01*
X10077000Y-15661000D02*
X10057000Y-15681000D01*
X10071769Y-14796445D02*
X10091769Y-14816445D01*
X10091769Y-14796445D02*
X10071769Y-14816445D01*
X10088000Y-11704000D02*
X10108000Y-11724000D01*
X10108000Y-11704000D02*
X10088000Y-11724000D01*
X10089000Y-11492000D02*
X10109000Y-11512000D01*
X10109000Y-11492000D02*
X10089000Y-11512000D01*
X10095050Y-10492500D02*
X10115050Y-10512500D01*
X10115050Y-10492500D02*
X10095050Y-10512500D01*
X10098000Y-11593000D02*
X10118000Y-11613000D01*
X10118000Y-11593000D02*
X10098000Y-11613000D01*
X10098894Y-11136106D02*
X10118894Y-11156106D01*
X10118894Y-11136106D02*
X10098894Y-11156106D01*
X10109000Y-8112000D02*
X10129000Y-8132000D01*
X10129000Y-8112000D02*
X10109000Y-8132000D01*
X10122500Y-10735000D02*
X10142500Y-10755000D01*
X10142500Y-10735000D02*
X10122500Y-10755000D01*
X10122500Y-10817500D02*
X10142500Y-10837500D01*
X10142500Y-10817500D02*
X10122500Y-10837500D01*
X10122500Y-10897500D02*
X10142500Y-10917500D01*
X10142500Y-10897500D02*
X10122500Y-10917500D01*
X10187000Y-13361000D02*
X10207000Y-13381000D01*
X10207000Y-13361000D02*
X10187000Y-13381000D01*
X10199000Y-14135000D02*
X10219000Y-14155000D01*
X10219000Y-14135000D02*
X10199000Y-14155000D01*
X10239352Y-11014950D02*
X10259352Y-11034950D01*
X10259352Y-11014950D02*
X10239352Y-11034950D01*
X10245000Y-10610000D02*
X10265000Y-10630000D01*
X10265000Y-10610000D02*
X10245000Y-10630000D01*
X10260000Y-13774000D02*
X10280000Y-13794000D01*
X10280000Y-13774000D02*
X10260000Y-13794000D01*
X10265000Y-14512500D02*
X10285000Y-14532500D01*
X10285000Y-14512500D02*
X10265000Y-14532500D01*
X10293242Y-10072058D02*
X10313242Y-10092058D01*
X10313242Y-10072058D02*
X10293242Y-10092058D01*
X10294000Y-9325000D02*
X10314000Y-9345000D01*
X10314000Y-9325000D02*
X10294000Y-9345000D01*
X10315000Y-10262500D02*
X10335000Y-10282500D01*
X10335000Y-10262500D02*
X10315000Y-10282500D01*
X10315000Y-15595000D02*
X10335000Y-15615000D01*
X10335000Y-15595000D02*
X10315000Y-15615000D01*
X10317500Y-10417500D02*
X10337500Y-10437500D01*
X10337500Y-10417500D02*
X10317500Y-10437500D01*
X10330000Y-11005000D02*
X10350000Y-11025000D01*
X10350000Y-11005000D02*
X10330000Y-11025000D01*
X10331000Y-13861000D02*
X10351000Y-13881000D01*
X10351000Y-13861000D02*
X10331000Y-13881000D01*
X10332550Y-10914950D02*
X10352550Y-10934950D01*
X10352550Y-10914950D02*
X10332550Y-10934950D01*
X10333913Y-9595332D02*
X10353913Y-9615332D01*
X10353913Y-9595332D02*
X10333913Y-9615332D01*
X10341000Y-10544000D02*
X10361000Y-10564000D01*
X10361000Y-10544000D02*
X10341000Y-10564000D01*
X10349859Y-11377859D02*
X10369859Y-11397859D01*
X10369859Y-11377859D02*
X10349859Y-11397859D01*
X10350274Y-7338786D02*
X10370274Y-7358786D01*
X10370274Y-7338786D02*
X10350274Y-7358786D01*
X10352000Y-11227000D02*
X10372000Y-11247000D01*
X10372000Y-11227000D02*
X10352000Y-11247000D01*
X10367500Y-15845000D02*
X10387500Y-15865000D01*
X10387500Y-15845000D02*
X10367500Y-15865000D01*
X10377500Y-14625000D02*
X10397500Y-14645000D01*
X10397500Y-14625000D02*
X10377500Y-14645000D01*
X10415000Y-8600000D02*
X10435000Y-8620000D01*
X10435000Y-8600000D02*
X10415000Y-8620000D01*
X10444000Y-9892000D02*
X10464000Y-9912000D01*
X10464000Y-9892000D02*
X10444000Y-9912000D01*
X10446000Y-12071000D02*
X10466000Y-12091000D01*
X10466000Y-12071000D02*
X10446000Y-12091000D01*
X10452500Y-8865000D02*
X10472500Y-8885000D01*
X10472500Y-8865000D02*
X10452500Y-8885000D01*
X10454000Y-12979000D02*
X10474000Y-12999000D01*
X10474000Y-12979000D02*
X10454000Y-12999000D01*
X10462000Y-13168000D02*
X10482000Y-13188000D01*
X10482000Y-13168000D02*
X10462000Y-13188000D01*
X10512500Y-10942500D02*
X10532500Y-10962500D01*
X10532500Y-10942500D02*
X10512500Y-10962500D01*
X10515000Y-15352500D02*
X10535000Y-15372500D01*
X10535000Y-15352500D02*
X10515000Y-15372500D01*
X10538859Y-11088859D02*
X10558859Y-11108859D01*
X10558859Y-11088859D02*
X10538859Y-11108859D01*
X10565000Y-7807500D02*
X10585000Y-7827500D01*
X10585000Y-7807500D02*
X10565000Y-7827500D01*
X10570000Y-10772500D02*
X10590000Y-10792500D01*
X10590000Y-10772500D02*
X10570000Y-10792500D01*
X10590000Y-8982500D02*
X10610000Y-9002500D01*
X10610000Y-8982500D02*
X10590000Y-9002500D01*
X10596000Y-14074000D02*
X10616000Y-14094000D01*
X10616000Y-14074000D02*
X10596000Y-14094000D01*
X10640000Y-13302500D02*
X10660000Y-13322500D01*
X10660000Y-13302500D02*
X10640000Y-13322500D01*
X10648000Y-11738000D02*
X10668000Y-11758000D01*
X10668000Y-11738000D02*
X10648000Y-11758000D01*
X10670000Y-10310000D02*
X10690000Y-10330000D01*
X10690000Y-10310000D02*
X10670000Y-10330000D01*
X10717500Y-10812500D02*
X10737500Y-10832500D01*
X10737500Y-10812500D02*
X10717500Y-10832500D01*
X10741043Y-13925950D02*
X10761043Y-13945950D01*
X10761043Y-13925950D02*
X10741043Y-13945950D01*
X10747500Y-13172500D02*
X10767500Y-13192500D01*
X10767500Y-13172500D02*
X10747500Y-13192500D01*
X10768000Y-14806000D02*
X10788000Y-14826000D01*
X10788000Y-14806000D02*
X10768000Y-14826000D01*
X10770000Y-11090000D02*
X10790000Y-11110000D01*
X10790000Y-11090000D02*
X10770000Y-11110000D01*
X10775000Y-13425000D02*
X10795000Y-13445000D01*
X10795000Y-13425000D02*
X10775000Y-13445000D01*
X10787500Y-8930000D02*
X10807500Y-8950000D01*
X10807500Y-8930000D02*
X10787500Y-8950000D01*
X10817500Y-15622500D02*
X10837500Y-15642500D01*
X10837500Y-15622500D02*
X10817500Y-15642500D01*
X10822500Y-12017500D02*
X10842500Y-12037500D01*
X10842500Y-12017500D02*
X10822500Y-12037500D01*
X10835000Y-13065000D02*
X10855000Y-13085000D01*
X10855000Y-13065000D02*
X10835000Y-13085000D01*
X10845000Y-12872500D02*
X10865000Y-12892500D01*
X10865000Y-12872500D02*
X10845000Y-12892500D01*
X10866000Y-14261000D02*
X10886000Y-14281000D01*
X10886000Y-14261000D02*
X10866000Y-14281000D01*
X10882500Y-13515000D02*
X10902500Y-13535000D01*
X10902500Y-13515000D02*
X10882500Y-13535000D01*
X10882500Y-14710000D02*
X10902500Y-14730000D01*
X10902500Y-14710000D02*
X10882500Y-14730000D01*
X10900000Y-11609000D02*
X10920000Y-11629000D01*
X10920000Y-11609000D02*
X10900000Y-11629000D01*
X10905000Y-9052500D02*
X10925000Y-9072500D01*
X10925000Y-9052500D02*
X10905000Y-9072500D01*
X10914000Y-14372000D02*
X10934000Y-14392000D01*
X10934000Y-14372000D02*
X10914000Y-14392000D01*
X10915000Y-10019000D02*
X10935000Y-10039000D01*
X10935000Y-10019000D02*
X10915000Y-10039000D01*
X10927500Y-12955000D02*
X10947500Y-12975000D01*
X10947500Y-12955000D02*
X10927500Y-12975000D01*
X11015000Y-13620000D02*
X11035000Y-13640000D01*
X11035000Y-13620000D02*
X11015000Y-13640000D01*
X11020000Y-7476000D02*
X11040000Y-7496000D01*
X11040000Y-7476000D02*
X11020000Y-7496000D01*
X11051000Y-9227000D02*
X11071000Y-9247000D01*
X11071000Y-9227000D02*
X11051000Y-9247000D01*
X11127000Y-14459000D02*
X11147000Y-14479000D01*
X11147000Y-14459000D02*
X11127000Y-14479000D01*
X11135000Y-13492500D02*
X11155000Y-13512500D01*
X11155000Y-13492500D02*
X11135000Y-13512500D01*
X11137977Y-14025314D02*
X11157977Y-14045314D01*
X11157977Y-14025314D02*
X11137977Y-14045314D01*
X11211000Y-12872000D02*
X11231000Y-12892000D01*
X11231000Y-12872000D02*
X11211000Y-12892000D01*
X11225000Y-13380000D02*
X11245000Y-13400000D01*
X11245000Y-13380000D02*
X11225000Y-13400000D01*
X11251797Y-12720523D02*
X11271797Y-12740523D01*
X11271797Y-12720523D02*
X11251797Y-12740523D01*
X11305000Y-10217500D02*
X11325000Y-10237500D01*
X11325000Y-10217500D02*
X11305000Y-10237500D01*
X11312500Y-13280000D02*
X11332500Y-13300000D01*
X11332500Y-13280000D02*
X11312500Y-13300000D01*
X11325000Y-13888000D02*
X11345000Y-13908000D01*
X11345000Y-13888000D02*
X11325000Y-13908000D01*
X11326000Y-11609000D02*
X11346000Y-11629000D01*
X11346000Y-11609000D02*
X11326000Y-11629000D01*
X11334466Y-11163642D02*
X11354466Y-11183642D01*
X11354466Y-11163642D02*
X11334466Y-11183642D01*
X11348000Y-11939000D02*
X11368000Y-11959000D01*
X11368000Y-11939000D02*
X11348000Y-11959000D01*
X11362333Y-8724643D02*
X11382333Y-8744643D01*
X11382333Y-8724643D02*
X11362333Y-8744643D01*
X11378000Y-10794000D02*
X11398000Y-10814000D01*
X11398000Y-10794000D02*
X11378000Y-10814000D01*
X11432845Y-9035727D02*
X11452845Y-9055727D01*
X11452845Y-9035727D02*
X11432845Y-9055727D01*
X11435000Y-7796000D02*
X11455000Y-7816000D01*
X11455000Y-7796000D02*
X11435000Y-7816000D01*
X11436000Y-12006000D02*
X11456000Y-12026000D01*
X11456000Y-12006000D02*
X11436000Y-12026000D01*
X11457500Y-9782500D02*
X11477500Y-9802500D01*
X11477500Y-9782500D02*
X11457500Y-9802500D01*
X11487500Y-9875000D02*
X11507500Y-9895000D01*
X11507500Y-9875000D02*
X11487500Y-9895000D01*
X11530000Y-10842500D02*
X11550000Y-10862500D01*
X11550000Y-10842500D02*
X11530000Y-10862500D01*
X11535000Y-9327000D02*
X11555000Y-9347000D01*
X11555000Y-9327000D02*
X11535000Y-9347000D01*
X11567550Y-10187500D02*
X11587550Y-10207500D01*
X11587550Y-10187500D02*
X11567550Y-10207500D01*
X11584000Y-13266000D02*
X11604000Y-13286000D01*
X11604000Y-13266000D02*
X11584000Y-13286000D01*
X11605000Y-12665000D02*
X11625000Y-12685000D01*
X11625000Y-12665000D02*
X11605000Y-12685000D01*
X11608000Y-12148000D02*
X11628000Y-12168000D01*
X11628000Y-12148000D02*
X11608000Y-12168000D01*
X11616000Y-13805000D02*
X11636000Y-13825000D01*
X11636000Y-13805000D02*
X11616000Y-13825000D01*
X11647038Y-10450108D02*
X11667038Y-10470108D01*
X11667038Y-10450108D02*
X11647038Y-10470108D01*
X11648859Y-9901359D02*
X11668859Y-9921359D01*
X11668859Y-9901359D02*
X11648859Y-9921359D01*
X11651000Y-11605000D02*
X11671000Y-11625000D01*
X11671000Y-11605000D02*
X11651000Y-11625000D01*
X11652500Y-9030000D02*
X11672500Y-9050000D01*
X11672500Y-9030000D02*
X11652500Y-9050000D01*
X11665000Y-9460000D02*
X11685000Y-9480000D01*
X11685000Y-9460000D02*
X11665000Y-9480000D01*
X11666250Y-10372500D02*
X11686250Y-10392500D01*
X11686250Y-10372500D02*
X11666250Y-10392500D01*
X11671250Y-10262500D02*
X11691250Y-10282500D01*
X11691250Y-10262500D02*
X11671250Y-10282500D01*
X11700000Y-10510000D02*
X11720000Y-10530000D01*
X11720000Y-10510000D02*
X11700000Y-10530000D01*
X11704718Y-8065393D02*
X11724718Y-8085393D01*
X11724718Y-8065393D02*
X11704718Y-8085393D01*
X11722500Y-12260000D02*
X11742500Y-12280000D01*
X11742500Y-12260000D02*
X11722500Y-12280000D01*
X11731110Y-13569058D02*
X11751110Y-13589058D01*
X11751110Y-13569058D02*
X11731110Y-13589058D01*
X11737500Y-10635000D02*
X11757500Y-10655000D01*
X11757500Y-10635000D02*
X11737500Y-10655000D01*
X11750000Y-8657500D02*
X11770000Y-8677500D01*
X11770000Y-8657500D02*
X11750000Y-8677500D01*
X11750000Y-10005000D02*
X11770000Y-10025000D01*
X11770000Y-10005000D02*
X11750000Y-10025000D01*
X11832500Y-9920000D02*
X11852500Y-9940000D01*
X11852500Y-9920000D02*
X11832500Y-9940000D01*
X11852828Y-12458510D02*
X11872828Y-12478510D01*
X11872828Y-12458510D02*
X11852828Y-12478510D01*
X11855000Y-9997500D02*
X11875000Y-10017500D01*
X11875000Y-9997500D02*
X11855000Y-10017500D01*
X11909072Y-9361702D02*
X11929072Y-9381702D01*
X11929072Y-9361702D02*
X11909072Y-9381702D01*
X11945000Y-9175000D02*
X11965000Y-9195000D01*
X11965000Y-9175000D02*
X11945000Y-9195000D01*
X11957500Y-12182500D02*
X11977500Y-12202500D01*
X11977500Y-12182500D02*
X11957500Y-12202500D01*
X11988000Y-10748000D02*
X12008000Y-10768000D01*
X12008000Y-10748000D02*
X11988000Y-10768000D01*
X12056968Y-11168442D02*
X12076968Y-11188442D01*
X12076968Y-11168442D02*
X12056968Y-11188442D01*
X12070000Y-11992500D02*
X12090000Y-12012500D01*
X12090000Y-11992500D02*
X12070000Y-12012500D01*
X12085000Y-13062500D02*
X12105000Y-13082500D01*
X12105000Y-13062500D02*
X12085000Y-13082500D01*
X12112500Y-12585000D02*
X12132500Y-12605000D01*
X12132500Y-12585000D02*
X12112500Y-12605000D01*
X12135000Y-9965000D02*
X12155000Y-9985000D01*
X12155000Y-9965000D02*
X12135000Y-9985000D01*
X12155000Y-12229000D02*
X12175000Y-12249000D01*
X12175000Y-12229000D02*
X12155000Y-12249000D01*
X12159000Y-11605000D02*
X12179000Y-11625000D01*
X12179000Y-11605000D02*
X12159000Y-11625000D01*
X12177500Y-12507500D02*
X12197500Y-12527500D01*
X12197500Y-12507500D02*
X12177500Y-12527500D01*
X12195000Y-12662500D02*
X12215000Y-12682500D01*
X12215000Y-12662500D02*
X12195000Y-12682500D01*
X12200000Y-12910000D02*
X12220000Y-12930000D01*
X12220000Y-12910000D02*
X12200000Y-12930000D01*
X12255000Y-9270000D02*
X12275000Y-9290000D01*
X12275000Y-9270000D02*
X12255000Y-9290000D01*
X12287000Y-12750000D02*
X12307000Y-12770000D01*
X12307000Y-12750000D02*
X12287000Y-12770000D01*
X12300000Y-12678000D02*
X12320000Y-12698000D01*
X12320000Y-12678000D02*
X12300000Y-12698000D01*
X12315817Y-10669435D02*
X12335817Y-10689435D01*
X12335817Y-10669435D02*
X12315817Y-10689435D01*
X12347000Y-12796000D02*
X12367000Y-12816000D01*
X12367000Y-12796000D02*
X12347000Y-12816000D01*
X12354000Y-12595000D02*
X12374000Y-12615000D01*
X12374000Y-12595000D02*
X12354000Y-12615000D01*
X12357000Y-9798000D02*
X12377000Y-9818000D01*
X12377000Y-9798000D02*
X12357000Y-9818000D01*
X12367000Y-12719000D02*
X12387000Y-12739000D01*
X12387000Y-12719000D02*
X12367000Y-12739000D01*
X12385000Y-12430000D02*
X12405000Y-12450000D01*
X12405000Y-12430000D02*
X12385000Y-12450000D01*
X12440251Y-10350056D02*
X12460251Y-10370056D01*
X12460251Y-10350056D02*
X12440251Y-10370056D01*
X12591000Y-12055000D02*
X12611000Y-12075000D01*
X12611000Y-12055000D02*
X12591000Y-12075000D01*
X12606162Y-9864765D02*
X12626162Y-9884765D01*
X12626162Y-9864765D02*
X12606162Y-9884765D01*
X12637500Y-9140000D02*
X12657500Y-9160000D01*
X12657500Y-9140000D02*
X12637500Y-9160000D01*
X12673000Y-11837000D02*
X12693000Y-11857000D01*
X12693000Y-11837000D02*
X12673000Y-11857000D01*
X12772000Y-9587000D02*
X12792000Y-9607000D01*
X12792000Y-9587000D02*
X12772000Y-9607000D01*
X12813551Y-10105336D02*
X12833551Y-10125336D01*
X12833551Y-10105336D02*
X12813551Y-10125336D01*
X12838867Y-10965512D02*
X12858867Y-10985512D01*
X12858867Y-10965512D02*
X12838867Y-10985512D01*
X12921000Y-10387000D02*
X12941000Y-10407000D01*
X12941000Y-10387000D02*
X12921000Y-10407000D01*
X13000000Y-11347500D02*
X13020000Y-11367500D01*
X13020000Y-11347500D02*
X13000000Y-11367500D01*
X13143000Y-11895000D02*
X13163000Y-11915000D01*
X13163000Y-11895000D02*
X13143000Y-11915000D01*
X13215000Y-10722500D02*
X13235000Y-10742500D01*
X13235000Y-10722500D02*
X13215000Y-10742500D01*
D12*
X4662500Y-13297500D02*
G75*
G03*
X4662500Y-13297500I-20000J0D01*
G01*
X4885000Y-14307500D02*
G75*
G03*
X4885000Y-14307500I-20000J0D01*
G01*
X5167500Y-8660000D02*
G75*
G03*
X5167500Y-8660000I-20000J0D01*
G01*
X5180000Y-9500000D02*
G75*
G03*
X5180000Y-9500000I-20000J0D01*
G01*
X5262500Y-11197500D02*
G75*
G03*
X5262500Y-11197500I-20000J0D01*
G01*
X5307500Y-9647500D02*
G75*
G03*
X5307500Y-9647500I-20000J0D01*
G01*
X5442500Y-13925000D02*
G75*
G03*
X5442500Y-13925000I-20000J0D01*
G01*
X5550000Y-11422500D02*
G75*
G03*
X5550000Y-11422500I-20000J0D01*
G01*
X5582500Y-11165000D02*
G75*
G03*
X5582500Y-11165000I-20000J0D01*
G01*
X5627500Y-14860000D02*
G75*
G03*
X5627500Y-14860000I-20000J0D01*
G01*
X5706962Y-10054462D02*
G75*
G03*
X5706962Y-10054462I-20000J0D01*
G01*
X5707500Y-8130000D02*
G75*
G03*
X5707500Y-8130000I-20000J0D01*
G01*
X6235000Y-11990000D02*
G75*
G03*
X6235000Y-11990000I-20000J0D01*
G01*
X6235000Y-12135000D02*
G75*
G03*
X6235000Y-12135000I-20000J0D01*
G01*
X6237500Y-12300000D02*
G75*
G03*
X6237500Y-12300000I-20000J0D01*
G01*
X6272500Y-12452500D02*
G75*
G03*
X6272500Y-12452500I-20000J0D01*
G01*
X6295000Y-11637500D02*
G75*
G03*
X6295000Y-11637500I-20000J0D01*
G01*
X6400000Y-12455000D02*
G75*
G03*
X6400000Y-12455000I-20000J0D01*
G01*
X6411250Y-11637500D02*
G75*
G03*
X6411250Y-11637500I-20000J0D01*
G01*
X6495000Y-11172500D02*
G75*
G03*
X6495000Y-11172500I-20000J0D01*
G01*
X6512500Y-11745000D02*
G75*
G03*
X6512500Y-11745000I-20000J0D01*
G01*
X6515000Y-11850000D02*
G75*
G03*
X6515000Y-11850000I-20000J0D01*
G01*
X6527500Y-11637500D02*
G75*
G03*
X6527500Y-11637500I-20000J0D01*
G01*
X6527500Y-12345000D02*
G75*
G03*
X6527500Y-12345000I-20000J0D01*
G01*
X6527500Y-12455000D02*
G75*
G03*
X6527500Y-12455000I-20000J0D01*
G01*
X6538000Y-10034000D02*
G75*
G03*
X6538000Y-10034000I-20000J0D01*
G01*
X6552500Y-8130000D02*
G75*
G03*
X6552500Y-8130000I-20000J0D01*
G01*
X6555000Y-10265000D02*
G75*
G03*
X6555000Y-10265000I-20000J0D01*
G01*
X6632500Y-11745000D02*
G75*
G03*
X6632500Y-11745000I-20000J0D01*
G01*
X6635000Y-11850000D02*
G75*
G03*
X6635000Y-11850000I-20000J0D01*
G01*
X6643750Y-11637500D02*
G75*
G03*
X6643750Y-11637500I-20000J0D01*
G01*
X6645000Y-11160000D02*
G75*
G03*
X6645000Y-11160000I-20000J0D01*
G01*
X6662500Y-11305050D02*
G75*
G03*
X6662500Y-11305050I-20000J0D01*
G01*
X6752500Y-11745000D02*
G75*
G03*
X6752500Y-11745000I-20000J0D01*
G01*
X6755000Y-11850000D02*
G75*
G03*
X6755000Y-11850000I-20000J0D01*
G01*
X6760000Y-11637500D02*
G75*
G03*
X6760000Y-11637500I-20000J0D01*
G01*
X6792000Y-9992000D02*
G75*
G03*
X6792000Y-9992000I-20000J0D01*
G01*
X6872500Y-11745000D02*
G75*
G03*
X6872500Y-11745000I-20000J0D01*
G01*
X6875000Y-11850000D02*
G75*
G03*
X6875000Y-11850000I-20000J0D01*
G01*
X6876250Y-11637500D02*
G75*
G03*
X6876250Y-11637500I-20000J0D01*
G01*
X6992500Y-11637500D02*
G75*
G03*
X6992500Y-11637500I-20000J0D01*
G01*
X7035000Y-8639000D02*
G75*
G03*
X7035000Y-8639000I-20000J0D01*
G01*
X7037000Y-9512000D02*
G75*
G03*
X7037000Y-9512000I-20000J0D01*
G01*
X7085000Y-10947500D02*
G75*
G03*
X7085000Y-10947500I-20000J0D01*
G01*
X7115000Y-12065000D02*
G75*
G03*
X7115000Y-12065000I-20000J0D01*
G01*
X7115000Y-12177500D02*
G75*
G03*
X7115000Y-12177500I-20000J0D01*
G01*
X7139000Y-10286000D02*
G75*
G03*
X7139000Y-10286000I-20000J0D01*
G01*
X7173000Y-9446000D02*
G75*
G03*
X7173000Y-9446000I-20000J0D01*
G01*
X7202500Y-13815000D02*
G75*
G03*
X7202500Y-13815000I-20000J0D01*
G01*
X7208000Y-15617000D02*
G75*
G03*
X7208000Y-15617000I-20000J0D01*
G01*
X7230000Y-15045000D02*
G75*
G03*
X7230000Y-15045000I-20000J0D01*
G01*
X7231667Y-15155000D02*
G75*
G03*
X7231667Y-15155000I-20000J0D01*
G01*
X7231667Y-15265000D02*
G75*
G03*
X7231667Y-15265000I-20000J0D01*
G01*
X7231667Y-15375000D02*
G75*
G03*
X7231667Y-15375000I-20000J0D01*
G01*
X7231667Y-15485000D02*
G75*
G03*
X7231667Y-15485000I-20000J0D01*
G01*
X7232500Y-12315000D02*
G75*
G03*
X7232500Y-12315000I-20000J0D01*
G01*
X7250000Y-11250000D02*
G75*
G03*
X7250000Y-11250000I-20000J0D01*
G01*
X7300000Y-10272550D02*
G75*
G03*
X7300000Y-10272550I-20000J0D01*
G01*
X7305000Y-12712500D02*
G75*
G03*
X7305000Y-12712500I-20000J0D01*
G01*
X7305000Y-12840000D02*
G75*
G03*
X7305000Y-12840000I-20000J0D01*
G01*
X7326000Y-9444000D02*
G75*
G03*
X7326000Y-9444000I-20000J0D01*
G01*
X7351667Y-15045000D02*
G75*
G03*
X7351667Y-15045000I-20000J0D01*
G01*
X7353333Y-15155000D02*
G75*
G03*
X7353333Y-15155000I-20000J0D01*
G01*
X7353333Y-15265000D02*
G75*
G03*
X7353333Y-15265000I-20000J0D01*
G01*
X7384000Y-9218000D02*
G75*
G03*
X7384000Y-9218000I-20000J0D01*
G01*
X7387500Y-12315000D02*
G75*
G03*
X7387500Y-12315000I-20000J0D01*
G01*
X7395000Y-12065000D02*
G75*
G03*
X7395000Y-12065000I-20000J0D01*
G01*
X7395000Y-12165000D02*
G75*
G03*
X7395000Y-12165000I-20000J0D01*
G01*
X7409000Y-10682000D02*
G75*
G03*
X7409000Y-10682000I-20000J0D01*
G01*
X7450000Y-16072500D02*
G75*
G03*
X7450000Y-16072500I-20000J0D01*
G01*
X7473333Y-15045000D02*
G75*
G03*
X7473333Y-15045000I-20000J0D01*
G01*
X7475000Y-15155000D02*
G75*
G03*
X7475000Y-15155000I-20000J0D01*
G01*
X7475000Y-15265000D02*
G75*
G03*
X7475000Y-15265000I-20000J0D01*
G01*
X7480000Y-12530000D02*
G75*
G03*
X7480000Y-12530000I-20000J0D01*
G01*
X7482500Y-12630000D02*
G75*
G03*
X7482500Y-12630000I-20000J0D01*
G01*
X7542500Y-12315000D02*
G75*
G03*
X7542500Y-12315000I-20000J0D01*
G01*
X7595000Y-14695000D02*
G75*
G03*
X7595000Y-14695000I-20000J0D01*
G01*
X7595000Y-15045000D02*
G75*
G03*
X7595000Y-15045000I-20000J0D01*
G01*
X7596667Y-15155000D02*
G75*
G03*
X7596667Y-15155000I-20000J0D01*
G01*
X7596667Y-15265000D02*
G75*
G03*
X7596667Y-15265000I-20000J0D01*
G01*
X7596667Y-15375000D02*
G75*
G03*
X7596667Y-15375000I-20000J0D01*
G01*
X7596667Y-15485000D02*
G75*
G03*
X7596667Y-15485000I-20000J0D01*
G01*
X7597500Y-12530000D02*
G75*
G03*
X7597500Y-12530000I-20000J0D01*
G01*
X7597500Y-12630000D02*
G75*
G03*
X7597500Y-12630000I-20000J0D01*
G01*
X7610000Y-16072500D02*
G75*
G03*
X7610000Y-16072500I-20000J0D01*
G01*
X7625000Y-15620000D02*
G75*
G03*
X7625000Y-15620000I-20000J0D01*
G01*
X7630000Y-13530000D02*
G75*
G03*
X7630000Y-13530000I-20000J0D01*
G01*
X7697500Y-12315000D02*
G75*
G03*
X7697500Y-12315000I-20000J0D01*
G01*
X7709000Y-15552000D02*
G75*
G03*
X7709000Y-15552000I-20000J0D01*
G01*
X7712500Y-12530000D02*
G75*
G03*
X7712500Y-12530000I-20000J0D01*
G01*
X7715000Y-12630000D02*
G75*
G03*
X7715000Y-12630000I-20000J0D01*
G01*
X7715000Y-15206667D02*
G75*
G03*
X7715000Y-15206667I-20000J0D01*
G01*
X7715000Y-15328333D02*
G75*
G03*
X7715000Y-15328333I-20000J0D01*
G01*
X7715000Y-15450000D02*
G75*
G03*
X7715000Y-15450000I-20000J0D01*
G01*
X7760000Y-13790000D02*
G75*
G03*
X7760000Y-13790000I-20000J0D01*
G01*
X7770000Y-16072500D02*
G75*
G03*
X7770000Y-16072500I-20000J0D01*
G01*
X7782500Y-11147500D02*
G75*
G03*
X7782500Y-11147500I-20000J0D01*
G01*
X7825000Y-12530000D02*
G75*
G03*
X7825000Y-12530000I-20000J0D01*
G01*
X7825000Y-12632500D02*
G75*
G03*
X7825000Y-12632500I-20000J0D01*
G01*
X7852500Y-12315000D02*
G75*
G03*
X7852500Y-12315000I-20000J0D01*
G01*
X7930000Y-13790000D02*
G75*
G03*
X7930000Y-13790000I-20000J0D01*
G01*
X7940000Y-12530000D02*
G75*
G03*
X7940000Y-12530000I-20000J0D01*
G01*
X7942500Y-12635000D02*
G75*
G03*
X7942500Y-12635000I-20000J0D01*
G01*
X8080000Y-13790000D02*
G75*
G03*
X8080000Y-13790000I-20000J0D01*
G01*
X8191000Y-13212000D02*
G75*
G03*
X8191000Y-13212000I-20000J0D01*
G01*
X8222500Y-12685000D02*
G75*
G03*
X8222500Y-12685000I-20000J0D01*
G01*
X8230000Y-15285000D02*
G75*
G03*
X8230000Y-15285000I-20000J0D01*
G01*
X8240000Y-13790000D02*
G75*
G03*
X8240000Y-13790000I-20000J0D01*
G01*
X8294333Y-13212000D02*
G75*
G03*
X8294333Y-13212000I-20000J0D01*
G01*
X8300000Y-14395000D02*
G75*
G03*
X8300000Y-14395000I-20000J0D01*
G01*
X8370000Y-15095000D02*
G75*
G03*
X8370000Y-15095000I-20000J0D01*
G01*
X8397667Y-13212000D02*
G75*
G03*
X8397667Y-13212000I-20000J0D01*
G01*
X8435000Y-13800000D02*
G75*
G03*
X8435000Y-13800000I-20000J0D01*
G01*
X8450000Y-14395000D02*
G75*
G03*
X8450000Y-14395000I-20000J0D01*
G01*
X8501000Y-13212000D02*
G75*
G03*
X8501000Y-13212000I-20000J0D01*
G01*
X8565000Y-13800000D02*
G75*
G03*
X8565000Y-13800000I-20000J0D01*
G01*
X8565000Y-13890000D02*
G75*
G03*
X8565000Y-13890000I-20000J0D01*
G01*
X8577500Y-14347500D02*
G75*
G03*
X8577500Y-14347500I-20000J0D01*
G01*
X8662500Y-14262500D02*
G75*
G03*
X8662500Y-14262500I-20000J0D01*
G01*
X8676160Y-15096792D02*
G75*
G03*
X8676160Y-15096792I-20000J0D01*
G01*
X8700000Y-13800000D02*
G75*
G03*
X8700000Y-13800000I-20000J0D01*
G01*
X8790000Y-10680000D02*
G75*
G03*
X8790000Y-10680000I-20000J0D01*
G01*
X8835000Y-13800000D02*
G75*
G03*
X8835000Y-13800000I-20000J0D01*
G01*
X8867500Y-15230000D02*
G75*
G03*
X8867500Y-15230000I-20000J0D01*
G01*
X8975000Y-11937500D02*
G75*
G03*
X8975000Y-11937500I-20000J0D01*
G01*
X8975000Y-13800000D02*
G75*
G03*
X8975000Y-13800000I-20000J0D01*
G01*
X9330000Y-11137500D02*
G75*
G03*
X9330000Y-11137500I-20000J0D01*
G01*
X9620000Y-15610000D02*
G75*
G03*
X9620000Y-15610000I-20000J0D01*
G01*
X10275000Y-8940000D02*
G75*
G03*
X10275000Y-8940000I-20000J0D01*
G01*
X12220000Y-13175000D02*
G75*
G03*
X12220000Y-13175000I-20000J0D01*
G01*
X12477000Y-12856000D02*
G75*
G03*
X12477000Y-12856000I-20000J0D01*
G01*
X8120000Y-15509000D02*
X8120000Y-15549000D01*
X8100000Y-15529000D02*
X8140000Y-15529000D01*
X8160000Y-15579000D02*
X8160000Y-15619000D01*
X8140000Y-15599000D02*
X8180000Y-15599000D01*
X8240000Y-15579000D02*
X8240000Y-15619000D01*
X8220000Y-15599000D02*
X8260000Y-15599000D01*
X8280000Y-15509000D02*
X8280000Y-15549000D01*
X8260000Y-15529000D02*
X8300000Y-15529000D01*
X8320000Y-15579000D02*
X8320000Y-15619000D01*
X8300000Y-15599000D02*
X8340000Y-15599000D01*
X8360000Y-15509000D02*
X8360000Y-15549000D01*
X8340000Y-15529000D02*
X8380000Y-15529000D01*
X8440000Y-15509000D02*
X8440000Y-15549000D01*
X8420000Y-15529000D02*
X8460000Y-15529000D01*
X8480000Y-15579000D02*
X8480000Y-15619000D01*
X8460000Y-15599000D02*
X8500000Y-15599000D01*
X8520000Y-15509000D02*
X8520000Y-15549000D01*
X8500000Y-15529000D02*
X8540000Y-15529000D01*
X8560000Y-15579000D02*
X8560000Y-15619000D01*
X8540000Y-15599000D02*
X8580000Y-15599000D01*
X8640000Y-15579000D02*
X8640000Y-15619000D01*
X8620000Y-15599000D02*
X8660000Y-15599000D01*
X8680000Y-15509000D02*
X8680000Y-15549000D01*
X8660000Y-15529000D02*
X8700000Y-15529000D01*
D13*
X7968678Y-16201678D02*
X7968678Y-16166322D01*
X7933322Y-16166322D01*
X7933322Y-16201678D01*
X7968678Y-16201678D01*
D10*
X7926000Y-16154000D02*
X7926000Y-16214000D01*
X7976000Y-16154000D02*
X7976000Y-16214000D01*
X7926000Y-16214000D02*
G75*
G03*
X7976000Y-16214000I25000J0D01*
G01*
X7976000Y-16154000D02*
G75*
G03*
X7926000Y-16154000I-25000J0D01*
G01*
D13*
X8004678Y-15606678D02*
X8004678Y-15571322D01*
X7969322Y-15571322D01*
X7969322Y-15606678D01*
X8004678Y-15606678D01*
D10*
X7962000Y-15559000D02*
X7962000Y-15619000D01*
X8012000Y-15559000D02*
X8012000Y-15619000D01*
X7962000Y-15619000D02*
G75*
G03*
X8012000Y-15619000I25000J0D01*
G01*
X8012000Y-15559000D02*
G75*
G03*
X7962000Y-15559000I-25000J0D01*
G01*
D13*
X8830678Y-15606678D02*
X8830678Y-15571322D01*
X8795322Y-15571322D01*
X8795322Y-15606678D01*
X8830678Y-15606678D01*
D10*
X8788000Y-15559000D02*
X8788000Y-15619000D01*
X8838000Y-15559000D02*
X8838000Y-15619000D01*
X8788000Y-15619000D02*
G75*
G03*
X8838000Y-15619000I25000J0D01*
G01*
X8838000Y-15559000D02*
G75*
G03*
X8788000Y-15559000I-25000J0D01*
G01*
D13*
X8866678Y-16201678D02*
X8866678Y-16166322D01*
X8831322Y-16166322D01*
X8831322Y-16201678D01*
X8866678Y-16201678D01*
D10*
X8824000Y-16154000D02*
X8824000Y-16214000D01*
X8874000Y-16154000D02*
X8874000Y-16214000D01*
X8824000Y-16214000D02*
G75*
G03*
X8874000Y-16214000I25000J0D01*
G01*
X8874000Y-16154000D02*
G75*
G03*
X8824000Y-16154000I-25000J0D01*
G01*
D14*
X4490000Y-12720000D02*
X4525000Y-12685000D01*
X4490000Y-12650000D01*
X4455000Y-12685000D01*
X4490000Y-12720000D01*
X7077500Y-11840000D02*
X7112500Y-11805000D01*
X7077500Y-11770000D01*
X7042500Y-11805000D01*
X7077500Y-11840000D01*
X7392000Y-15465000D02*
X7427000Y-15430000D01*
X7392000Y-15395000D01*
X7357000Y-15430000D01*
X7392000Y-15465000D01*
X7607000Y-10729000D02*
X7642000Y-10694000D01*
X7607000Y-10659000D01*
X7572000Y-10694000D01*
X7607000Y-10729000D01*
X8293000Y-12375000D02*
X8328000Y-12340000D01*
X8293000Y-12305000D01*
X8258000Y-12340000D01*
X8293000Y-12375000D01*
X8370000Y-14720000D02*
X8405000Y-14685000D01*
X8370000Y-14650000D01*
X8335000Y-14685000D01*
X8370000Y-14720000D01*
X9725000Y-16000000D02*
X9760000Y-15965000D01*
X9725000Y-15930000D01*
X9690000Y-15965000D01*
X9725000Y-16000000D01*
D15*
X8752500Y-12677500D02*
X8827500Y-12752500D01*
X8827500Y-12677500D02*
X8752500Y-12752500D01*
X8827500Y-12715000D02*
G75*
G03*
X8827500Y-12715000I-37500J0D01*
G01*
X8752500Y-12804500D02*
X8827500Y-12879500D01*
X8827500Y-12804500D02*
X8752500Y-12879500D01*
X8827500Y-12842000D02*
G75*
G03*
X8827500Y-12842000I-37500J0D01*
G01*
X8752500Y-12931500D02*
X8827500Y-13006500D01*
X8827500Y-12931500D02*
X8752500Y-13006500D01*
X8827500Y-12969000D02*
G75*
G03*
X8827500Y-12969000I-37500J0D01*
G01*
D16*
X5634747Y-15230435D02*
X5714747Y-15310435D01*
X5714747Y-15230435D02*
X5634747Y-15310435D01*
X5674747Y-15230435D02*
X5674747Y-15310435D01*
X5634747Y-15270435D02*
X5714747Y-15270435D01*
X5802481Y-15339363D02*
X5882481Y-15419363D01*
X5882481Y-15339363D02*
X5802481Y-15419363D01*
X5842481Y-15339363D02*
X5842481Y-15419363D01*
X5802481Y-15379363D02*
X5882481Y-15379363D01*
X5970215Y-15448291D02*
X6050215Y-15528291D01*
X6050215Y-15448291D02*
X5970215Y-15528291D01*
X6010215Y-15448291D02*
X6010215Y-15528291D01*
X5970215Y-15488291D02*
X6050215Y-15488291D01*
D17*
X8227500Y-7101039D02*
X8317500Y-7191039D01*
X8317500Y-7101039D02*
X8227500Y-7191039D01*
X8304320Y-7177859D02*
X8304320Y-7114219D01*
X8240680Y-7114219D01*
X8240680Y-7177859D01*
X8304320Y-7177859D01*
X8481500Y-7101039D02*
X8571500Y-7191039D01*
X8571500Y-7101039D02*
X8481500Y-7191039D01*
X8558320Y-7177859D02*
X8558320Y-7114219D01*
X8494680Y-7114219D01*
X8494680Y-7177859D01*
X8558320Y-7177859D01*
X10795000Y-8025000D02*
X10885000Y-8115000D01*
X10885000Y-8025000D02*
X10795000Y-8115000D01*
X10871820Y-8101820D02*
X10871820Y-8038180D01*
X10808180Y-8038180D01*
X10808180Y-8101820D01*
X10871820Y-8101820D01*
X11029164Y-8022542D02*
X11119164Y-8112542D01*
X11119164Y-8022542D02*
X11029164Y-8112542D01*
X11105984Y-8099363D02*
X11105984Y-8035722D01*
X11042343Y-8035722D01*
X11042343Y-8099363D01*
X11105984Y-8099363D01*
X11047948Y-8237248D02*
X11137948Y-8327248D01*
X11137948Y-8237248D02*
X11047948Y-8327248D01*
X11124768Y-8314069D02*
X11124768Y-8250428D01*
X11061128Y-8250428D01*
X11061128Y-8314069D01*
X11124768Y-8314069D01*
X11262654Y-8218464D02*
X11352654Y-8308464D01*
X11352654Y-8218464D02*
X11262654Y-8308464D01*
X11339474Y-8295284D02*
X11339474Y-8231644D01*
X11275834Y-8231644D01*
X11275834Y-8295284D01*
X11339474Y-8295284D01*
X12605000Y-11225000D02*
X12695000Y-11315000D01*
X12695000Y-11225000D02*
X12605000Y-11315000D01*
X12681820Y-11301820D02*
X12681820Y-11238180D01*
X12618180Y-11238180D01*
X12618180Y-11301820D01*
X12681820Y-11301820D01*
X12605000Y-11479000D02*
X12695000Y-11569000D01*
X12695000Y-11479000D02*
X12605000Y-11569000D01*
X12681820Y-11555820D02*
X12681820Y-11492180D01*
X12618180Y-11492180D01*
X12618180Y-11555820D01*
X12681820Y-11555820D01*
D18*
X3650500Y-11123000D02*
X3749500Y-11222000D01*
X3749500Y-11123000D02*
X3650500Y-11222000D01*
X3700000Y-11222000D02*
X3749500Y-11172500D01*
X3700000Y-11123000D01*
X3650500Y-11172500D01*
X3700000Y-11222000D01*
X3650500Y-11573000D02*
X3749500Y-11672000D01*
X3749500Y-11573000D02*
X3650500Y-11672000D01*
X3700000Y-11672000D02*
X3749500Y-11622500D01*
X3700000Y-11573000D01*
X3650500Y-11622500D01*
X3700000Y-11672000D01*
X3749632Y-12249716D02*
X3848632Y-12348716D01*
X3848632Y-12249716D02*
X3749632Y-12348716D01*
X3799132Y-12348716D02*
X3848632Y-12299216D01*
X3799132Y-12249716D01*
X3749632Y-12299216D01*
X3799132Y-12348716D01*
X3750237Y-10445649D02*
X3849237Y-10544649D01*
X3849237Y-10445649D02*
X3750237Y-10544649D01*
X3799737Y-10544649D02*
X3849237Y-10495149D01*
X3799737Y-10445649D01*
X3750237Y-10495149D01*
X3799737Y-10544649D01*
X3858497Y-12686349D02*
X3957497Y-12785349D01*
X3957497Y-12686349D02*
X3858497Y-12785349D01*
X3907997Y-12785349D02*
X3957497Y-12735849D01*
X3907997Y-12686349D01*
X3858497Y-12735849D01*
X3907997Y-12785349D01*
X3859102Y-10009016D02*
X3958102Y-10108016D01*
X3958102Y-10009016D02*
X3859102Y-10108016D01*
X3908602Y-10108016D02*
X3958102Y-10058516D01*
X3908602Y-10009016D01*
X3859102Y-10058516D01*
X3908602Y-10108016D01*
X10209792Y-7028612D02*
X10308792Y-7127612D01*
X10308792Y-7028612D02*
X10209792Y-7127612D01*
X10259292Y-7127612D02*
X10308792Y-7078112D01*
X10259292Y-7028612D01*
X10209792Y-7078112D01*
X10259292Y-7127612D01*
X10614249Y-7225879D02*
X10713249Y-7324879D01*
X10713249Y-7225879D02*
X10614249Y-7324879D01*
X10663749Y-7324879D02*
X10713249Y-7275379D01*
X10663749Y-7225879D01*
X10614249Y-7275379D01*
X10663749Y-7324879D01*
X11992673Y-8365720D02*
X12091673Y-8464720D01*
X12091673Y-8365720D02*
X11992673Y-8464720D01*
X12042173Y-8464720D02*
X12091673Y-8415220D01*
X12042173Y-8365720D01*
X11992673Y-8415220D01*
X12042173Y-8464720D01*
X12257177Y-8729777D02*
X12356177Y-8828777D01*
X12356177Y-8729777D02*
X12257177Y-8828777D01*
X12306677Y-8828777D02*
X12356177Y-8779277D01*
X12306677Y-8729777D01*
X12257177Y-8779277D01*
X12306677Y-8828777D01*
X12841898Y-12691201D02*
X12940898Y-12790201D01*
X12940898Y-12691201D02*
X12841898Y-12790201D01*
X12891398Y-12790201D02*
X12940898Y-12740701D01*
X12891398Y-12691201D01*
X12841898Y-12740701D01*
X12891398Y-12790201D01*
X12950763Y-12254568D02*
X13049763Y-12353568D01*
X13049763Y-12254568D02*
X12950763Y-12353568D01*
X13000263Y-12353568D02*
X13049763Y-12304068D01*
X13000263Y-12254568D01*
X12950763Y-12304068D01*
X13000263Y-12353568D01*
D19*
X5020000Y-11700000D02*
X5020000Y-11800000D01*
X4970000Y-11750000D02*
X5070000Y-11750000D01*
X5070000Y-11750000D02*
G75*
G03*
X5070000Y-11750000I-50000J0D01*
G01*
X5020000Y-12200000D02*
X5020000Y-12300000D01*
X4970000Y-12250000D02*
X5070000Y-12250000D01*
X5070000Y-12250000D02*
G75*
G03*
X5070000Y-12250000I-50000J0D01*
G01*
X9243500Y-9493500D02*
X9243500Y-9593500D01*
X9193500Y-9543500D02*
X9293500Y-9543500D01*
X9293500Y-9543500D02*
G75*
G03*
X9293500Y-9543500I-50000J0D01*
G01*
X9243500Y-9747500D02*
X9243500Y-9847500D01*
X9193500Y-9797500D02*
X9293500Y-9797500D01*
X9293500Y-9797500D02*
G75*
G03*
X9293500Y-9797500I-50000J0D01*
G01*
X9497500Y-9493500D02*
X9497500Y-9593500D01*
X9447500Y-9543500D02*
X9547500Y-9543500D01*
X9547500Y-9543500D02*
G75*
G03*
X9547500Y-9543500I-50000J0D01*
G01*
X9497500Y-9747500D02*
X9497500Y-9847500D01*
X9447500Y-9797500D02*
X9547500Y-9797500D01*
X9547500Y-9797500D02*
G75*
G03*
X9547500Y-9797500I-50000J0D01*
G01*
X10918750Y-11392500D02*
X10918750Y-11492500D01*
X10868750Y-11442500D02*
X10968750Y-11442500D01*
X10968750Y-11442500D02*
G75*
G03*
X10968750Y-11442500I-50000J0D01*
G01*
X11168750Y-11392500D02*
X11168750Y-11492500D01*
X11118750Y-11442500D02*
X11218750Y-11442500D01*
X11218750Y-11442500D02*
G75*
G03*
X11218750Y-11442500I-50000J0D01*
G01*
X11418750Y-11392500D02*
X11418750Y-11492500D01*
X11368750Y-11442500D02*
X11468750Y-11442500D01*
X11468750Y-11442500D02*
G75*
G03*
X11468750Y-11442500I-50000J0D01*
G01*
X11668750Y-11392500D02*
X11668750Y-11492500D01*
X11618750Y-11442500D02*
X11718750Y-11442500D01*
X11718750Y-11442500D02*
G75*
G03*
X11718750Y-11442500I-50000J0D01*
G01*
X11918750Y-11392500D02*
X11918750Y-11492500D01*
X11868750Y-11442500D02*
X11968750Y-11442500D01*
X11968750Y-11442500D02*
G75*
G03*
X11968750Y-11442500I-50000J0D01*
G01*
X12168750Y-11392500D02*
X12168750Y-11492500D01*
X12118750Y-11442500D02*
X12218750Y-11442500D01*
X12218750Y-11442500D02*
G75*
G03*
X12218750Y-11442500I-50000J0D01*
G01*
D20*
X3994962Y-11093462D02*
X3994962Y-11001538D01*
X3903038Y-11001538D01*
X3903038Y-11093462D01*
X3994962Y-11093462D01*
X4014000Y-11047500D02*
G75*
G03*
X4014000Y-11047500I-65000J0D01*
G01*
X3994962Y-11794462D02*
X3994962Y-11702538D01*
X3903038Y-11702538D01*
X3903038Y-11794462D01*
X3994962Y-11794462D01*
X4014000Y-11748500D02*
G75*
G03*
X4014000Y-11748500I-65000J0D01*
G01*
X4056458Y-12163653D02*
X4056458Y-12071728D01*
X3964533Y-12071728D01*
X3964533Y-12163653D01*
X4056458Y-12163653D01*
X4075496Y-12117691D02*
G75*
G03*
X4075496Y-12117691I-65000J0D01*
G01*
X4056821Y-10723607D02*
X4056821Y-10631682D01*
X3964896Y-10631682D01*
X3964896Y-10723607D01*
X4056821Y-10723607D01*
X4075858Y-10677644D02*
G75*
G03*
X4075858Y-10677644I-65000J0D01*
G01*
X4226045Y-12843830D02*
X4226045Y-12751906D01*
X4134120Y-12751906D01*
X4134120Y-12843830D01*
X4226045Y-12843830D01*
X4245083Y-12797868D02*
G75*
G03*
X4245083Y-12797868I-65000J0D01*
G01*
X4226408Y-10043430D02*
X4226408Y-9951505D01*
X4134483Y-9951505D01*
X4134483Y-10043430D01*
X4226408Y-10043430D01*
X4245446Y-9997467D02*
G75*
G03*
X4245446Y-9997467I-65000J0D01*
G01*
X10082852Y-7292639D02*
X10082852Y-7200714D01*
X9990927Y-7200714D01*
X9990927Y-7292639D01*
X10082852Y-7292639D01*
X10101889Y-7246677D02*
G75*
G03*
X10101889Y-7246677I-65000J0D01*
G01*
X10712906Y-7599937D02*
X10712906Y-7508013D01*
X10620982Y-7508013D01*
X10620982Y-7599937D01*
X10712906Y-7599937D01*
X10731944Y-7553975D02*
G75*
G03*
X10731944Y-7553975I-65000J0D01*
G01*
X11812629Y-8505605D02*
X11812629Y-8413680D01*
X11720705Y-8413680D01*
X11720705Y-8505605D01*
X11812629Y-8505605D01*
X11831667Y-8459642D02*
G75*
G03*
X11831667Y-8459642I-65000J0D01*
G01*
X12224667Y-9072726D02*
X12224667Y-8980801D01*
X12132742Y-8980801D01*
X12132742Y-9072726D01*
X12224667Y-9072726D01*
X12243704Y-9026763D02*
G75*
G03*
X12243704Y-9026763I-65000J0D01*
G01*
X12665517Y-12847712D02*
X12665517Y-12755787D01*
X12573592Y-12755787D01*
X12573592Y-12847712D01*
X12665517Y-12847712D01*
X12684554Y-12801749D02*
G75*
G03*
X12684554Y-12801749I-65000J0D01*
G01*
X12835104Y-12167534D02*
X12835104Y-12075609D01*
X12743179Y-12075609D01*
X12743179Y-12167534D01*
X12835104Y-12167534D01*
X12854142Y-12121572D02*
G75*
G03*
X12854142Y-12121572I-65000J0D01*
G01*
D10*
X3647427Y-16718011D02*
X3647427Y-16518011D01*
X3695046Y-16518011D01*
X3723617Y-16527535D01*
X3742665Y-16546583D01*
X3752189Y-16565630D01*
X3761713Y-16603725D01*
X3761713Y-16632297D01*
X3752189Y-16670392D01*
X3742665Y-16689440D01*
X3723617Y-16708487D01*
X3695046Y-16718011D01*
X3647427Y-16718011D01*
X3847427Y-16718011D02*
X3847427Y-16584678D01*
X3847427Y-16622773D02*
X3856951Y-16603725D01*
X3866475Y-16594202D01*
X3885522Y-16584678D01*
X3904570Y-16584678D01*
X3971236Y-16718011D02*
X3971236Y-16584678D01*
X3971236Y-16518011D02*
X3961713Y-16527535D01*
X3971236Y-16537059D01*
X3980760Y-16527535D01*
X3971236Y-16518011D01*
X3971236Y-16537059D01*
X4095046Y-16718011D02*
X4075998Y-16708487D01*
X4066475Y-16689440D01*
X4066475Y-16518011D01*
X4199808Y-16718011D02*
X4180760Y-16708487D01*
X4171236Y-16689440D01*
X4171236Y-16518011D01*
X4428379Y-16718011D02*
X4428379Y-16518011D01*
X4495046Y-16660868D01*
X4561713Y-16518011D01*
X4561713Y-16718011D01*
X4742665Y-16718011D02*
X4742665Y-16613249D01*
X4733141Y-16594202D01*
X4714094Y-16584678D01*
X4675998Y-16584678D01*
X4656951Y-16594202D01*
X4742665Y-16708487D02*
X4723618Y-16718011D01*
X4675998Y-16718011D01*
X4656951Y-16708487D01*
X4647427Y-16689440D01*
X4647427Y-16670392D01*
X4656951Y-16651344D01*
X4675998Y-16641821D01*
X4723618Y-16641821D01*
X4742665Y-16632297D01*
X4837903Y-16584678D02*
X4837903Y-16784678D01*
X4837903Y-16594202D02*
X4856951Y-16584678D01*
X4895046Y-16584678D01*
X4914094Y-16594202D01*
X4923618Y-16603725D01*
X4933141Y-16622773D01*
X4933141Y-16679916D01*
X4923618Y-16698963D01*
X4914094Y-16708487D01*
X4895046Y-16718011D01*
X4856951Y-16718011D01*
X4837903Y-16708487D01*
X5018856Y-16698963D02*
X5028379Y-16708487D01*
X5018856Y-16718011D01*
X5009332Y-16708487D01*
X5018856Y-16698963D01*
X5018856Y-16718011D01*
X5018856Y-16594202D02*
X5028379Y-16603725D01*
X5018856Y-16613249D01*
X5009332Y-16603725D01*
X5018856Y-16594202D01*
X5018856Y-16613249D01*
D11*
X3369808Y-17037535D02*
X3389808Y-17057535D01*
X3389808Y-17037535D02*
X3369808Y-17057535D01*
D10*
X3685522Y-16938011D02*
X3704570Y-16938011D01*
X3723617Y-16947535D01*
X3733141Y-16957059D01*
X3742665Y-16976106D01*
X3752189Y-17014202D01*
X3752189Y-17061821D01*
X3742665Y-17099916D01*
X3733141Y-17118964D01*
X3723617Y-17128487D01*
X3704570Y-17138011D01*
X3685522Y-17138011D01*
X3666475Y-17128487D01*
X3656951Y-17118964D01*
X3647427Y-17099916D01*
X3637903Y-17061821D01*
X3637903Y-17014202D01*
X3647427Y-16976106D01*
X3656951Y-16957059D01*
X3666475Y-16947535D01*
X3685522Y-16938011D01*
X3837903Y-17118964D02*
X3847427Y-17128487D01*
X3837903Y-17138011D01*
X3828379Y-17128487D01*
X3837903Y-17118964D01*
X3837903Y-17138011D01*
X3923617Y-16957059D02*
X3933141Y-16947535D01*
X3952189Y-16938011D01*
X3999808Y-16938011D01*
X4018856Y-16947535D01*
X4028379Y-16957059D01*
X4037903Y-16976106D01*
X4037903Y-16995154D01*
X4028379Y-17023725D01*
X3914094Y-17138011D01*
X4037903Y-17138011D01*
X4161713Y-16938011D02*
X4180760Y-16938011D01*
X4199808Y-16947535D01*
X4209332Y-16957059D01*
X4218856Y-16976106D01*
X4228379Y-17014202D01*
X4228379Y-17061821D01*
X4218856Y-17099916D01*
X4209332Y-17118964D01*
X4199808Y-17128487D01*
X4180760Y-17138011D01*
X4161713Y-17138011D01*
X4142665Y-17128487D01*
X4133141Y-17118964D01*
X4123617Y-17099916D01*
X4114094Y-17061821D01*
X4114094Y-17014202D01*
X4123617Y-16976106D01*
X4133141Y-16957059D01*
X4142665Y-16947535D01*
X4161713Y-16938011D01*
X4352189Y-16938011D02*
X4371237Y-16938011D01*
X4390284Y-16947535D01*
X4399808Y-16957059D01*
X4409332Y-16976106D01*
X4418856Y-17014202D01*
X4418856Y-17061821D01*
X4409332Y-17099916D01*
X4399808Y-17118964D01*
X4390284Y-17128487D01*
X4371237Y-17138011D01*
X4352189Y-17138011D01*
X4333141Y-17128487D01*
X4323618Y-17118964D01*
X4314094Y-17099916D01*
X4304570Y-17061821D01*
X4304570Y-17014202D01*
X4314094Y-16976106D01*
X4323618Y-16957059D01*
X4333141Y-16947535D01*
X4352189Y-16938011D01*
X4504570Y-17138011D02*
X4504570Y-17004678D01*
X4504570Y-17023725D02*
X4514094Y-17014202D01*
X4533141Y-17004678D01*
X4561713Y-17004678D01*
X4580760Y-17014202D01*
X4590284Y-17033249D01*
X4590284Y-17138011D01*
X4590284Y-17033249D02*
X4599808Y-17014202D01*
X4618856Y-17004678D01*
X4647427Y-17004678D01*
X4666475Y-17014202D01*
X4675998Y-17033249D01*
X4675998Y-17138011D01*
X4771237Y-17138011D02*
X4771237Y-17004678D01*
X4771237Y-17023725D02*
X4780760Y-17014202D01*
X4799808Y-17004678D01*
X4828379Y-17004678D01*
X4847427Y-17014202D01*
X4856951Y-17033249D01*
X4856951Y-17138011D01*
X4856951Y-17033249D02*
X4866475Y-17014202D01*
X4885522Y-17004678D01*
X4914094Y-17004678D01*
X4933141Y-17014202D01*
X4942665Y-17033249D01*
X4942665Y-17138011D01*
X5333141Y-16928487D02*
X5161713Y-17185630D01*
X5590284Y-16938011D02*
X5609332Y-16938011D01*
X5628379Y-16947535D01*
X5637903Y-16957059D01*
X5647427Y-16976106D01*
X5656951Y-17014202D01*
X5656951Y-17061821D01*
X5647427Y-17099916D01*
X5637903Y-17118964D01*
X5628379Y-17128487D01*
X5609332Y-17138011D01*
X5590284Y-17138011D01*
X5571237Y-17128487D01*
X5561713Y-17118964D01*
X5552189Y-17099916D01*
X5542665Y-17061821D01*
X5542665Y-17014202D01*
X5552189Y-16976106D01*
X5561713Y-16957059D01*
X5571237Y-16947535D01*
X5590284Y-16938011D01*
X5742665Y-17118964D02*
X5752189Y-17128487D01*
X5742665Y-17138011D01*
X5733141Y-17128487D01*
X5742665Y-17118964D01*
X5742665Y-17138011D01*
X5875998Y-16938011D02*
X5895046Y-16938011D01*
X5914094Y-16947535D01*
X5923617Y-16957059D01*
X5933141Y-16976106D01*
X5942665Y-17014202D01*
X5942665Y-17061821D01*
X5933141Y-17099916D01*
X5923617Y-17118964D01*
X5914094Y-17128487D01*
X5895046Y-17138011D01*
X5875998Y-17138011D01*
X5856951Y-17128487D01*
X5847427Y-17118964D01*
X5837903Y-17099916D01*
X5828379Y-17061821D01*
X5828379Y-17014202D01*
X5837903Y-16976106D01*
X5847427Y-16957059D01*
X5856951Y-16947535D01*
X5875998Y-16938011D01*
X6066475Y-16938011D02*
X6085522Y-16938011D01*
X6104570Y-16947535D01*
X6114094Y-16957059D01*
X6123617Y-16976106D01*
X6133141Y-17014202D01*
X6133141Y-17061821D01*
X6123617Y-17099916D01*
X6114094Y-17118964D01*
X6104570Y-17128487D01*
X6085522Y-17138011D01*
X6066475Y-17138011D01*
X6047427Y-17128487D01*
X6037903Y-17118964D01*
X6028379Y-17099916D01*
X6018856Y-17061821D01*
X6018856Y-17014202D01*
X6028379Y-16976106D01*
X6037903Y-16957059D01*
X6047427Y-16947535D01*
X6066475Y-16938011D01*
X6199808Y-16938011D02*
X6333141Y-16938011D01*
X6247427Y-17138011D01*
X6418856Y-17138011D02*
X6456951Y-17138011D01*
X6475998Y-17128487D01*
X6485522Y-17118964D01*
X6504570Y-17090392D01*
X6514094Y-17052297D01*
X6514094Y-16976106D01*
X6504570Y-16957059D01*
X6495046Y-16947535D01*
X6475998Y-16938011D01*
X6437903Y-16938011D01*
X6418856Y-16947535D01*
X6409332Y-16957059D01*
X6399808Y-16976106D01*
X6399808Y-17023725D01*
X6409332Y-17042773D01*
X6418856Y-17052297D01*
X6437903Y-17061821D01*
X6475998Y-17061821D01*
X6495046Y-17052297D01*
X6504570Y-17042773D01*
X6514094Y-17023725D01*
X6590284Y-16938011D02*
X6590284Y-16976106D01*
X6666475Y-16938011D02*
X6666475Y-16976106D01*
X6961713Y-17214202D02*
X6952189Y-17204678D01*
X6933141Y-17176106D01*
X6923617Y-17157059D01*
X6914094Y-17128487D01*
X6904570Y-17080868D01*
X6904570Y-17042773D01*
X6914094Y-16995154D01*
X6923617Y-16966583D01*
X6933141Y-16947535D01*
X6952189Y-16918964D01*
X6961713Y-16909440D01*
X7123617Y-16938011D02*
X7085522Y-16938011D01*
X7066475Y-16947535D01*
X7056951Y-16957059D01*
X7037903Y-16985630D01*
X7028379Y-17023725D01*
X7028379Y-17099916D01*
X7037903Y-17118964D01*
X7047427Y-17128487D01*
X7066475Y-17138011D01*
X7104570Y-17138011D01*
X7123617Y-17128487D01*
X7133141Y-17118964D01*
X7142665Y-17099916D01*
X7142665Y-17052297D01*
X7133141Y-17033249D01*
X7123617Y-17023725D01*
X7104570Y-17014202D01*
X7066475Y-17014202D01*
X7047427Y-17023725D01*
X7037903Y-17033249D01*
X7028379Y-17052297D01*
X7218856Y-16957059D02*
X7228379Y-16947535D01*
X7247427Y-16938011D01*
X7295046Y-16938011D01*
X7314094Y-16947535D01*
X7323617Y-16957059D01*
X7333141Y-16976106D01*
X7333141Y-16995154D01*
X7323617Y-17023725D01*
X7209332Y-17138011D01*
X7333141Y-17138011D01*
X7456951Y-16938011D02*
X7475998Y-16938011D01*
X7495046Y-16947535D01*
X7504570Y-16957059D01*
X7514094Y-16976106D01*
X7523617Y-17014202D01*
X7523617Y-17061821D01*
X7514094Y-17099916D01*
X7504570Y-17118964D01*
X7495046Y-17128487D01*
X7475998Y-17138011D01*
X7456951Y-17138011D01*
X7437903Y-17128487D01*
X7428379Y-17118964D01*
X7418856Y-17099916D01*
X7409332Y-17061821D01*
X7409332Y-17014202D01*
X7418856Y-16976106D01*
X7428379Y-16957059D01*
X7437903Y-16947535D01*
X7456951Y-16938011D01*
X7761713Y-17138011D02*
X7761713Y-16938011D01*
X7847427Y-17138011D02*
X7847427Y-17033249D01*
X7837903Y-17014202D01*
X7818856Y-17004678D01*
X7790284Y-17004678D01*
X7771236Y-17014202D01*
X7761713Y-17023725D01*
X7971236Y-17138011D02*
X7952189Y-17128487D01*
X7942665Y-17118964D01*
X7933141Y-17099916D01*
X7933141Y-17042773D01*
X7942665Y-17023725D01*
X7952189Y-17014202D01*
X7971236Y-17004678D01*
X7999808Y-17004678D01*
X8018856Y-17014202D01*
X8028379Y-17023725D01*
X8037903Y-17042773D01*
X8037903Y-17099916D01*
X8028379Y-17118964D01*
X8018856Y-17128487D01*
X7999808Y-17138011D01*
X7971236Y-17138011D01*
X8152189Y-17138011D02*
X8133141Y-17128487D01*
X8123617Y-17109440D01*
X8123617Y-16938011D01*
X8304570Y-17128487D02*
X8285522Y-17138011D01*
X8247427Y-17138011D01*
X8228379Y-17128487D01*
X8218856Y-17109440D01*
X8218856Y-17033249D01*
X8228379Y-17014202D01*
X8247427Y-17004678D01*
X8285522Y-17004678D01*
X8304570Y-17014202D01*
X8314094Y-17033249D01*
X8314094Y-17052297D01*
X8218856Y-17071345D01*
X8390284Y-17128487D02*
X8409332Y-17138011D01*
X8447427Y-17138011D01*
X8466475Y-17128487D01*
X8475998Y-17109440D01*
X8475998Y-17099916D01*
X8466475Y-17080868D01*
X8447427Y-17071345D01*
X8418856Y-17071345D01*
X8399808Y-17061821D01*
X8390284Y-17042773D01*
X8390284Y-17033249D01*
X8399808Y-17014202D01*
X8418856Y-17004678D01*
X8447427Y-17004678D01*
X8466475Y-17014202D01*
X8542665Y-17214202D02*
X8552189Y-17204678D01*
X8571237Y-17176106D01*
X8580760Y-17157059D01*
X8590284Y-17128487D01*
X8599808Y-17080868D01*
X8599808Y-17042773D01*
X8590284Y-16995154D01*
X8580760Y-16966583D01*
X8571237Y-16947535D01*
X8552189Y-16918964D01*
X8542665Y-16909440D01*
D12*
X3389808Y-17311535D02*
G75*
G03*
X3389808Y-17311535I-20000J0D01*
G01*
D10*
X3685522Y-17202011D02*
X3704570Y-17202011D01*
X3723617Y-17211535D01*
X3733141Y-17221059D01*
X3742665Y-17240106D01*
X3752189Y-17278202D01*
X3752189Y-17325821D01*
X3742665Y-17363916D01*
X3733141Y-17382964D01*
X3723617Y-17392487D01*
X3704570Y-17402011D01*
X3685522Y-17402011D01*
X3666475Y-17392487D01*
X3656951Y-17382964D01*
X3647427Y-17363916D01*
X3637903Y-17325821D01*
X3637903Y-17278202D01*
X3647427Y-17240106D01*
X3656951Y-17221059D01*
X3666475Y-17211535D01*
X3685522Y-17202011D01*
X3837903Y-17382964D02*
X3847427Y-17392487D01*
X3837903Y-17402011D01*
X3828379Y-17392487D01*
X3837903Y-17382964D01*
X3837903Y-17402011D01*
X4018856Y-17268678D02*
X4018856Y-17402011D01*
X3971236Y-17192487D02*
X3923617Y-17335345D01*
X4047427Y-17335345D01*
X4161713Y-17202011D02*
X4180760Y-17202011D01*
X4199808Y-17211535D01*
X4209332Y-17221059D01*
X4218856Y-17240106D01*
X4228379Y-17278202D01*
X4228379Y-17325821D01*
X4218856Y-17363916D01*
X4209332Y-17382964D01*
X4199808Y-17392487D01*
X4180760Y-17402011D01*
X4161713Y-17402011D01*
X4142665Y-17392487D01*
X4133141Y-17382964D01*
X4123617Y-17363916D01*
X4114094Y-17325821D01*
X4114094Y-17278202D01*
X4123617Y-17240106D01*
X4133141Y-17221059D01*
X4142665Y-17211535D01*
X4161713Y-17202011D01*
X4352189Y-17202011D02*
X4371237Y-17202011D01*
X4390284Y-17211535D01*
X4399808Y-17221059D01*
X4409332Y-17240106D01*
X4418856Y-17278202D01*
X4418856Y-17325821D01*
X4409332Y-17363916D01*
X4399808Y-17382964D01*
X4390284Y-17392487D01*
X4371237Y-17402011D01*
X4352189Y-17402011D01*
X4333141Y-17392487D01*
X4323618Y-17382964D01*
X4314094Y-17363916D01*
X4304570Y-17325821D01*
X4304570Y-17278202D01*
X4314094Y-17240106D01*
X4323618Y-17221059D01*
X4333141Y-17211535D01*
X4352189Y-17202011D01*
X4504570Y-17402011D02*
X4504570Y-17268678D01*
X4504570Y-17287725D02*
X4514094Y-17278202D01*
X4533141Y-17268678D01*
X4561713Y-17268678D01*
X4580760Y-17278202D01*
X4590284Y-17297249D01*
X4590284Y-17402011D01*
X4590284Y-17297249D02*
X4599808Y-17278202D01*
X4618856Y-17268678D01*
X4647427Y-17268678D01*
X4666475Y-17278202D01*
X4675998Y-17297249D01*
X4675998Y-17402011D01*
X4771237Y-17402011D02*
X4771237Y-17268678D01*
X4771237Y-17287725D02*
X4780760Y-17278202D01*
X4799808Y-17268678D01*
X4828379Y-17268678D01*
X4847427Y-17278202D01*
X4856951Y-17297249D01*
X4856951Y-17402011D01*
X4856951Y-17297249D02*
X4866475Y-17278202D01*
X4885522Y-17268678D01*
X4914094Y-17268678D01*
X4933141Y-17278202D01*
X4942665Y-17297249D01*
X4942665Y-17402011D01*
X5333141Y-17192487D02*
X5161713Y-17449630D01*
X5590284Y-17202011D02*
X5609332Y-17202011D01*
X5628379Y-17211535D01*
X5637903Y-17221059D01*
X5647427Y-17240106D01*
X5656951Y-17278202D01*
X5656951Y-17325821D01*
X5647427Y-17363916D01*
X5637903Y-17382964D01*
X5628379Y-17392487D01*
X5609332Y-17402011D01*
X5590284Y-17402011D01*
X5571237Y-17392487D01*
X5561713Y-17382964D01*
X5552189Y-17363916D01*
X5542665Y-17325821D01*
X5542665Y-17278202D01*
X5552189Y-17240106D01*
X5561713Y-17221059D01*
X5571237Y-17211535D01*
X5590284Y-17202011D01*
X5742665Y-17382964D02*
X5752189Y-17392487D01*
X5742665Y-17402011D01*
X5733141Y-17392487D01*
X5742665Y-17382964D01*
X5742665Y-17402011D01*
X5875998Y-17202011D02*
X5895046Y-17202011D01*
X5914094Y-17211535D01*
X5923617Y-17221059D01*
X5933141Y-17240106D01*
X5942665Y-17278202D01*
X5942665Y-17325821D01*
X5933141Y-17363916D01*
X5923617Y-17382964D01*
X5914094Y-17392487D01*
X5895046Y-17402011D01*
X5875998Y-17402011D01*
X5856951Y-17392487D01*
X5847427Y-17382964D01*
X5837903Y-17363916D01*
X5828379Y-17325821D01*
X5828379Y-17278202D01*
X5837903Y-17240106D01*
X5847427Y-17221059D01*
X5856951Y-17211535D01*
X5875998Y-17202011D01*
X6133141Y-17402011D02*
X6018856Y-17402011D01*
X6075998Y-17402011D02*
X6075998Y-17202011D01*
X6056951Y-17230583D01*
X6037903Y-17249630D01*
X6018856Y-17259154D01*
X6314094Y-17202011D02*
X6218856Y-17202011D01*
X6209332Y-17297249D01*
X6218856Y-17287725D01*
X6237903Y-17278202D01*
X6285522Y-17278202D01*
X6304570Y-17287725D01*
X6314094Y-17297249D01*
X6323617Y-17316297D01*
X6323617Y-17363916D01*
X6314094Y-17382964D01*
X6304570Y-17392487D01*
X6285522Y-17402011D01*
X6237903Y-17402011D01*
X6218856Y-17392487D01*
X6209332Y-17382964D01*
X6390284Y-17202011D02*
X6523617Y-17202011D01*
X6437903Y-17402011D01*
X6590284Y-17202011D02*
X6590284Y-17240106D01*
X6666475Y-17202011D02*
X6666475Y-17240106D01*
X6961713Y-17478202D02*
X6952189Y-17468678D01*
X6933141Y-17440106D01*
X6923617Y-17421059D01*
X6914094Y-17392487D01*
X6904570Y-17344868D01*
X6904570Y-17306773D01*
X6914094Y-17259154D01*
X6923617Y-17230583D01*
X6933141Y-17211535D01*
X6952189Y-17182964D01*
X6961713Y-17173440D01*
X7142665Y-17402011D02*
X7028379Y-17402011D01*
X7085522Y-17402011D02*
X7085522Y-17202011D01*
X7066475Y-17230583D01*
X7047427Y-17249630D01*
X7028379Y-17259154D01*
X7209332Y-17202011D02*
X7333141Y-17202011D01*
X7266475Y-17278202D01*
X7295046Y-17278202D01*
X7314094Y-17287725D01*
X7323617Y-17297249D01*
X7333141Y-17316297D01*
X7333141Y-17363916D01*
X7323617Y-17382964D01*
X7314094Y-17392487D01*
X7295046Y-17402011D01*
X7237903Y-17402011D01*
X7218856Y-17392487D01*
X7209332Y-17382964D01*
X7523617Y-17402011D02*
X7409332Y-17402011D01*
X7466475Y-17402011D02*
X7466475Y-17202011D01*
X7447427Y-17230583D01*
X7428379Y-17249630D01*
X7409332Y-17259154D01*
X7761713Y-17402011D02*
X7761713Y-17202011D01*
X7847427Y-17402011D02*
X7847427Y-17297249D01*
X7837903Y-17278202D01*
X7818856Y-17268678D01*
X7790284Y-17268678D01*
X7771236Y-17278202D01*
X7761713Y-17287725D01*
X7971236Y-17402011D02*
X7952189Y-17392487D01*
X7942665Y-17382964D01*
X7933141Y-17363916D01*
X7933141Y-17306773D01*
X7942665Y-17287725D01*
X7952189Y-17278202D01*
X7971236Y-17268678D01*
X7999808Y-17268678D01*
X8018856Y-17278202D01*
X8028379Y-17287725D01*
X8037903Y-17306773D01*
X8037903Y-17363916D01*
X8028379Y-17382964D01*
X8018856Y-17392487D01*
X7999808Y-17402011D01*
X7971236Y-17402011D01*
X8152189Y-17402011D02*
X8133141Y-17392487D01*
X8123617Y-17373440D01*
X8123617Y-17202011D01*
X8304570Y-17392487D02*
X8285522Y-17402011D01*
X8247427Y-17402011D01*
X8228379Y-17392487D01*
X8218856Y-17373440D01*
X8218856Y-17297249D01*
X8228379Y-17278202D01*
X8247427Y-17268678D01*
X8285522Y-17268678D01*
X8304570Y-17278202D01*
X8314094Y-17297249D01*
X8314094Y-17316297D01*
X8218856Y-17335345D01*
X8390284Y-17392487D02*
X8409332Y-17402011D01*
X8447427Y-17402011D01*
X8466475Y-17392487D01*
X8475998Y-17373440D01*
X8475998Y-17363916D01*
X8466475Y-17344868D01*
X8447427Y-17335345D01*
X8418856Y-17335345D01*
X8399808Y-17325821D01*
X8390284Y-17306773D01*
X8390284Y-17297249D01*
X8399808Y-17278202D01*
X8418856Y-17268678D01*
X8447427Y-17268678D01*
X8466475Y-17278202D01*
X8542665Y-17478202D02*
X8552189Y-17468678D01*
X8571237Y-17440106D01*
X8580760Y-17421059D01*
X8590284Y-17392487D01*
X8599808Y-17344868D01*
X8599808Y-17306773D01*
X8590284Y-17259154D01*
X8580760Y-17230583D01*
X8571237Y-17211535D01*
X8552189Y-17182964D01*
X8542665Y-17173440D01*
D12*
X3369808Y-17555535D02*
X3369808Y-17595535D01*
X3349808Y-17575535D02*
X3389808Y-17575535D01*
D10*
X3685522Y-17466011D02*
X3704570Y-17466011D01*
X3723617Y-17475535D01*
X3733141Y-17485059D01*
X3742665Y-17504106D01*
X3752189Y-17542202D01*
X3752189Y-17589821D01*
X3742665Y-17627916D01*
X3733141Y-17646964D01*
X3723617Y-17656487D01*
X3704570Y-17666011D01*
X3685522Y-17666011D01*
X3666475Y-17656487D01*
X3656951Y-17646964D01*
X3647427Y-17627916D01*
X3637903Y-17589821D01*
X3637903Y-17542202D01*
X3647427Y-17504106D01*
X3656951Y-17485059D01*
X3666475Y-17475535D01*
X3685522Y-17466011D01*
X3837903Y-17646964D02*
X3847427Y-17656487D01*
X3837903Y-17666011D01*
X3828379Y-17656487D01*
X3837903Y-17646964D01*
X3837903Y-17666011D01*
X4018856Y-17532678D02*
X4018856Y-17666011D01*
X3971236Y-17456487D02*
X3923617Y-17599345D01*
X4047427Y-17599345D01*
X4161713Y-17466011D02*
X4180760Y-17466011D01*
X4199808Y-17475535D01*
X4209332Y-17485059D01*
X4218856Y-17504106D01*
X4228379Y-17542202D01*
X4228379Y-17589821D01*
X4218856Y-17627916D01*
X4209332Y-17646964D01*
X4199808Y-17656487D01*
X4180760Y-17666011D01*
X4161713Y-17666011D01*
X4142665Y-17656487D01*
X4133141Y-17646964D01*
X4123617Y-17627916D01*
X4114094Y-17589821D01*
X4114094Y-17542202D01*
X4123617Y-17504106D01*
X4133141Y-17485059D01*
X4142665Y-17475535D01*
X4161713Y-17466011D01*
X4352189Y-17466011D02*
X4371237Y-17466011D01*
X4390284Y-17475535D01*
X4399808Y-17485059D01*
X4409332Y-17504106D01*
X4418856Y-17542202D01*
X4418856Y-17589821D01*
X4409332Y-17627916D01*
X4399808Y-17646964D01*
X4390284Y-17656487D01*
X4371237Y-17666011D01*
X4352189Y-17666011D01*
X4333141Y-17656487D01*
X4323618Y-17646964D01*
X4314094Y-17627916D01*
X4304570Y-17589821D01*
X4304570Y-17542202D01*
X4314094Y-17504106D01*
X4323618Y-17485059D01*
X4333141Y-17475535D01*
X4352189Y-17466011D01*
X4504570Y-17666011D02*
X4504570Y-17532678D01*
X4504570Y-17551725D02*
X4514094Y-17542202D01*
X4533141Y-17532678D01*
X4561713Y-17532678D01*
X4580760Y-17542202D01*
X4590284Y-17561249D01*
X4590284Y-17666011D01*
X4590284Y-17561249D02*
X4599808Y-17542202D01*
X4618856Y-17532678D01*
X4647427Y-17532678D01*
X4666475Y-17542202D01*
X4675998Y-17561249D01*
X4675998Y-17666011D01*
X4771237Y-17666011D02*
X4771237Y-17532678D01*
X4771237Y-17551725D02*
X4780760Y-17542202D01*
X4799808Y-17532678D01*
X4828379Y-17532678D01*
X4847427Y-17542202D01*
X4856951Y-17561249D01*
X4856951Y-17666011D01*
X4856951Y-17561249D02*
X4866475Y-17542202D01*
X4885522Y-17532678D01*
X4914094Y-17532678D01*
X4933141Y-17542202D01*
X4942665Y-17561249D01*
X4942665Y-17666011D01*
X5333141Y-17456487D02*
X5161713Y-17713630D01*
X5590284Y-17466011D02*
X5609332Y-17466011D01*
X5628379Y-17475535D01*
X5637903Y-17485059D01*
X5647427Y-17504106D01*
X5656951Y-17542202D01*
X5656951Y-17589821D01*
X5647427Y-17627916D01*
X5637903Y-17646964D01*
X5628379Y-17656487D01*
X5609332Y-17666011D01*
X5590284Y-17666011D01*
X5571237Y-17656487D01*
X5561713Y-17646964D01*
X5552189Y-17627916D01*
X5542665Y-17589821D01*
X5542665Y-17542202D01*
X5552189Y-17504106D01*
X5561713Y-17485059D01*
X5571237Y-17475535D01*
X5590284Y-17466011D01*
X5742665Y-17646964D02*
X5752189Y-17656487D01*
X5742665Y-17666011D01*
X5733141Y-17656487D01*
X5742665Y-17646964D01*
X5742665Y-17666011D01*
X5875998Y-17466011D02*
X5895046Y-17466011D01*
X5914094Y-17475535D01*
X5923617Y-17485059D01*
X5933141Y-17504106D01*
X5942665Y-17542202D01*
X5942665Y-17589821D01*
X5933141Y-17627916D01*
X5923617Y-17646964D01*
X5914094Y-17656487D01*
X5895046Y-17666011D01*
X5875998Y-17666011D01*
X5856951Y-17656487D01*
X5847427Y-17646964D01*
X5837903Y-17627916D01*
X5828379Y-17589821D01*
X5828379Y-17542202D01*
X5837903Y-17504106D01*
X5847427Y-17485059D01*
X5856951Y-17475535D01*
X5875998Y-17466011D01*
X6133141Y-17666011D02*
X6018856Y-17666011D01*
X6075998Y-17666011D02*
X6075998Y-17466011D01*
X6056951Y-17494583D01*
X6037903Y-17513630D01*
X6018856Y-17523154D01*
X6314094Y-17466011D02*
X6218856Y-17466011D01*
X6209332Y-17561249D01*
X6218856Y-17551725D01*
X6237903Y-17542202D01*
X6285522Y-17542202D01*
X6304570Y-17551725D01*
X6314094Y-17561249D01*
X6323617Y-17580297D01*
X6323617Y-17627916D01*
X6314094Y-17646964D01*
X6304570Y-17656487D01*
X6285522Y-17666011D01*
X6237903Y-17666011D01*
X6218856Y-17656487D01*
X6209332Y-17646964D01*
X6390284Y-17466011D02*
X6523617Y-17466011D01*
X6437903Y-17666011D01*
X6590284Y-17466011D02*
X6590284Y-17504106D01*
X6666475Y-17466011D02*
X6666475Y-17504106D01*
X6961713Y-17742202D02*
X6952189Y-17732678D01*
X6933141Y-17704106D01*
X6923617Y-17685059D01*
X6914094Y-17656487D01*
X6904570Y-17608868D01*
X6904570Y-17570773D01*
X6914094Y-17523154D01*
X6923617Y-17494583D01*
X6933141Y-17475535D01*
X6952189Y-17446964D01*
X6961713Y-17437440D01*
X7142665Y-17666011D02*
X7028379Y-17666011D01*
X7085522Y-17666011D02*
X7085522Y-17466011D01*
X7066475Y-17494583D01*
X7047427Y-17513630D01*
X7028379Y-17523154D01*
X7218856Y-17485059D02*
X7228379Y-17475535D01*
X7247427Y-17466011D01*
X7295046Y-17466011D01*
X7314094Y-17475535D01*
X7323617Y-17485059D01*
X7333141Y-17504106D01*
X7333141Y-17523154D01*
X7323617Y-17551725D01*
X7209332Y-17666011D01*
X7333141Y-17666011D01*
X7571236Y-17666011D02*
X7571236Y-17466011D01*
X7656951Y-17666011D02*
X7656951Y-17561249D01*
X7647427Y-17542202D01*
X7628379Y-17532678D01*
X7599808Y-17532678D01*
X7580760Y-17542202D01*
X7571236Y-17551725D01*
X7780760Y-17666011D02*
X7761713Y-17656487D01*
X7752189Y-17646964D01*
X7742665Y-17627916D01*
X7742665Y-17570773D01*
X7752189Y-17551725D01*
X7761713Y-17542202D01*
X7780760Y-17532678D01*
X7809332Y-17532678D01*
X7828379Y-17542202D01*
X7837903Y-17551725D01*
X7847427Y-17570773D01*
X7847427Y-17627916D01*
X7837903Y-17646964D01*
X7828379Y-17656487D01*
X7809332Y-17666011D01*
X7780760Y-17666011D01*
X7961713Y-17666011D02*
X7942665Y-17656487D01*
X7933141Y-17637440D01*
X7933141Y-17466011D01*
X8114094Y-17656487D02*
X8095046Y-17666011D01*
X8056951Y-17666011D01*
X8037903Y-17656487D01*
X8028379Y-17637440D01*
X8028379Y-17561249D01*
X8037903Y-17542202D01*
X8056951Y-17532678D01*
X8095046Y-17532678D01*
X8114094Y-17542202D01*
X8123617Y-17561249D01*
X8123617Y-17580297D01*
X8028379Y-17599345D01*
X8199808Y-17656487D02*
X8218856Y-17666011D01*
X8256951Y-17666011D01*
X8275998Y-17656487D01*
X8285522Y-17637440D01*
X8285522Y-17627916D01*
X8275998Y-17608868D01*
X8256951Y-17599345D01*
X8228379Y-17599345D01*
X8209332Y-17589821D01*
X8199808Y-17570773D01*
X8199808Y-17561249D01*
X8209332Y-17542202D01*
X8228379Y-17532678D01*
X8256951Y-17532678D01*
X8275998Y-17542202D01*
X8352189Y-17742202D02*
X8361713Y-17732678D01*
X8380760Y-17704106D01*
X8390284Y-17685059D01*
X8399808Y-17656487D01*
X8409332Y-17608868D01*
X8409332Y-17570773D01*
X8399808Y-17523154D01*
X8390284Y-17494583D01*
X8380760Y-17475535D01*
X8361713Y-17446964D01*
X8352189Y-17437440D01*
D13*
X3382486Y-17857213D02*
X3382486Y-17821857D01*
X3347130Y-17821857D01*
X3347130Y-17857213D01*
X3382486Y-17857213D01*
D10*
X3685522Y-17730011D02*
X3704570Y-17730011D01*
X3723617Y-17739535D01*
X3733141Y-17749059D01*
X3742665Y-17768106D01*
X3752189Y-17806202D01*
X3752189Y-17853821D01*
X3742665Y-17891916D01*
X3733141Y-17910964D01*
X3723617Y-17920487D01*
X3704570Y-17930011D01*
X3685522Y-17930011D01*
X3666475Y-17920487D01*
X3656951Y-17910964D01*
X3647427Y-17891916D01*
X3637903Y-17853821D01*
X3637903Y-17806202D01*
X3647427Y-17768106D01*
X3656951Y-17749059D01*
X3666475Y-17739535D01*
X3685522Y-17730011D01*
X3837903Y-17910964D02*
X3847427Y-17920487D01*
X3837903Y-17930011D01*
X3828379Y-17920487D01*
X3837903Y-17910964D01*
X3837903Y-17930011D01*
X4028379Y-17730011D02*
X3933141Y-17730011D01*
X3923617Y-17825249D01*
X3933141Y-17815725D01*
X3952189Y-17806202D01*
X3999808Y-17806202D01*
X4018856Y-17815725D01*
X4028379Y-17825249D01*
X4037903Y-17844297D01*
X4037903Y-17891916D01*
X4028379Y-17910964D01*
X4018856Y-17920487D01*
X3999808Y-17930011D01*
X3952189Y-17930011D01*
X3933141Y-17920487D01*
X3923617Y-17910964D01*
X4161713Y-17730011D02*
X4180760Y-17730011D01*
X4199808Y-17739535D01*
X4209332Y-17749059D01*
X4218856Y-17768106D01*
X4228379Y-17806202D01*
X4228379Y-17853821D01*
X4218856Y-17891916D01*
X4209332Y-17910964D01*
X4199808Y-17920487D01*
X4180760Y-17930011D01*
X4161713Y-17930011D01*
X4142665Y-17920487D01*
X4133141Y-17910964D01*
X4123617Y-17891916D01*
X4114094Y-17853821D01*
X4114094Y-17806202D01*
X4123617Y-17768106D01*
X4133141Y-17749059D01*
X4142665Y-17739535D01*
X4161713Y-17730011D01*
X4352189Y-17730011D02*
X4371237Y-17730011D01*
X4390284Y-17739535D01*
X4399808Y-17749059D01*
X4409332Y-17768106D01*
X4418856Y-17806202D01*
X4418856Y-17853821D01*
X4409332Y-17891916D01*
X4399808Y-17910964D01*
X4390284Y-17920487D01*
X4371237Y-17930011D01*
X4352189Y-17930011D01*
X4333141Y-17920487D01*
X4323618Y-17910964D01*
X4314094Y-17891916D01*
X4304570Y-17853821D01*
X4304570Y-17806202D01*
X4314094Y-17768106D01*
X4323618Y-17749059D01*
X4333141Y-17739535D01*
X4352189Y-17730011D01*
X4504570Y-17930011D02*
X4504570Y-17796678D01*
X4504570Y-17815725D02*
X4514094Y-17806202D01*
X4533141Y-17796678D01*
X4561713Y-17796678D01*
X4580760Y-17806202D01*
X4590284Y-17825249D01*
X4590284Y-17930011D01*
X4590284Y-17825249D02*
X4599808Y-17806202D01*
X4618856Y-17796678D01*
X4647427Y-17796678D01*
X4666475Y-17806202D01*
X4675998Y-17825249D01*
X4675998Y-17930011D01*
X4771237Y-17930011D02*
X4771237Y-17796678D01*
X4771237Y-17815725D02*
X4780760Y-17806202D01*
X4799808Y-17796678D01*
X4828379Y-17796678D01*
X4847427Y-17806202D01*
X4856951Y-17825249D01*
X4856951Y-17930011D01*
X4856951Y-17825249D02*
X4866475Y-17806202D01*
X4885522Y-17796678D01*
X4914094Y-17796678D01*
X4933141Y-17806202D01*
X4942665Y-17825249D01*
X4942665Y-17930011D01*
X5333141Y-17720487D02*
X5161713Y-17977630D01*
X5590284Y-17730011D02*
X5609332Y-17730011D01*
X5628379Y-17739535D01*
X5637903Y-17749059D01*
X5647427Y-17768106D01*
X5656951Y-17806202D01*
X5656951Y-17853821D01*
X5647427Y-17891916D01*
X5637903Y-17910964D01*
X5628379Y-17920487D01*
X5609332Y-17930011D01*
X5590284Y-17930011D01*
X5571237Y-17920487D01*
X5561713Y-17910964D01*
X5552189Y-17891916D01*
X5542665Y-17853821D01*
X5542665Y-17806202D01*
X5552189Y-17768106D01*
X5561713Y-17749059D01*
X5571237Y-17739535D01*
X5590284Y-17730011D01*
X5742665Y-17910964D02*
X5752189Y-17920487D01*
X5742665Y-17930011D01*
X5733141Y-17920487D01*
X5742665Y-17910964D01*
X5742665Y-17930011D01*
X5875998Y-17730011D02*
X5895046Y-17730011D01*
X5914094Y-17739535D01*
X5923617Y-17749059D01*
X5933141Y-17768106D01*
X5942665Y-17806202D01*
X5942665Y-17853821D01*
X5933141Y-17891916D01*
X5923617Y-17910964D01*
X5914094Y-17920487D01*
X5895046Y-17930011D01*
X5875998Y-17930011D01*
X5856951Y-17920487D01*
X5847427Y-17910964D01*
X5837903Y-17891916D01*
X5828379Y-17853821D01*
X5828379Y-17806202D01*
X5837903Y-17768106D01*
X5847427Y-17749059D01*
X5856951Y-17739535D01*
X5875998Y-17730011D01*
X6133141Y-17930011D02*
X6018856Y-17930011D01*
X6075998Y-17930011D02*
X6075998Y-17730011D01*
X6056951Y-17758583D01*
X6037903Y-17777630D01*
X6018856Y-17787154D01*
X6228379Y-17930011D02*
X6266475Y-17930011D01*
X6285522Y-17920487D01*
X6295046Y-17910964D01*
X6314094Y-17882392D01*
X6323617Y-17844297D01*
X6323617Y-17768106D01*
X6314094Y-17749059D01*
X6304570Y-17739535D01*
X6285522Y-17730011D01*
X6247427Y-17730011D01*
X6228379Y-17739535D01*
X6218856Y-17749059D01*
X6209332Y-17768106D01*
X6209332Y-17815725D01*
X6218856Y-17834773D01*
X6228379Y-17844297D01*
X6247427Y-17853821D01*
X6285522Y-17853821D01*
X6304570Y-17844297D01*
X6314094Y-17834773D01*
X6323617Y-17815725D01*
X6390284Y-17730011D02*
X6523617Y-17730011D01*
X6437903Y-17930011D01*
X6590284Y-17730011D02*
X6590284Y-17768106D01*
X6666475Y-17730011D02*
X6666475Y-17768106D01*
X6961713Y-18006202D02*
X6952189Y-17996678D01*
X6933141Y-17968106D01*
X6923617Y-17949059D01*
X6914094Y-17920487D01*
X6904570Y-17872868D01*
X6904570Y-17834773D01*
X6914094Y-17787154D01*
X6923617Y-17758583D01*
X6933141Y-17739535D01*
X6952189Y-17710964D01*
X6961713Y-17701440D01*
X7075998Y-17730011D02*
X7095046Y-17730011D01*
X7114094Y-17739535D01*
X7123617Y-17749059D01*
X7133141Y-17768106D01*
X7142665Y-17806202D01*
X7142665Y-17853821D01*
X7133141Y-17891916D01*
X7123617Y-17910964D01*
X7114094Y-17920487D01*
X7095046Y-17930011D01*
X7075998Y-17930011D01*
X7056951Y-17920487D01*
X7047427Y-17910964D01*
X7037903Y-17891916D01*
X7028379Y-17853821D01*
X7028379Y-17806202D01*
X7037903Y-17768106D01*
X7047427Y-17749059D01*
X7056951Y-17739535D01*
X7075998Y-17730011D01*
X7380760Y-17930011D02*
X7380760Y-17730011D01*
X7466475Y-17930011D02*
X7466475Y-17825249D01*
X7456951Y-17806202D01*
X7437903Y-17796678D01*
X7409332Y-17796678D01*
X7390284Y-17806202D01*
X7380760Y-17815725D01*
X7590284Y-17930011D02*
X7571236Y-17920487D01*
X7561713Y-17910964D01*
X7552189Y-17891916D01*
X7552189Y-17834773D01*
X7561713Y-17815725D01*
X7571236Y-17806202D01*
X7590284Y-17796678D01*
X7618856Y-17796678D01*
X7637903Y-17806202D01*
X7647427Y-17815725D01*
X7656951Y-17834773D01*
X7656951Y-17891916D01*
X7647427Y-17910964D01*
X7637903Y-17920487D01*
X7618856Y-17930011D01*
X7590284Y-17930011D01*
X7771236Y-17930011D02*
X7752189Y-17920487D01*
X7742665Y-17901440D01*
X7742665Y-17730011D01*
X7923617Y-17920487D02*
X7904570Y-17930011D01*
X7866475Y-17930011D01*
X7847427Y-17920487D01*
X7837903Y-17901440D01*
X7837903Y-17825249D01*
X7847427Y-17806202D01*
X7866475Y-17796678D01*
X7904570Y-17796678D01*
X7923617Y-17806202D01*
X7933141Y-17825249D01*
X7933141Y-17844297D01*
X7837903Y-17863345D01*
X8009332Y-17920487D02*
X8028379Y-17930011D01*
X8066475Y-17930011D01*
X8085522Y-17920487D01*
X8095046Y-17901440D01*
X8095046Y-17891916D01*
X8085522Y-17872868D01*
X8066475Y-17863345D01*
X8037903Y-17863345D01*
X8018856Y-17853821D01*
X8009332Y-17834773D01*
X8009332Y-17825249D01*
X8018856Y-17806202D01*
X8037903Y-17796678D01*
X8066475Y-17796678D01*
X8085522Y-17806202D01*
X8333141Y-17853821D02*
X8485522Y-17853821D01*
X8409332Y-17930011D02*
X8409332Y-17777630D01*
X8818856Y-17796678D02*
X8818856Y-17930011D01*
X8771237Y-17720487D02*
X8723618Y-17863345D01*
X8847427Y-17863345D01*
X9066475Y-17920487D02*
X9085522Y-17930011D01*
X9123618Y-17930011D01*
X9142665Y-17920487D01*
X9152189Y-17901440D01*
X9152189Y-17891916D01*
X9142665Y-17872868D01*
X9123618Y-17863345D01*
X9095046Y-17863345D01*
X9075998Y-17853821D01*
X9066475Y-17834773D01*
X9066475Y-17825249D01*
X9075998Y-17806202D01*
X9095046Y-17796678D01*
X9123618Y-17796678D01*
X9142665Y-17806202D01*
X9266475Y-17930011D02*
X9247427Y-17920487D01*
X9237903Y-17901440D01*
X9237903Y-17730011D01*
X9371237Y-17930011D02*
X9352189Y-17920487D01*
X9342665Y-17910964D01*
X9333141Y-17891916D01*
X9333141Y-17834773D01*
X9342665Y-17815725D01*
X9352189Y-17806202D01*
X9371237Y-17796678D01*
X9399808Y-17796678D01*
X9418856Y-17806202D01*
X9428379Y-17815725D01*
X9437903Y-17834773D01*
X9437903Y-17891916D01*
X9428379Y-17910964D01*
X9418856Y-17920487D01*
X9399808Y-17930011D01*
X9371237Y-17930011D01*
X9495046Y-17796678D02*
X9571237Y-17796678D01*
X9523618Y-17730011D02*
X9523618Y-17901440D01*
X9533141Y-17920487D01*
X9552189Y-17930011D01*
X9571237Y-17930011D01*
X9628379Y-17920487D02*
X9647427Y-17930011D01*
X9685522Y-17930011D01*
X9704570Y-17920487D01*
X9714094Y-17901440D01*
X9714094Y-17891916D01*
X9704570Y-17872868D01*
X9685522Y-17863345D01*
X9656951Y-17863345D01*
X9637903Y-17853821D01*
X9628379Y-17834773D01*
X9628379Y-17825249D01*
X9637903Y-17806202D01*
X9656951Y-17796678D01*
X9685522Y-17796678D01*
X9704570Y-17806202D01*
X9780760Y-18006202D02*
X9790284Y-17996678D01*
X9809332Y-17968106D01*
X9818856Y-17949059D01*
X9828379Y-17920487D01*
X9837903Y-17872868D01*
X9837903Y-17834773D01*
X9828379Y-17787154D01*
X9818856Y-17758583D01*
X9809332Y-17739535D01*
X9790284Y-17710964D01*
X9780760Y-17701440D01*
D14*
X3354808Y-18138535D02*
X3389808Y-18103535D01*
X3354808Y-18068535D01*
X3319808Y-18103535D01*
X3354808Y-18138535D01*
D10*
X3685522Y-17994011D02*
X3704570Y-17994011D01*
X3723617Y-18003535D01*
X3733141Y-18013059D01*
X3742665Y-18032106D01*
X3752189Y-18070202D01*
X3752189Y-18117821D01*
X3742665Y-18155916D01*
X3733141Y-18174964D01*
X3723617Y-18184487D01*
X3704570Y-18194011D01*
X3685522Y-18194011D01*
X3666475Y-18184487D01*
X3656951Y-18174964D01*
X3647427Y-18155916D01*
X3637903Y-18117821D01*
X3637903Y-18070202D01*
X3647427Y-18032106D01*
X3656951Y-18013059D01*
X3666475Y-18003535D01*
X3685522Y-17994011D01*
X3837903Y-18174964D02*
X3847427Y-18184487D01*
X3837903Y-18194011D01*
X3828379Y-18184487D01*
X3837903Y-18174964D01*
X3837903Y-18194011D01*
X3914094Y-17994011D02*
X4047427Y-17994011D01*
X3961713Y-18194011D01*
X4161713Y-17994011D02*
X4180760Y-17994011D01*
X4199808Y-18003535D01*
X4209332Y-18013059D01*
X4218856Y-18032106D01*
X4228379Y-18070202D01*
X4228379Y-18117821D01*
X4218856Y-18155916D01*
X4209332Y-18174964D01*
X4199808Y-18184487D01*
X4180760Y-18194011D01*
X4161713Y-18194011D01*
X4142665Y-18184487D01*
X4133141Y-18174964D01*
X4123617Y-18155916D01*
X4114094Y-18117821D01*
X4114094Y-18070202D01*
X4123617Y-18032106D01*
X4133141Y-18013059D01*
X4142665Y-18003535D01*
X4161713Y-17994011D01*
X4352189Y-17994011D02*
X4371237Y-17994011D01*
X4390284Y-18003535D01*
X4399808Y-18013059D01*
X4409332Y-18032106D01*
X4418856Y-18070202D01*
X4418856Y-18117821D01*
X4409332Y-18155916D01*
X4399808Y-18174964D01*
X4390284Y-18184487D01*
X4371237Y-18194011D01*
X4352189Y-18194011D01*
X4333141Y-18184487D01*
X4323618Y-18174964D01*
X4314094Y-18155916D01*
X4304570Y-18117821D01*
X4304570Y-18070202D01*
X4314094Y-18032106D01*
X4323618Y-18013059D01*
X4333141Y-18003535D01*
X4352189Y-17994011D01*
X4504570Y-18194011D02*
X4504570Y-18060678D01*
X4504570Y-18079725D02*
X4514094Y-18070202D01*
X4533141Y-18060678D01*
X4561713Y-18060678D01*
X4580760Y-18070202D01*
X4590284Y-18089249D01*
X4590284Y-18194011D01*
X4590284Y-18089249D02*
X4599808Y-18070202D01*
X4618856Y-18060678D01*
X4647427Y-18060678D01*
X4666475Y-18070202D01*
X4675998Y-18089249D01*
X4675998Y-18194011D01*
X4771237Y-18194011D02*
X4771237Y-18060678D01*
X4771237Y-18079725D02*
X4780760Y-18070202D01*
X4799808Y-18060678D01*
X4828379Y-18060678D01*
X4847427Y-18070202D01*
X4856951Y-18089249D01*
X4856951Y-18194011D01*
X4856951Y-18089249D02*
X4866475Y-18070202D01*
X4885522Y-18060678D01*
X4914094Y-18060678D01*
X4933141Y-18070202D01*
X4942665Y-18089249D01*
X4942665Y-18194011D01*
X5333141Y-17984487D02*
X5161713Y-18241630D01*
X5590284Y-17994011D02*
X5609332Y-17994011D01*
X5628379Y-18003535D01*
X5637903Y-18013059D01*
X5647427Y-18032106D01*
X5656951Y-18070202D01*
X5656951Y-18117821D01*
X5647427Y-18155916D01*
X5637903Y-18174964D01*
X5628379Y-18184487D01*
X5609332Y-18194011D01*
X5590284Y-18194011D01*
X5571237Y-18184487D01*
X5561713Y-18174964D01*
X5552189Y-18155916D01*
X5542665Y-18117821D01*
X5542665Y-18070202D01*
X5552189Y-18032106D01*
X5561713Y-18013059D01*
X5571237Y-18003535D01*
X5590284Y-17994011D01*
X5742665Y-18174964D02*
X5752189Y-18184487D01*
X5742665Y-18194011D01*
X5733141Y-18184487D01*
X5742665Y-18174964D01*
X5742665Y-18194011D01*
X5875998Y-17994011D02*
X5895046Y-17994011D01*
X5914094Y-18003535D01*
X5923617Y-18013059D01*
X5933141Y-18032106D01*
X5942665Y-18070202D01*
X5942665Y-18117821D01*
X5933141Y-18155916D01*
X5923617Y-18174964D01*
X5914094Y-18184487D01*
X5895046Y-18194011D01*
X5875998Y-18194011D01*
X5856951Y-18184487D01*
X5847427Y-18174964D01*
X5837903Y-18155916D01*
X5828379Y-18117821D01*
X5828379Y-18070202D01*
X5837903Y-18032106D01*
X5847427Y-18013059D01*
X5856951Y-18003535D01*
X5875998Y-17994011D01*
X6018856Y-18013059D02*
X6028379Y-18003535D01*
X6047427Y-17994011D01*
X6095046Y-17994011D01*
X6114094Y-18003535D01*
X6123617Y-18013059D01*
X6133141Y-18032106D01*
X6133141Y-18051154D01*
X6123617Y-18079725D01*
X6009332Y-18194011D01*
X6133141Y-18194011D01*
X6199808Y-17994011D02*
X6333141Y-17994011D01*
X6247427Y-18194011D01*
X6495046Y-17994011D02*
X6456951Y-17994011D01*
X6437903Y-18003535D01*
X6428379Y-18013059D01*
X6409332Y-18041630D01*
X6399808Y-18079725D01*
X6399808Y-18155916D01*
X6409332Y-18174964D01*
X6418856Y-18184487D01*
X6437903Y-18194011D01*
X6475998Y-18194011D01*
X6495046Y-18184487D01*
X6504570Y-18174964D01*
X6514094Y-18155916D01*
X6514094Y-18108297D01*
X6504570Y-18089249D01*
X6495046Y-18079725D01*
X6475998Y-18070202D01*
X6437903Y-18070202D01*
X6418856Y-18079725D01*
X6409332Y-18089249D01*
X6399808Y-18108297D01*
X6590284Y-17994011D02*
X6590284Y-18032106D01*
X6666475Y-17994011D02*
X6666475Y-18032106D01*
X6961713Y-18270202D02*
X6952189Y-18260678D01*
X6933141Y-18232106D01*
X6923617Y-18213059D01*
X6914094Y-18184487D01*
X6904570Y-18136868D01*
X6904570Y-18098773D01*
X6914094Y-18051154D01*
X6923617Y-18022583D01*
X6933141Y-18003535D01*
X6952189Y-17974964D01*
X6961713Y-17965440D01*
X7018856Y-17994011D02*
X7152189Y-17994011D01*
X7066475Y-18194011D01*
X7380760Y-18194011D02*
X7380760Y-17994011D01*
X7466475Y-18194011D02*
X7466475Y-18089249D01*
X7456951Y-18070202D01*
X7437903Y-18060678D01*
X7409332Y-18060678D01*
X7390284Y-18070202D01*
X7380760Y-18079725D01*
X7590284Y-18194011D02*
X7571236Y-18184487D01*
X7561713Y-18174964D01*
X7552189Y-18155916D01*
X7552189Y-18098773D01*
X7561713Y-18079725D01*
X7571236Y-18070202D01*
X7590284Y-18060678D01*
X7618856Y-18060678D01*
X7637903Y-18070202D01*
X7647427Y-18079725D01*
X7656951Y-18098773D01*
X7656951Y-18155916D01*
X7647427Y-18174964D01*
X7637903Y-18184487D01*
X7618856Y-18194011D01*
X7590284Y-18194011D01*
X7771236Y-18194011D02*
X7752189Y-18184487D01*
X7742665Y-18165440D01*
X7742665Y-17994011D01*
X7923617Y-18184487D02*
X7904570Y-18194011D01*
X7866475Y-18194011D01*
X7847427Y-18184487D01*
X7837903Y-18165440D01*
X7837903Y-18089249D01*
X7847427Y-18070202D01*
X7866475Y-18060678D01*
X7904570Y-18060678D01*
X7923617Y-18070202D01*
X7933141Y-18089249D01*
X7933141Y-18108297D01*
X7837903Y-18127345D01*
X8009332Y-18184487D02*
X8028379Y-18194011D01*
X8066475Y-18194011D01*
X8085522Y-18184487D01*
X8095046Y-18165440D01*
X8095046Y-18155916D01*
X8085522Y-18136868D01*
X8066475Y-18127345D01*
X8037903Y-18127345D01*
X8018856Y-18117821D01*
X8009332Y-18098773D01*
X8009332Y-18089249D01*
X8018856Y-18070202D01*
X8037903Y-18060678D01*
X8066475Y-18060678D01*
X8085522Y-18070202D01*
X8161713Y-18270202D02*
X8171236Y-18260678D01*
X8190284Y-18232106D01*
X8199808Y-18213059D01*
X8209332Y-18184487D01*
X8218856Y-18136868D01*
X8218856Y-18098773D01*
X8209332Y-18051154D01*
X8199808Y-18022583D01*
X8190284Y-18003535D01*
X8171236Y-17974964D01*
X8161713Y-17965440D01*
D15*
X3314808Y-18330035D02*
X3389808Y-18405035D01*
X3389808Y-18330035D02*
X3314808Y-18405035D01*
X3389808Y-18367535D02*
G75*
G03*
X3389808Y-18367535I-37500J0D01*
G01*
D10*
X3685522Y-18258011D02*
X3704570Y-18258011D01*
X3723617Y-18267535D01*
X3733141Y-18277059D01*
X3742665Y-18296106D01*
X3752189Y-18334202D01*
X3752189Y-18381821D01*
X3742665Y-18419916D01*
X3733141Y-18438964D01*
X3723617Y-18448487D01*
X3704570Y-18458011D01*
X3685522Y-18458011D01*
X3666475Y-18448487D01*
X3656951Y-18438964D01*
X3647427Y-18419916D01*
X3637903Y-18381821D01*
X3637903Y-18334202D01*
X3647427Y-18296106D01*
X3656951Y-18277059D01*
X3666475Y-18267535D01*
X3685522Y-18258011D01*
X3837903Y-18438964D02*
X3847427Y-18448487D01*
X3837903Y-18458011D01*
X3828379Y-18448487D01*
X3837903Y-18438964D01*
X3837903Y-18458011D01*
X3914094Y-18258011D02*
X4047427Y-18258011D01*
X3961713Y-18458011D01*
X4218856Y-18258011D02*
X4123617Y-18258011D01*
X4114094Y-18353249D01*
X4123617Y-18343725D01*
X4142665Y-18334202D01*
X4190284Y-18334202D01*
X4209332Y-18343725D01*
X4218856Y-18353249D01*
X4228379Y-18372297D01*
X4228379Y-18419916D01*
X4218856Y-18438964D01*
X4209332Y-18448487D01*
X4190284Y-18458011D01*
X4142665Y-18458011D01*
X4123617Y-18448487D01*
X4114094Y-18438964D01*
X4352189Y-18258011D02*
X4371237Y-18258011D01*
X4390284Y-18267535D01*
X4399808Y-18277059D01*
X4409332Y-18296106D01*
X4418856Y-18334202D01*
X4418856Y-18381821D01*
X4409332Y-18419916D01*
X4399808Y-18438964D01*
X4390284Y-18448487D01*
X4371237Y-18458011D01*
X4352189Y-18458011D01*
X4333141Y-18448487D01*
X4323618Y-18438964D01*
X4314094Y-18419916D01*
X4304570Y-18381821D01*
X4304570Y-18334202D01*
X4314094Y-18296106D01*
X4323618Y-18277059D01*
X4333141Y-18267535D01*
X4352189Y-18258011D01*
X4504570Y-18458011D02*
X4504570Y-18324678D01*
X4504570Y-18343725D02*
X4514094Y-18334202D01*
X4533141Y-18324678D01*
X4561713Y-18324678D01*
X4580760Y-18334202D01*
X4590284Y-18353249D01*
X4590284Y-18458011D01*
X4590284Y-18353249D02*
X4599808Y-18334202D01*
X4618856Y-18324678D01*
X4647427Y-18324678D01*
X4666475Y-18334202D01*
X4675998Y-18353249D01*
X4675998Y-18458011D01*
X4771237Y-18458011D02*
X4771237Y-18324678D01*
X4771237Y-18343725D02*
X4780760Y-18334202D01*
X4799808Y-18324678D01*
X4828379Y-18324678D01*
X4847427Y-18334202D01*
X4856951Y-18353249D01*
X4856951Y-18458011D01*
X4856951Y-18353249D02*
X4866475Y-18334202D01*
X4885522Y-18324678D01*
X4914094Y-18324678D01*
X4933141Y-18334202D01*
X4942665Y-18353249D01*
X4942665Y-18458011D01*
X5333141Y-18248487D02*
X5161713Y-18505630D01*
X5590284Y-18258011D02*
X5609332Y-18258011D01*
X5628379Y-18267535D01*
X5637903Y-18277059D01*
X5647427Y-18296106D01*
X5656951Y-18334202D01*
X5656951Y-18381821D01*
X5647427Y-18419916D01*
X5637903Y-18438964D01*
X5628379Y-18448487D01*
X5609332Y-18458011D01*
X5590284Y-18458011D01*
X5571237Y-18448487D01*
X5561713Y-18438964D01*
X5552189Y-18419916D01*
X5542665Y-18381821D01*
X5542665Y-18334202D01*
X5552189Y-18296106D01*
X5561713Y-18277059D01*
X5571237Y-18267535D01*
X5590284Y-18258011D01*
X5742665Y-18438964D02*
X5752189Y-18448487D01*
X5742665Y-18458011D01*
X5733141Y-18448487D01*
X5742665Y-18438964D01*
X5742665Y-18458011D01*
X5875998Y-18258011D02*
X5895046Y-18258011D01*
X5914094Y-18267535D01*
X5923617Y-18277059D01*
X5933141Y-18296106D01*
X5942665Y-18334202D01*
X5942665Y-18381821D01*
X5933141Y-18419916D01*
X5923617Y-18438964D01*
X5914094Y-18448487D01*
X5895046Y-18458011D01*
X5875998Y-18458011D01*
X5856951Y-18448487D01*
X5847427Y-18438964D01*
X5837903Y-18419916D01*
X5828379Y-18381821D01*
X5828379Y-18334202D01*
X5837903Y-18296106D01*
X5847427Y-18277059D01*
X5856951Y-18267535D01*
X5875998Y-18258011D01*
X6018856Y-18277059D02*
X6028379Y-18267535D01*
X6047427Y-18258011D01*
X6095046Y-18258011D01*
X6114094Y-18267535D01*
X6123617Y-18277059D01*
X6133141Y-18296106D01*
X6133141Y-18315154D01*
X6123617Y-18343725D01*
X6009332Y-18458011D01*
X6133141Y-18458011D01*
X6228379Y-18458011D02*
X6266475Y-18458011D01*
X6285522Y-18448487D01*
X6295046Y-18438964D01*
X6314094Y-18410392D01*
X6323617Y-18372297D01*
X6323617Y-18296106D01*
X6314094Y-18277059D01*
X6304570Y-18267535D01*
X6285522Y-18258011D01*
X6247427Y-18258011D01*
X6228379Y-18267535D01*
X6218856Y-18277059D01*
X6209332Y-18296106D01*
X6209332Y-18343725D01*
X6218856Y-18362773D01*
X6228379Y-18372297D01*
X6247427Y-18381821D01*
X6285522Y-18381821D01*
X6304570Y-18372297D01*
X6314094Y-18362773D01*
X6323617Y-18343725D01*
X6504570Y-18258011D02*
X6409332Y-18258011D01*
X6399808Y-18353249D01*
X6409332Y-18343725D01*
X6428379Y-18334202D01*
X6475998Y-18334202D01*
X6495046Y-18343725D01*
X6504570Y-18353249D01*
X6514094Y-18372297D01*
X6514094Y-18419916D01*
X6504570Y-18438964D01*
X6495046Y-18448487D01*
X6475998Y-18458011D01*
X6428379Y-18458011D01*
X6409332Y-18448487D01*
X6399808Y-18438964D01*
X6590284Y-18258011D02*
X6590284Y-18296106D01*
X6666475Y-18258011D02*
X6666475Y-18296106D01*
X6961713Y-18534202D02*
X6952189Y-18524678D01*
X6933141Y-18496106D01*
X6923617Y-18477059D01*
X6914094Y-18448487D01*
X6904570Y-18400868D01*
X6904570Y-18362773D01*
X6914094Y-18315154D01*
X6923617Y-18286583D01*
X6933141Y-18267535D01*
X6952189Y-18238964D01*
X6961713Y-18229440D01*
X7018856Y-18258011D02*
X7142665Y-18258011D01*
X7075998Y-18334202D01*
X7104570Y-18334202D01*
X7123617Y-18343725D01*
X7133141Y-18353249D01*
X7142665Y-18372297D01*
X7142665Y-18419916D01*
X7133141Y-18438964D01*
X7123617Y-18448487D01*
X7104570Y-18458011D01*
X7047427Y-18458011D01*
X7028379Y-18448487D01*
X7018856Y-18438964D01*
X7380760Y-18458011D02*
X7380760Y-18258011D01*
X7466475Y-18458011D02*
X7466475Y-18353249D01*
X7456951Y-18334202D01*
X7437903Y-18324678D01*
X7409332Y-18324678D01*
X7390284Y-18334202D01*
X7380760Y-18343725D01*
X7590284Y-18458011D02*
X7571236Y-18448487D01*
X7561713Y-18438964D01*
X7552189Y-18419916D01*
X7552189Y-18362773D01*
X7561713Y-18343725D01*
X7571236Y-18334202D01*
X7590284Y-18324678D01*
X7618856Y-18324678D01*
X7637903Y-18334202D01*
X7647427Y-18343725D01*
X7656951Y-18362773D01*
X7656951Y-18419916D01*
X7647427Y-18438964D01*
X7637903Y-18448487D01*
X7618856Y-18458011D01*
X7590284Y-18458011D01*
X7771236Y-18458011D02*
X7752189Y-18448487D01*
X7742665Y-18429440D01*
X7742665Y-18258011D01*
X7923617Y-18448487D02*
X7904570Y-18458011D01*
X7866475Y-18458011D01*
X7847427Y-18448487D01*
X7837903Y-18429440D01*
X7837903Y-18353249D01*
X7847427Y-18334202D01*
X7866475Y-18324678D01*
X7904570Y-18324678D01*
X7923617Y-18334202D01*
X7933141Y-18353249D01*
X7933141Y-18372297D01*
X7837903Y-18391345D01*
X8009332Y-18448487D02*
X8028379Y-18458011D01*
X8066475Y-18458011D01*
X8085522Y-18448487D01*
X8095046Y-18429440D01*
X8095046Y-18419916D01*
X8085522Y-18400868D01*
X8066475Y-18391345D01*
X8037903Y-18391345D01*
X8018856Y-18381821D01*
X8009332Y-18362773D01*
X8009332Y-18353249D01*
X8018856Y-18334202D01*
X8037903Y-18324678D01*
X8066475Y-18324678D01*
X8085522Y-18334202D01*
X8161713Y-18534202D02*
X8171236Y-18524678D01*
X8190284Y-18496106D01*
X8199808Y-18477059D01*
X8209332Y-18448487D01*
X8218856Y-18400868D01*
X8218856Y-18362773D01*
X8209332Y-18315154D01*
X8199808Y-18286583D01*
X8190284Y-18267535D01*
X8171236Y-18238964D01*
X8161713Y-18229440D01*
D16*
X3309808Y-18591535D02*
X3389808Y-18671535D01*
X3389808Y-18591535D02*
X3309808Y-18671535D01*
X3349808Y-18591535D02*
X3349808Y-18671535D01*
X3309808Y-18631535D02*
X3389808Y-18631535D01*
D10*
X3685522Y-18522011D02*
X3704570Y-18522011D01*
X3723617Y-18531535D01*
X3733141Y-18541059D01*
X3742665Y-18560106D01*
X3752189Y-18598202D01*
X3752189Y-18645821D01*
X3742665Y-18683916D01*
X3733141Y-18702964D01*
X3723617Y-18712487D01*
X3704570Y-18722011D01*
X3685522Y-18722011D01*
X3666475Y-18712487D01*
X3656951Y-18702964D01*
X3647427Y-18683916D01*
X3637903Y-18645821D01*
X3637903Y-18598202D01*
X3647427Y-18560106D01*
X3656951Y-18541059D01*
X3666475Y-18531535D01*
X3685522Y-18522011D01*
X3837903Y-18702964D02*
X3847427Y-18712487D01*
X3837903Y-18722011D01*
X3828379Y-18712487D01*
X3837903Y-18702964D01*
X3837903Y-18722011D01*
X3961713Y-18607725D02*
X3942665Y-18598202D01*
X3933141Y-18588678D01*
X3923617Y-18569630D01*
X3923617Y-18560106D01*
X3933141Y-18541059D01*
X3942665Y-18531535D01*
X3961713Y-18522011D01*
X3999808Y-18522011D01*
X4018856Y-18531535D01*
X4028379Y-18541059D01*
X4037903Y-18560106D01*
X4037903Y-18569630D01*
X4028379Y-18588678D01*
X4018856Y-18598202D01*
X3999808Y-18607725D01*
X3961713Y-18607725D01*
X3942665Y-18617249D01*
X3933141Y-18626773D01*
X3923617Y-18645821D01*
X3923617Y-18683916D01*
X3933141Y-18702964D01*
X3942665Y-18712487D01*
X3961713Y-18722011D01*
X3999808Y-18722011D01*
X4018856Y-18712487D01*
X4028379Y-18702964D01*
X4037903Y-18683916D01*
X4037903Y-18645821D01*
X4028379Y-18626773D01*
X4018856Y-18617249D01*
X3999808Y-18607725D01*
X4161713Y-18522011D02*
X4180760Y-18522011D01*
X4199808Y-18531535D01*
X4209332Y-18541059D01*
X4218856Y-18560106D01*
X4228379Y-18598202D01*
X4228379Y-18645821D01*
X4218856Y-18683916D01*
X4209332Y-18702964D01*
X4199808Y-18712487D01*
X4180760Y-18722011D01*
X4161713Y-18722011D01*
X4142665Y-18712487D01*
X4133141Y-18702964D01*
X4123617Y-18683916D01*
X4114094Y-18645821D01*
X4114094Y-18598202D01*
X4123617Y-18560106D01*
X4133141Y-18541059D01*
X4142665Y-18531535D01*
X4161713Y-18522011D01*
X4352189Y-18522011D02*
X4371237Y-18522011D01*
X4390284Y-18531535D01*
X4399808Y-18541059D01*
X4409332Y-18560106D01*
X4418856Y-18598202D01*
X4418856Y-18645821D01*
X4409332Y-18683916D01*
X4399808Y-18702964D01*
X4390284Y-18712487D01*
X4371237Y-18722011D01*
X4352189Y-18722011D01*
X4333141Y-18712487D01*
X4323618Y-18702964D01*
X4314094Y-18683916D01*
X4304570Y-18645821D01*
X4304570Y-18598202D01*
X4314094Y-18560106D01*
X4323618Y-18541059D01*
X4333141Y-18531535D01*
X4352189Y-18522011D01*
X4504570Y-18722011D02*
X4504570Y-18588678D01*
X4504570Y-18607725D02*
X4514094Y-18598202D01*
X4533141Y-18588678D01*
X4561713Y-18588678D01*
X4580760Y-18598202D01*
X4590284Y-18617249D01*
X4590284Y-18722011D01*
X4590284Y-18617249D02*
X4599808Y-18598202D01*
X4618856Y-18588678D01*
X4647427Y-18588678D01*
X4666475Y-18598202D01*
X4675998Y-18617249D01*
X4675998Y-18722011D01*
X4771237Y-18722011D02*
X4771237Y-18588678D01*
X4771237Y-18607725D02*
X4780760Y-18598202D01*
X4799808Y-18588678D01*
X4828379Y-18588678D01*
X4847427Y-18598202D01*
X4856951Y-18617249D01*
X4856951Y-18722011D01*
X4856951Y-18617249D02*
X4866475Y-18598202D01*
X4885522Y-18588678D01*
X4914094Y-18588678D01*
X4933141Y-18598202D01*
X4942665Y-18617249D01*
X4942665Y-18722011D01*
X5333141Y-18512487D02*
X5161713Y-18769630D01*
X5590284Y-18522011D02*
X5609332Y-18522011D01*
X5628379Y-18531535D01*
X5637903Y-18541059D01*
X5647427Y-18560106D01*
X5656951Y-18598202D01*
X5656951Y-18645821D01*
X5647427Y-18683916D01*
X5637903Y-18702964D01*
X5628379Y-18712487D01*
X5609332Y-18722011D01*
X5590284Y-18722011D01*
X5571237Y-18712487D01*
X5561713Y-18702964D01*
X5552189Y-18683916D01*
X5542665Y-18645821D01*
X5542665Y-18598202D01*
X5552189Y-18560106D01*
X5561713Y-18541059D01*
X5571237Y-18531535D01*
X5590284Y-18522011D01*
X5742665Y-18702964D02*
X5752189Y-18712487D01*
X5742665Y-18722011D01*
X5733141Y-18712487D01*
X5742665Y-18702964D01*
X5742665Y-18722011D01*
X5875998Y-18522011D02*
X5895046Y-18522011D01*
X5914094Y-18531535D01*
X5923617Y-18541059D01*
X5933141Y-18560106D01*
X5942665Y-18598202D01*
X5942665Y-18645821D01*
X5933141Y-18683916D01*
X5923617Y-18702964D01*
X5914094Y-18712487D01*
X5895046Y-18722011D01*
X5875998Y-18722011D01*
X5856951Y-18712487D01*
X5847427Y-18702964D01*
X5837903Y-18683916D01*
X5828379Y-18645821D01*
X5828379Y-18598202D01*
X5837903Y-18560106D01*
X5847427Y-18541059D01*
X5856951Y-18531535D01*
X5875998Y-18522011D01*
X6009332Y-18522011D02*
X6133141Y-18522011D01*
X6066475Y-18598202D01*
X6095046Y-18598202D01*
X6114094Y-18607725D01*
X6123617Y-18617249D01*
X6133141Y-18636297D01*
X6133141Y-18683916D01*
X6123617Y-18702964D01*
X6114094Y-18712487D01*
X6095046Y-18722011D01*
X6037903Y-18722011D01*
X6018856Y-18712487D01*
X6009332Y-18702964D01*
X6323617Y-18722011D02*
X6209332Y-18722011D01*
X6266475Y-18722011D02*
X6266475Y-18522011D01*
X6247427Y-18550583D01*
X6228379Y-18569630D01*
X6209332Y-18579154D01*
X6504570Y-18522011D02*
X6409332Y-18522011D01*
X6399808Y-18617249D01*
X6409332Y-18607725D01*
X6428379Y-18598202D01*
X6475998Y-18598202D01*
X6495046Y-18607725D01*
X6504570Y-18617249D01*
X6514094Y-18636297D01*
X6514094Y-18683916D01*
X6504570Y-18702964D01*
X6495046Y-18712487D01*
X6475998Y-18722011D01*
X6428379Y-18722011D01*
X6409332Y-18712487D01*
X6399808Y-18702964D01*
X6590284Y-18522011D02*
X6590284Y-18560106D01*
X6666475Y-18522011D02*
X6666475Y-18560106D01*
X6961713Y-18798202D02*
X6952189Y-18788678D01*
X6933141Y-18760106D01*
X6923617Y-18741059D01*
X6914094Y-18712487D01*
X6904570Y-18664868D01*
X6904570Y-18626773D01*
X6914094Y-18579154D01*
X6923617Y-18550583D01*
X6933141Y-18531535D01*
X6952189Y-18502964D01*
X6961713Y-18493440D01*
X7018856Y-18522011D02*
X7142665Y-18522011D01*
X7075998Y-18598202D01*
X7104570Y-18598202D01*
X7123617Y-18607725D01*
X7133141Y-18617249D01*
X7142665Y-18636297D01*
X7142665Y-18683916D01*
X7133141Y-18702964D01*
X7123617Y-18712487D01*
X7104570Y-18722011D01*
X7047427Y-18722011D01*
X7028379Y-18712487D01*
X7018856Y-18702964D01*
X7380760Y-18722011D02*
X7380760Y-18522011D01*
X7466475Y-18722011D02*
X7466475Y-18617249D01*
X7456951Y-18598202D01*
X7437903Y-18588678D01*
X7409332Y-18588678D01*
X7390284Y-18598202D01*
X7380760Y-18607725D01*
X7590284Y-18722011D02*
X7571236Y-18712487D01*
X7561713Y-18702964D01*
X7552189Y-18683916D01*
X7552189Y-18626773D01*
X7561713Y-18607725D01*
X7571236Y-18598202D01*
X7590284Y-18588678D01*
X7618856Y-18588678D01*
X7637903Y-18598202D01*
X7647427Y-18607725D01*
X7656951Y-18626773D01*
X7656951Y-18683916D01*
X7647427Y-18702964D01*
X7637903Y-18712487D01*
X7618856Y-18722011D01*
X7590284Y-18722011D01*
X7771236Y-18722011D02*
X7752189Y-18712487D01*
X7742665Y-18693440D01*
X7742665Y-18522011D01*
X7923617Y-18712487D02*
X7904570Y-18722011D01*
X7866475Y-18722011D01*
X7847427Y-18712487D01*
X7837903Y-18693440D01*
X7837903Y-18617249D01*
X7847427Y-18598202D01*
X7866475Y-18588678D01*
X7904570Y-18588678D01*
X7923617Y-18598202D01*
X7933141Y-18617249D01*
X7933141Y-18636297D01*
X7837903Y-18655345D01*
X8009332Y-18712487D02*
X8028379Y-18722011D01*
X8066475Y-18722011D01*
X8085522Y-18712487D01*
X8095046Y-18693440D01*
X8095046Y-18683916D01*
X8085522Y-18664868D01*
X8066475Y-18655345D01*
X8037903Y-18655345D01*
X8018856Y-18645821D01*
X8009332Y-18626773D01*
X8009332Y-18617249D01*
X8018856Y-18598202D01*
X8037903Y-18588678D01*
X8066475Y-18588678D01*
X8085522Y-18598202D01*
X8161713Y-18798202D02*
X8171236Y-18788678D01*
X8190284Y-18760106D01*
X8199808Y-18741059D01*
X8209332Y-18712487D01*
X8218856Y-18664868D01*
X8218856Y-18626773D01*
X8209332Y-18579154D01*
X8199808Y-18550583D01*
X8190284Y-18531535D01*
X8171236Y-18502964D01*
X8161713Y-18493440D01*
D17*
X3299808Y-18850535D02*
X3389808Y-18940535D01*
X3389808Y-18850535D02*
X3299808Y-18940535D01*
X3376628Y-18927355D02*
X3376628Y-18863715D01*
X3312988Y-18863715D01*
X3312988Y-18927355D01*
X3376628Y-18927355D01*
D10*
X3685522Y-18786011D02*
X3704570Y-18786011D01*
X3723617Y-18795535D01*
X3733141Y-18805059D01*
X3742665Y-18824106D01*
X3752189Y-18862202D01*
X3752189Y-18909821D01*
X3742665Y-18947916D01*
X3733141Y-18966964D01*
X3723617Y-18976487D01*
X3704570Y-18986011D01*
X3685522Y-18986011D01*
X3666475Y-18976487D01*
X3656951Y-18966964D01*
X3647427Y-18947916D01*
X3637903Y-18909821D01*
X3637903Y-18862202D01*
X3647427Y-18824106D01*
X3656951Y-18805059D01*
X3666475Y-18795535D01*
X3685522Y-18786011D01*
X3837903Y-18966964D02*
X3847427Y-18976487D01*
X3837903Y-18986011D01*
X3828379Y-18976487D01*
X3837903Y-18966964D01*
X3837903Y-18986011D01*
X3942665Y-18986011D02*
X3980760Y-18986011D01*
X3999808Y-18976487D01*
X4009332Y-18966964D01*
X4028379Y-18938392D01*
X4037903Y-18900297D01*
X4037903Y-18824106D01*
X4028379Y-18805059D01*
X4018856Y-18795535D01*
X3999808Y-18786011D01*
X3961713Y-18786011D01*
X3942665Y-18795535D01*
X3933141Y-18805059D01*
X3923617Y-18824106D01*
X3923617Y-18871725D01*
X3933141Y-18890773D01*
X3942665Y-18900297D01*
X3961713Y-18909821D01*
X3999808Y-18909821D01*
X4018856Y-18900297D01*
X4028379Y-18890773D01*
X4037903Y-18871725D01*
X4161713Y-18786011D02*
X4180760Y-18786011D01*
X4199808Y-18795535D01*
X4209332Y-18805059D01*
X4218856Y-18824106D01*
X4228379Y-18862202D01*
X4228379Y-18909821D01*
X4218856Y-18947916D01*
X4209332Y-18966964D01*
X4199808Y-18976487D01*
X4180760Y-18986011D01*
X4161713Y-18986011D01*
X4142665Y-18976487D01*
X4133141Y-18966964D01*
X4123617Y-18947916D01*
X4114094Y-18909821D01*
X4114094Y-18862202D01*
X4123617Y-18824106D01*
X4133141Y-18805059D01*
X4142665Y-18795535D01*
X4161713Y-18786011D01*
X4352189Y-18786011D02*
X4371237Y-18786011D01*
X4390284Y-18795535D01*
X4399808Y-18805059D01*
X4409332Y-18824106D01*
X4418856Y-18862202D01*
X4418856Y-18909821D01*
X4409332Y-18947916D01*
X4399808Y-18966964D01*
X4390284Y-18976487D01*
X4371237Y-18986011D01*
X4352189Y-18986011D01*
X4333141Y-18976487D01*
X4323618Y-18966964D01*
X4314094Y-18947916D01*
X4304570Y-18909821D01*
X4304570Y-18862202D01*
X4314094Y-18824106D01*
X4323618Y-18805059D01*
X4333141Y-18795535D01*
X4352189Y-18786011D01*
X4504570Y-18986011D02*
X4504570Y-18852678D01*
X4504570Y-18871725D02*
X4514094Y-18862202D01*
X4533141Y-18852678D01*
X4561713Y-18852678D01*
X4580760Y-18862202D01*
X4590284Y-18881249D01*
X4590284Y-18986011D01*
X4590284Y-18881249D02*
X4599808Y-18862202D01*
X4618856Y-18852678D01*
X4647427Y-18852678D01*
X4666475Y-18862202D01*
X4675998Y-18881249D01*
X4675998Y-18986011D01*
X4771237Y-18986011D02*
X4771237Y-18852678D01*
X4771237Y-18871725D02*
X4780760Y-18862202D01*
X4799808Y-18852678D01*
X4828379Y-18852678D01*
X4847427Y-18862202D01*
X4856951Y-18881249D01*
X4856951Y-18986011D01*
X4856951Y-18881249D02*
X4866475Y-18862202D01*
X4885522Y-18852678D01*
X4914094Y-18852678D01*
X4933141Y-18862202D01*
X4942665Y-18881249D01*
X4942665Y-18986011D01*
X5333141Y-18776487D02*
X5161713Y-19033630D01*
X5590284Y-18786011D02*
X5609332Y-18786011D01*
X5628379Y-18795535D01*
X5637903Y-18805059D01*
X5647427Y-18824106D01*
X5656951Y-18862202D01*
X5656951Y-18909821D01*
X5647427Y-18947916D01*
X5637903Y-18966964D01*
X5628379Y-18976487D01*
X5609332Y-18986011D01*
X5590284Y-18986011D01*
X5571237Y-18976487D01*
X5561713Y-18966964D01*
X5552189Y-18947916D01*
X5542665Y-18909821D01*
X5542665Y-18862202D01*
X5552189Y-18824106D01*
X5561713Y-18805059D01*
X5571237Y-18795535D01*
X5590284Y-18786011D01*
X5742665Y-18966964D02*
X5752189Y-18976487D01*
X5742665Y-18986011D01*
X5733141Y-18976487D01*
X5742665Y-18966964D01*
X5742665Y-18986011D01*
X5875998Y-18786011D02*
X5895046Y-18786011D01*
X5914094Y-18795535D01*
X5923617Y-18805059D01*
X5933141Y-18824106D01*
X5942665Y-18862202D01*
X5942665Y-18909821D01*
X5933141Y-18947916D01*
X5923617Y-18966964D01*
X5914094Y-18976487D01*
X5895046Y-18986011D01*
X5875998Y-18986011D01*
X5856951Y-18976487D01*
X5847427Y-18966964D01*
X5837903Y-18947916D01*
X5828379Y-18909821D01*
X5828379Y-18862202D01*
X5837903Y-18824106D01*
X5847427Y-18805059D01*
X5856951Y-18795535D01*
X5875998Y-18786011D01*
X6009332Y-18786011D02*
X6133141Y-18786011D01*
X6066475Y-18862202D01*
X6095046Y-18862202D01*
X6114094Y-18871725D01*
X6123617Y-18881249D01*
X6133141Y-18900297D01*
X6133141Y-18947916D01*
X6123617Y-18966964D01*
X6114094Y-18976487D01*
X6095046Y-18986011D01*
X6037903Y-18986011D01*
X6018856Y-18976487D01*
X6009332Y-18966964D01*
X6314094Y-18786011D02*
X6218856Y-18786011D01*
X6209332Y-18881249D01*
X6218856Y-18871725D01*
X6237903Y-18862202D01*
X6285522Y-18862202D01*
X6304570Y-18871725D01*
X6314094Y-18881249D01*
X6323617Y-18900297D01*
X6323617Y-18947916D01*
X6314094Y-18966964D01*
X6304570Y-18976487D01*
X6285522Y-18986011D01*
X6237903Y-18986011D01*
X6218856Y-18976487D01*
X6209332Y-18966964D01*
X6495046Y-18852678D02*
X6495046Y-18986011D01*
X6447427Y-18776487D02*
X6399808Y-18919345D01*
X6523617Y-18919345D01*
X6590284Y-18786011D02*
X6590284Y-18824106D01*
X6666475Y-18786011D02*
X6666475Y-18824106D01*
X6961713Y-19062202D02*
X6952189Y-19052678D01*
X6933141Y-19024106D01*
X6923617Y-19005059D01*
X6914094Y-18976487D01*
X6904570Y-18928868D01*
X6904570Y-18890773D01*
X6914094Y-18843154D01*
X6923617Y-18814583D01*
X6933141Y-18795535D01*
X6952189Y-18766964D01*
X6961713Y-18757440D01*
X7066475Y-18871725D02*
X7047427Y-18862202D01*
X7037903Y-18852678D01*
X7028379Y-18833630D01*
X7028379Y-18824106D01*
X7037903Y-18805059D01*
X7047427Y-18795535D01*
X7066475Y-18786011D01*
X7104570Y-18786011D01*
X7123617Y-18795535D01*
X7133141Y-18805059D01*
X7142665Y-18824106D01*
X7142665Y-18833630D01*
X7133141Y-18852678D01*
X7123617Y-18862202D01*
X7104570Y-18871725D01*
X7066475Y-18871725D01*
X7047427Y-18881249D01*
X7037903Y-18890773D01*
X7028379Y-18909821D01*
X7028379Y-18947916D01*
X7037903Y-18966964D01*
X7047427Y-18976487D01*
X7066475Y-18986011D01*
X7104570Y-18986011D01*
X7123617Y-18976487D01*
X7133141Y-18966964D01*
X7142665Y-18947916D01*
X7142665Y-18909821D01*
X7133141Y-18890773D01*
X7123617Y-18881249D01*
X7104570Y-18871725D01*
X7380760Y-18986011D02*
X7380760Y-18786011D01*
X7466475Y-18986011D02*
X7466475Y-18881249D01*
X7456951Y-18862202D01*
X7437903Y-18852678D01*
X7409332Y-18852678D01*
X7390284Y-18862202D01*
X7380760Y-18871725D01*
X7590284Y-18986011D02*
X7571236Y-18976487D01*
X7561713Y-18966964D01*
X7552189Y-18947916D01*
X7552189Y-18890773D01*
X7561713Y-18871725D01*
X7571236Y-18862202D01*
X7590284Y-18852678D01*
X7618856Y-18852678D01*
X7637903Y-18862202D01*
X7647427Y-18871725D01*
X7656951Y-18890773D01*
X7656951Y-18947916D01*
X7647427Y-18966964D01*
X7637903Y-18976487D01*
X7618856Y-18986011D01*
X7590284Y-18986011D01*
X7771236Y-18986011D02*
X7752189Y-18976487D01*
X7742665Y-18957440D01*
X7742665Y-18786011D01*
X7923617Y-18976487D02*
X7904570Y-18986011D01*
X7866475Y-18986011D01*
X7847427Y-18976487D01*
X7837903Y-18957440D01*
X7837903Y-18881249D01*
X7847427Y-18862202D01*
X7866475Y-18852678D01*
X7904570Y-18852678D01*
X7923617Y-18862202D01*
X7933141Y-18881249D01*
X7933141Y-18900297D01*
X7837903Y-18919345D01*
X8009332Y-18976487D02*
X8028379Y-18986011D01*
X8066475Y-18986011D01*
X8085522Y-18976487D01*
X8095046Y-18957440D01*
X8095046Y-18947916D01*
X8085522Y-18928868D01*
X8066475Y-18919345D01*
X8037903Y-18919345D01*
X8018856Y-18909821D01*
X8009332Y-18890773D01*
X8009332Y-18881249D01*
X8018856Y-18862202D01*
X8037903Y-18852678D01*
X8066475Y-18852678D01*
X8085522Y-18862202D01*
X8161713Y-19062202D02*
X8171236Y-19052678D01*
X8190284Y-19024106D01*
X8199808Y-19005059D01*
X8209332Y-18976487D01*
X8218856Y-18928868D01*
X8218856Y-18890773D01*
X8209332Y-18843154D01*
X8199808Y-18814583D01*
X8190284Y-18795535D01*
X8171236Y-18766964D01*
X8161713Y-18757440D01*
D18*
X3290808Y-19110035D02*
X3389808Y-19209035D01*
X3389808Y-19110035D02*
X3290808Y-19209035D01*
X3340308Y-19209035D02*
X3389808Y-19159535D01*
X3340308Y-19110035D01*
X3290808Y-19159535D01*
X3340308Y-19209035D01*
D10*
X3685522Y-19050011D02*
X3704570Y-19050011D01*
X3723617Y-19059535D01*
X3733141Y-19069059D01*
X3742665Y-19088106D01*
X3752189Y-19126202D01*
X3752189Y-19173821D01*
X3742665Y-19211916D01*
X3733141Y-19230964D01*
X3723617Y-19240487D01*
X3704570Y-19250011D01*
X3685522Y-19250011D01*
X3666475Y-19240487D01*
X3656951Y-19230964D01*
X3647427Y-19211916D01*
X3637903Y-19173821D01*
X3637903Y-19126202D01*
X3647427Y-19088106D01*
X3656951Y-19069059D01*
X3666475Y-19059535D01*
X3685522Y-19050011D01*
X3837903Y-19230964D02*
X3847427Y-19240487D01*
X3837903Y-19250011D01*
X3828379Y-19240487D01*
X3837903Y-19230964D01*
X3837903Y-19250011D01*
X3942665Y-19250011D02*
X3980760Y-19250011D01*
X3999808Y-19240487D01*
X4009332Y-19230964D01*
X4028379Y-19202392D01*
X4037903Y-19164297D01*
X4037903Y-19088106D01*
X4028379Y-19069059D01*
X4018856Y-19059535D01*
X3999808Y-19050011D01*
X3961713Y-19050011D01*
X3942665Y-19059535D01*
X3933141Y-19069059D01*
X3923617Y-19088106D01*
X3923617Y-19135725D01*
X3933141Y-19154773D01*
X3942665Y-19164297D01*
X3961713Y-19173821D01*
X3999808Y-19173821D01*
X4018856Y-19164297D01*
X4028379Y-19154773D01*
X4037903Y-19135725D01*
X4133141Y-19250011D02*
X4171236Y-19250011D01*
X4190284Y-19240487D01*
X4199808Y-19230964D01*
X4218856Y-19202392D01*
X4228379Y-19164297D01*
X4228379Y-19088106D01*
X4218856Y-19069059D01*
X4209332Y-19059535D01*
X4190284Y-19050011D01*
X4152189Y-19050011D01*
X4133141Y-19059535D01*
X4123617Y-19069059D01*
X4114094Y-19088106D01*
X4114094Y-19135725D01*
X4123617Y-19154773D01*
X4133141Y-19164297D01*
X4152189Y-19173821D01*
X4190284Y-19173821D01*
X4209332Y-19164297D01*
X4218856Y-19154773D01*
X4228379Y-19135725D01*
X4352189Y-19050011D02*
X4371237Y-19050011D01*
X4390284Y-19059535D01*
X4399808Y-19069059D01*
X4409332Y-19088106D01*
X4418856Y-19126202D01*
X4418856Y-19173821D01*
X4409332Y-19211916D01*
X4399808Y-19230964D01*
X4390284Y-19240487D01*
X4371237Y-19250011D01*
X4352189Y-19250011D01*
X4333141Y-19240487D01*
X4323618Y-19230964D01*
X4314094Y-19211916D01*
X4304570Y-19173821D01*
X4304570Y-19126202D01*
X4314094Y-19088106D01*
X4323618Y-19069059D01*
X4333141Y-19059535D01*
X4352189Y-19050011D01*
X4504570Y-19250011D02*
X4504570Y-19116678D01*
X4504570Y-19135725D02*
X4514094Y-19126202D01*
X4533141Y-19116678D01*
X4561713Y-19116678D01*
X4580760Y-19126202D01*
X4590284Y-19145249D01*
X4590284Y-19250011D01*
X4590284Y-19145249D02*
X4599808Y-19126202D01*
X4618856Y-19116678D01*
X4647427Y-19116678D01*
X4666475Y-19126202D01*
X4675998Y-19145249D01*
X4675998Y-19250011D01*
X4771237Y-19250011D02*
X4771237Y-19116678D01*
X4771237Y-19135725D02*
X4780760Y-19126202D01*
X4799808Y-19116678D01*
X4828379Y-19116678D01*
X4847427Y-19126202D01*
X4856951Y-19145249D01*
X4856951Y-19250011D01*
X4856951Y-19145249D02*
X4866475Y-19126202D01*
X4885522Y-19116678D01*
X4914094Y-19116678D01*
X4933141Y-19126202D01*
X4942665Y-19145249D01*
X4942665Y-19250011D01*
X5333141Y-19040487D02*
X5161713Y-19297630D01*
X5590284Y-19050011D02*
X5609332Y-19050011D01*
X5628379Y-19059535D01*
X5637903Y-19069059D01*
X5647427Y-19088106D01*
X5656951Y-19126202D01*
X5656951Y-19173821D01*
X5647427Y-19211916D01*
X5637903Y-19230964D01*
X5628379Y-19240487D01*
X5609332Y-19250011D01*
X5590284Y-19250011D01*
X5571237Y-19240487D01*
X5561713Y-19230964D01*
X5552189Y-19211916D01*
X5542665Y-19173821D01*
X5542665Y-19126202D01*
X5552189Y-19088106D01*
X5561713Y-19069059D01*
X5571237Y-19059535D01*
X5590284Y-19050011D01*
X5742665Y-19230964D02*
X5752189Y-19240487D01*
X5742665Y-19250011D01*
X5733141Y-19240487D01*
X5742665Y-19230964D01*
X5742665Y-19250011D01*
X5875998Y-19050011D02*
X5895046Y-19050011D01*
X5914094Y-19059535D01*
X5923617Y-19069059D01*
X5933141Y-19088106D01*
X5942665Y-19126202D01*
X5942665Y-19173821D01*
X5933141Y-19211916D01*
X5923617Y-19230964D01*
X5914094Y-19240487D01*
X5895046Y-19250011D01*
X5875998Y-19250011D01*
X5856951Y-19240487D01*
X5847427Y-19230964D01*
X5837903Y-19211916D01*
X5828379Y-19173821D01*
X5828379Y-19126202D01*
X5837903Y-19088106D01*
X5847427Y-19069059D01*
X5856951Y-19059535D01*
X5875998Y-19050011D01*
X6009332Y-19050011D02*
X6133141Y-19050011D01*
X6066475Y-19126202D01*
X6095046Y-19126202D01*
X6114094Y-19135725D01*
X6123617Y-19145249D01*
X6133141Y-19164297D01*
X6133141Y-19211916D01*
X6123617Y-19230964D01*
X6114094Y-19240487D01*
X6095046Y-19250011D01*
X6037903Y-19250011D01*
X6018856Y-19240487D01*
X6009332Y-19230964D01*
X6228379Y-19250011D02*
X6266475Y-19250011D01*
X6285522Y-19240487D01*
X6295046Y-19230964D01*
X6314094Y-19202392D01*
X6323617Y-19164297D01*
X6323617Y-19088106D01*
X6314094Y-19069059D01*
X6304570Y-19059535D01*
X6285522Y-19050011D01*
X6247427Y-19050011D01*
X6228379Y-19059535D01*
X6218856Y-19069059D01*
X6209332Y-19088106D01*
X6209332Y-19135725D01*
X6218856Y-19154773D01*
X6228379Y-19164297D01*
X6247427Y-19173821D01*
X6285522Y-19173821D01*
X6304570Y-19164297D01*
X6314094Y-19154773D01*
X6323617Y-19135725D01*
X6447427Y-19050011D02*
X6466475Y-19050011D01*
X6485522Y-19059535D01*
X6495046Y-19069059D01*
X6504570Y-19088106D01*
X6514094Y-19126202D01*
X6514094Y-19173821D01*
X6504570Y-19211916D01*
X6495046Y-19230964D01*
X6485522Y-19240487D01*
X6466475Y-19250011D01*
X6447427Y-19250011D01*
X6428379Y-19240487D01*
X6418856Y-19230964D01*
X6409332Y-19211916D01*
X6399808Y-19173821D01*
X6399808Y-19126202D01*
X6409332Y-19088106D01*
X6418856Y-19069059D01*
X6428379Y-19059535D01*
X6447427Y-19050011D01*
X6590284Y-19050011D02*
X6590284Y-19088106D01*
X6666475Y-19050011D02*
X6666475Y-19088106D01*
X6961713Y-19326202D02*
X6952189Y-19316678D01*
X6933141Y-19288106D01*
X6923617Y-19269059D01*
X6914094Y-19240487D01*
X6904570Y-19192868D01*
X6904570Y-19154773D01*
X6914094Y-19107154D01*
X6923617Y-19078583D01*
X6933141Y-19059535D01*
X6952189Y-19030964D01*
X6961713Y-19021440D01*
X7142665Y-19250011D02*
X7028379Y-19250011D01*
X7085522Y-19250011D02*
X7085522Y-19050011D01*
X7066475Y-19078583D01*
X7047427Y-19097630D01*
X7028379Y-19107154D01*
X7218856Y-19069059D02*
X7228379Y-19059535D01*
X7247427Y-19050011D01*
X7295046Y-19050011D01*
X7314094Y-19059535D01*
X7323617Y-19069059D01*
X7333141Y-19088106D01*
X7333141Y-19107154D01*
X7323617Y-19135725D01*
X7209332Y-19250011D01*
X7333141Y-19250011D01*
X7571236Y-19250011D02*
X7571236Y-19050011D01*
X7656951Y-19250011D02*
X7656951Y-19145249D01*
X7647427Y-19126202D01*
X7628379Y-19116678D01*
X7599808Y-19116678D01*
X7580760Y-19126202D01*
X7571236Y-19135725D01*
X7780760Y-19250011D02*
X7761713Y-19240487D01*
X7752189Y-19230964D01*
X7742665Y-19211916D01*
X7742665Y-19154773D01*
X7752189Y-19135725D01*
X7761713Y-19126202D01*
X7780760Y-19116678D01*
X7809332Y-19116678D01*
X7828379Y-19126202D01*
X7837903Y-19135725D01*
X7847427Y-19154773D01*
X7847427Y-19211916D01*
X7837903Y-19230964D01*
X7828379Y-19240487D01*
X7809332Y-19250011D01*
X7780760Y-19250011D01*
X7961713Y-19250011D02*
X7942665Y-19240487D01*
X7933141Y-19221440D01*
X7933141Y-19050011D01*
X8114094Y-19240487D02*
X8095046Y-19250011D01*
X8056951Y-19250011D01*
X8037903Y-19240487D01*
X8028379Y-19221440D01*
X8028379Y-19145249D01*
X8037903Y-19126202D01*
X8056951Y-19116678D01*
X8095046Y-19116678D01*
X8114094Y-19126202D01*
X8123617Y-19145249D01*
X8123617Y-19164297D01*
X8028379Y-19183345D01*
X8199808Y-19240487D02*
X8218856Y-19250011D01*
X8256951Y-19250011D01*
X8275998Y-19240487D01*
X8285522Y-19221440D01*
X8285522Y-19211916D01*
X8275998Y-19192868D01*
X8256951Y-19183345D01*
X8228379Y-19183345D01*
X8209332Y-19173821D01*
X8199808Y-19154773D01*
X8199808Y-19145249D01*
X8209332Y-19126202D01*
X8228379Y-19116678D01*
X8256951Y-19116678D01*
X8275998Y-19126202D01*
X8352189Y-19326202D02*
X8361713Y-19316678D01*
X8380760Y-19288106D01*
X8390284Y-19269059D01*
X8399808Y-19240487D01*
X8409332Y-19192868D01*
X8409332Y-19154773D01*
X8399808Y-19107154D01*
X8390284Y-19078583D01*
X8380760Y-19059535D01*
X8361713Y-19030964D01*
X8352189Y-19021440D01*
D19*
X3339808Y-19373535D02*
X3339808Y-19473535D01*
X3289808Y-19423535D02*
X3389808Y-19423535D01*
X3389808Y-19423535D02*
G75*
G03*
X3389808Y-19423535I-50000J0D01*
G01*
D10*
X3752189Y-19514011D02*
X3637903Y-19514011D01*
X3695046Y-19514011D02*
X3695046Y-19314011D01*
X3675998Y-19342583D01*
X3656951Y-19361630D01*
X3637903Y-19371154D01*
X3837903Y-19494964D02*
X3847427Y-19504487D01*
X3837903Y-19514011D01*
X3828379Y-19504487D01*
X3837903Y-19494964D01*
X3837903Y-19514011D01*
X3971236Y-19314011D02*
X3990284Y-19314011D01*
X4009332Y-19323535D01*
X4018856Y-19333059D01*
X4028379Y-19352106D01*
X4037903Y-19390202D01*
X4037903Y-19437821D01*
X4028379Y-19475916D01*
X4018856Y-19494964D01*
X4009332Y-19504487D01*
X3990284Y-19514011D01*
X3971236Y-19514011D01*
X3952189Y-19504487D01*
X3942665Y-19494964D01*
X3933141Y-19475916D01*
X3923617Y-19437821D01*
X3923617Y-19390202D01*
X3933141Y-19352106D01*
X3942665Y-19333059D01*
X3952189Y-19323535D01*
X3971236Y-19314011D01*
X4161713Y-19314011D02*
X4180760Y-19314011D01*
X4199808Y-19323535D01*
X4209332Y-19333059D01*
X4218856Y-19352106D01*
X4228379Y-19390202D01*
X4228379Y-19437821D01*
X4218856Y-19475916D01*
X4209332Y-19494964D01*
X4199808Y-19504487D01*
X4180760Y-19514011D01*
X4161713Y-19514011D01*
X4142665Y-19504487D01*
X4133141Y-19494964D01*
X4123617Y-19475916D01*
X4114094Y-19437821D01*
X4114094Y-19390202D01*
X4123617Y-19352106D01*
X4133141Y-19333059D01*
X4142665Y-19323535D01*
X4161713Y-19314011D01*
X4352189Y-19314011D02*
X4371237Y-19314011D01*
X4390284Y-19323535D01*
X4399808Y-19333059D01*
X4409332Y-19352106D01*
X4418856Y-19390202D01*
X4418856Y-19437821D01*
X4409332Y-19475916D01*
X4399808Y-19494964D01*
X4390284Y-19504487D01*
X4371237Y-19514011D01*
X4352189Y-19514011D01*
X4333141Y-19504487D01*
X4323618Y-19494964D01*
X4314094Y-19475916D01*
X4304570Y-19437821D01*
X4304570Y-19390202D01*
X4314094Y-19352106D01*
X4323618Y-19333059D01*
X4333141Y-19323535D01*
X4352189Y-19314011D01*
X4504570Y-19514011D02*
X4504570Y-19380678D01*
X4504570Y-19399725D02*
X4514094Y-19390202D01*
X4533141Y-19380678D01*
X4561713Y-19380678D01*
X4580760Y-19390202D01*
X4590284Y-19409249D01*
X4590284Y-19514011D01*
X4590284Y-19409249D02*
X4599808Y-19390202D01*
X4618856Y-19380678D01*
X4647427Y-19380678D01*
X4666475Y-19390202D01*
X4675998Y-19409249D01*
X4675998Y-19514011D01*
X4771237Y-19514011D02*
X4771237Y-19380678D01*
X4771237Y-19399725D02*
X4780760Y-19390202D01*
X4799808Y-19380678D01*
X4828379Y-19380678D01*
X4847427Y-19390202D01*
X4856951Y-19409249D01*
X4856951Y-19514011D01*
X4856951Y-19409249D02*
X4866475Y-19390202D01*
X4885522Y-19380678D01*
X4914094Y-19380678D01*
X4933141Y-19390202D01*
X4942665Y-19409249D01*
X4942665Y-19514011D01*
X5333141Y-19304487D02*
X5161713Y-19561630D01*
X5590284Y-19314011D02*
X5609332Y-19314011D01*
X5628379Y-19323535D01*
X5637903Y-19333059D01*
X5647427Y-19352106D01*
X5656951Y-19390202D01*
X5656951Y-19437821D01*
X5647427Y-19475916D01*
X5637903Y-19494964D01*
X5628379Y-19504487D01*
X5609332Y-19514011D01*
X5590284Y-19514011D01*
X5571237Y-19504487D01*
X5561713Y-19494964D01*
X5552189Y-19475916D01*
X5542665Y-19437821D01*
X5542665Y-19390202D01*
X5552189Y-19352106D01*
X5561713Y-19333059D01*
X5571237Y-19323535D01*
X5590284Y-19314011D01*
X5742665Y-19494964D02*
X5752189Y-19504487D01*
X5742665Y-19514011D01*
X5733141Y-19504487D01*
X5742665Y-19494964D01*
X5742665Y-19514011D01*
X5875998Y-19314011D02*
X5895046Y-19314011D01*
X5914094Y-19323535D01*
X5923617Y-19333059D01*
X5933141Y-19352106D01*
X5942665Y-19390202D01*
X5942665Y-19437821D01*
X5933141Y-19475916D01*
X5923617Y-19494964D01*
X5914094Y-19504487D01*
X5895046Y-19514011D01*
X5875998Y-19514011D01*
X5856951Y-19504487D01*
X5847427Y-19494964D01*
X5837903Y-19475916D01*
X5828379Y-19437821D01*
X5828379Y-19390202D01*
X5837903Y-19352106D01*
X5847427Y-19333059D01*
X5856951Y-19323535D01*
X5875998Y-19314011D01*
X6009332Y-19314011D02*
X6133141Y-19314011D01*
X6066475Y-19390202D01*
X6095046Y-19390202D01*
X6114094Y-19399725D01*
X6123617Y-19409249D01*
X6133141Y-19428297D01*
X6133141Y-19475916D01*
X6123617Y-19494964D01*
X6114094Y-19504487D01*
X6095046Y-19514011D01*
X6037903Y-19514011D01*
X6018856Y-19504487D01*
X6009332Y-19494964D01*
X6228379Y-19514011D02*
X6266475Y-19514011D01*
X6285522Y-19504487D01*
X6295046Y-19494964D01*
X6314094Y-19466392D01*
X6323617Y-19428297D01*
X6323617Y-19352106D01*
X6314094Y-19333059D01*
X6304570Y-19323535D01*
X6285522Y-19314011D01*
X6247427Y-19314011D01*
X6228379Y-19323535D01*
X6218856Y-19333059D01*
X6209332Y-19352106D01*
X6209332Y-19399725D01*
X6218856Y-19418773D01*
X6228379Y-19428297D01*
X6247427Y-19437821D01*
X6285522Y-19437821D01*
X6304570Y-19428297D01*
X6314094Y-19418773D01*
X6323617Y-19399725D01*
X6495046Y-19380678D02*
X6495046Y-19514011D01*
X6447427Y-19304487D02*
X6399808Y-19447345D01*
X6523617Y-19447345D01*
X6590284Y-19314011D02*
X6590284Y-19352106D01*
X6666475Y-19314011D02*
X6666475Y-19352106D01*
X6961713Y-19590202D02*
X6952189Y-19580678D01*
X6933141Y-19552106D01*
X6923617Y-19533059D01*
X6914094Y-19504487D01*
X6904570Y-19456868D01*
X6904570Y-19418773D01*
X6914094Y-19371154D01*
X6923617Y-19342583D01*
X6933141Y-19323535D01*
X6952189Y-19294964D01*
X6961713Y-19285440D01*
X7142665Y-19514011D02*
X7028379Y-19514011D01*
X7085522Y-19514011D02*
X7085522Y-19314011D01*
X7066475Y-19342583D01*
X7047427Y-19361630D01*
X7028379Y-19371154D01*
X7218856Y-19333059D02*
X7228379Y-19323535D01*
X7247427Y-19314011D01*
X7295046Y-19314011D01*
X7314094Y-19323535D01*
X7323617Y-19333059D01*
X7333141Y-19352106D01*
X7333141Y-19371154D01*
X7323617Y-19399725D01*
X7209332Y-19514011D01*
X7333141Y-19514011D01*
X7571236Y-19514011D02*
X7571236Y-19314011D01*
X7656951Y-19514011D02*
X7656951Y-19409249D01*
X7647427Y-19390202D01*
X7628379Y-19380678D01*
X7599808Y-19380678D01*
X7580760Y-19390202D01*
X7571236Y-19399725D01*
X7780760Y-19514011D02*
X7761713Y-19504487D01*
X7752189Y-19494964D01*
X7742665Y-19475916D01*
X7742665Y-19418773D01*
X7752189Y-19399725D01*
X7761713Y-19390202D01*
X7780760Y-19380678D01*
X7809332Y-19380678D01*
X7828379Y-19390202D01*
X7837903Y-19399725D01*
X7847427Y-19418773D01*
X7847427Y-19475916D01*
X7837903Y-19494964D01*
X7828379Y-19504487D01*
X7809332Y-19514011D01*
X7780760Y-19514011D01*
X7961713Y-19514011D02*
X7942665Y-19504487D01*
X7933141Y-19485440D01*
X7933141Y-19314011D01*
X8114094Y-19504487D02*
X8095046Y-19514011D01*
X8056951Y-19514011D01*
X8037903Y-19504487D01*
X8028379Y-19485440D01*
X8028379Y-19409249D01*
X8037903Y-19390202D01*
X8056951Y-19380678D01*
X8095046Y-19380678D01*
X8114094Y-19390202D01*
X8123617Y-19409249D01*
X8123617Y-19428297D01*
X8028379Y-19447345D01*
X8199808Y-19504487D02*
X8218856Y-19514011D01*
X8256951Y-19514011D01*
X8275998Y-19504487D01*
X8285522Y-19485440D01*
X8285522Y-19475916D01*
X8275998Y-19456868D01*
X8256951Y-19447345D01*
X8228379Y-19447345D01*
X8209332Y-19437821D01*
X8199808Y-19418773D01*
X8199808Y-19409249D01*
X8209332Y-19390202D01*
X8228379Y-19380678D01*
X8256951Y-19380678D01*
X8275998Y-19390202D01*
X8352189Y-19590202D02*
X8361713Y-19580678D01*
X8380760Y-19552106D01*
X8390284Y-19533059D01*
X8399808Y-19504487D01*
X8409332Y-19456868D01*
X8409332Y-19418773D01*
X8399808Y-19371154D01*
X8390284Y-19342583D01*
X8380760Y-19323535D01*
X8361713Y-19294964D01*
X8352189Y-19285440D01*
D20*
X3370770Y-19733497D02*
X3370770Y-19641573D01*
X3278846Y-19641573D01*
X3278846Y-19733497D01*
X3370770Y-19733497D01*
X3389808Y-19687535D02*
G75*
G03*
X3389808Y-19687535I-65000J0D01*
G01*
D10*
X3752189Y-19778011D02*
X3637903Y-19778011D01*
X3695046Y-19778011D02*
X3695046Y-19578011D01*
X3675998Y-19606583D01*
X3656951Y-19625630D01*
X3637903Y-19635154D01*
X3837903Y-19758964D02*
X3847427Y-19768487D01*
X3837903Y-19778011D01*
X3828379Y-19768487D01*
X3837903Y-19758964D01*
X3837903Y-19778011D01*
X3914094Y-19578011D02*
X4037903Y-19578011D01*
X3971236Y-19654202D01*
X3999808Y-19654202D01*
X4018856Y-19663725D01*
X4028379Y-19673249D01*
X4037903Y-19692297D01*
X4037903Y-19739916D01*
X4028379Y-19758964D01*
X4018856Y-19768487D01*
X3999808Y-19778011D01*
X3942665Y-19778011D01*
X3923617Y-19768487D01*
X3914094Y-19758964D01*
X4161713Y-19578011D02*
X4180760Y-19578011D01*
X4199808Y-19587535D01*
X4209332Y-19597059D01*
X4218856Y-19616106D01*
X4228379Y-19654202D01*
X4228379Y-19701821D01*
X4218856Y-19739916D01*
X4209332Y-19758964D01*
X4199808Y-19768487D01*
X4180760Y-19778011D01*
X4161713Y-19778011D01*
X4142665Y-19768487D01*
X4133141Y-19758964D01*
X4123617Y-19739916D01*
X4114094Y-19701821D01*
X4114094Y-19654202D01*
X4123617Y-19616106D01*
X4133141Y-19597059D01*
X4142665Y-19587535D01*
X4161713Y-19578011D01*
X4352189Y-19578011D02*
X4371237Y-19578011D01*
X4390284Y-19587535D01*
X4399808Y-19597059D01*
X4409332Y-19616106D01*
X4418856Y-19654202D01*
X4418856Y-19701821D01*
X4409332Y-19739916D01*
X4399808Y-19758964D01*
X4390284Y-19768487D01*
X4371237Y-19778011D01*
X4352189Y-19778011D01*
X4333141Y-19768487D01*
X4323618Y-19758964D01*
X4314094Y-19739916D01*
X4304570Y-19701821D01*
X4304570Y-19654202D01*
X4314094Y-19616106D01*
X4323618Y-19597059D01*
X4333141Y-19587535D01*
X4352189Y-19578011D01*
X4504570Y-19778011D02*
X4504570Y-19644678D01*
X4504570Y-19663725D02*
X4514094Y-19654202D01*
X4533141Y-19644678D01*
X4561713Y-19644678D01*
X4580760Y-19654202D01*
X4590284Y-19673249D01*
X4590284Y-19778011D01*
X4590284Y-19673249D02*
X4599808Y-19654202D01*
X4618856Y-19644678D01*
X4647427Y-19644678D01*
X4666475Y-19654202D01*
X4675998Y-19673249D01*
X4675998Y-19778011D01*
X4771237Y-19778011D02*
X4771237Y-19644678D01*
X4771237Y-19663725D02*
X4780760Y-19654202D01*
X4799808Y-19644678D01*
X4828379Y-19644678D01*
X4847427Y-19654202D01*
X4856951Y-19673249D01*
X4856951Y-19778011D01*
X4856951Y-19673249D02*
X4866475Y-19654202D01*
X4885522Y-19644678D01*
X4914094Y-19644678D01*
X4933141Y-19654202D01*
X4942665Y-19673249D01*
X4942665Y-19778011D01*
X5333141Y-19568487D02*
X5161713Y-19825630D01*
X5590284Y-19578011D02*
X5609332Y-19578011D01*
X5628379Y-19587535D01*
X5637903Y-19597059D01*
X5647427Y-19616106D01*
X5656951Y-19654202D01*
X5656951Y-19701821D01*
X5647427Y-19739916D01*
X5637903Y-19758964D01*
X5628379Y-19768487D01*
X5609332Y-19778011D01*
X5590284Y-19778011D01*
X5571237Y-19768487D01*
X5561713Y-19758964D01*
X5552189Y-19739916D01*
X5542665Y-19701821D01*
X5542665Y-19654202D01*
X5552189Y-19616106D01*
X5561713Y-19597059D01*
X5571237Y-19587535D01*
X5590284Y-19578011D01*
X5742665Y-19758964D02*
X5752189Y-19768487D01*
X5742665Y-19778011D01*
X5733141Y-19768487D01*
X5742665Y-19758964D01*
X5742665Y-19778011D01*
X5875998Y-19578011D02*
X5895046Y-19578011D01*
X5914094Y-19587535D01*
X5923617Y-19597059D01*
X5933141Y-19616106D01*
X5942665Y-19654202D01*
X5942665Y-19701821D01*
X5933141Y-19739916D01*
X5923617Y-19758964D01*
X5914094Y-19768487D01*
X5895046Y-19778011D01*
X5875998Y-19778011D01*
X5856951Y-19768487D01*
X5847427Y-19758964D01*
X5837903Y-19739916D01*
X5828379Y-19701821D01*
X5828379Y-19654202D01*
X5837903Y-19616106D01*
X5847427Y-19597059D01*
X5856951Y-19587535D01*
X5875998Y-19578011D01*
X6123617Y-19578011D02*
X6028379Y-19578011D01*
X6018856Y-19673249D01*
X6028379Y-19663725D01*
X6047427Y-19654202D01*
X6095046Y-19654202D01*
X6114094Y-19663725D01*
X6123617Y-19673249D01*
X6133141Y-19692297D01*
X6133141Y-19739916D01*
X6123617Y-19758964D01*
X6114094Y-19768487D01*
X6095046Y-19778011D01*
X6047427Y-19778011D01*
X6028379Y-19768487D01*
X6018856Y-19758964D01*
X6323617Y-19778011D02*
X6209332Y-19778011D01*
X6266475Y-19778011D02*
X6266475Y-19578011D01*
X6247427Y-19606583D01*
X6228379Y-19625630D01*
X6209332Y-19635154D01*
X6399808Y-19597059D02*
X6409332Y-19587535D01*
X6428379Y-19578011D01*
X6475998Y-19578011D01*
X6495046Y-19587535D01*
X6504570Y-19597059D01*
X6514094Y-19616106D01*
X6514094Y-19635154D01*
X6504570Y-19663725D01*
X6390284Y-19778011D01*
X6514094Y-19778011D01*
X6590284Y-19578011D02*
X6590284Y-19616106D01*
X6666475Y-19578011D02*
X6666475Y-19616106D01*
X6961713Y-19854202D02*
X6952189Y-19844678D01*
X6933141Y-19816106D01*
X6923617Y-19797059D01*
X6914094Y-19768487D01*
X6904570Y-19720868D01*
X6904570Y-19682773D01*
X6914094Y-19635154D01*
X6923617Y-19606583D01*
X6933141Y-19587535D01*
X6952189Y-19558964D01*
X6961713Y-19549440D01*
X7142665Y-19778011D02*
X7028379Y-19778011D01*
X7085522Y-19778011D02*
X7085522Y-19578011D01*
X7066475Y-19606583D01*
X7047427Y-19625630D01*
X7028379Y-19635154D01*
X7218856Y-19597059D02*
X7228379Y-19587535D01*
X7247427Y-19578011D01*
X7295046Y-19578011D01*
X7314094Y-19587535D01*
X7323617Y-19597059D01*
X7333141Y-19616106D01*
X7333141Y-19635154D01*
X7323617Y-19663725D01*
X7209332Y-19778011D01*
X7333141Y-19778011D01*
X7571236Y-19778011D02*
X7571236Y-19578011D01*
X7656951Y-19778011D02*
X7656951Y-19673249D01*
X7647427Y-19654202D01*
X7628379Y-19644678D01*
X7599808Y-19644678D01*
X7580760Y-19654202D01*
X7571236Y-19663725D01*
X7780760Y-19778011D02*
X7761713Y-19768487D01*
X7752189Y-19758964D01*
X7742665Y-19739916D01*
X7742665Y-19682773D01*
X7752189Y-19663725D01*
X7761713Y-19654202D01*
X7780760Y-19644678D01*
X7809332Y-19644678D01*
X7828379Y-19654202D01*
X7837903Y-19663725D01*
X7847427Y-19682773D01*
X7847427Y-19739916D01*
X7837903Y-19758964D01*
X7828379Y-19768487D01*
X7809332Y-19778011D01*
X7780760Y-19778011D01*
X7961713Y-19778011D02*
X7942665Y-19768487D01*
X7933141Y-19749440D01*
X7933141Y-19578011D01*
X8114094Y-19768487D02*
X8095046Y-19778011D01*
X8056951Y-19778011D01*
X8037903Y-19768487D01*
X8028379Y-19749440D01*
X8028379Y-19673249D01*
X8037903Y-19654202D01*
X8056951Y-19644678D01*
X8095046Y-19644678D01*
X8114094Y-19654202D01*
X8123617Y-19673249D01*
X8123617Y-19692297D01*
X8028379Y-19711345D01*
X8199808Y-19768487D02*
X8218856Y-19778011D01*
X8256951Y-19778011D01*
X8275998Y-19768487D01*
X8285522Y-19749440D01*
X8285522Y-19739916D01*
X8275998Y-19720868D01*
X8256951Y-19711345D01*
X8228379Y-19711345D01*
X8209332Y-19701821D01*
X8199808Y-19682773D01*
X8199808Y-19673249D01*
X8209332Y-19654202D01*
X8228379Y-19644678D01*
X8256951Y-19644678D01*
X8275998Y-19654202D01*
X8352189Y-19854202D02*
X8361713Y-19844678D01*
X8380760Y-19816106D01*
X8390284Y-19797059D01*
X8399808Y-19768487D01*
X8409332Y-19720868D01*
X8409332Y-19682773D01*
X8399808Y-19635154D01*
X8390284Y-19606583D01*
X8380760Y-19587535D01*
X8361713Y-19558964D01*
X8352189Y-19549440D01*
M02*
