G04 #@! TF.GenerationSoftware,KiCad,Pcbnew,6.0.7-1.fc36*
G04 #@! TF.CreationDate,2022-08-10T12:40:39+02:00*
G04 #@! TF.ProjectId,LAITS-HW,4c414954-532d-4485-972e-6b696361645f,1.0.1*
G04 #@! TF.SameCoordinates,Original*
G04 #@! TF.FileFunction,Paste,Bot*
G04 #@! TF.FilePolarity,Positive*
%FSLAX46Y46*%
G04 Gerber Fmt 4.6, Leading zero omitted, Abs format (unit mm)*
G04 Created by KiCad (PCBNEW 6.0.7-1.fc36) date 2022-08-10 12:40:39*
%MOMM*%
%LPD*%
G01*
G04 APERTURE LIST*
G04 Aperture macros list*
%AMRoundRect*
0 Rectangle with rounded corners*
0 $1 Rounding radius*
0 $2 $3 $4 $5 $6 $7 $8 $9 X,Y pos of 4 corners*
0 Add a 4 corners polygon primitive as box body*
4,1,4,$2,$3,$4,$5,$6,$7,$8,$9,$2,$3,0*
0 Add four circle primitives for the rounded corners*
1,1,$1+$1,$2,$3*
1,1,$1+$1,$4,$5*
1,1,$1+$1,$6,$7*
1,1,$1+$1,$8,$9*
0 Add four rect primitives between the rounded corners*
20,1,$1+$1,$2,$3,$4,$5,0*
20,1,$1+$1,$4,$5,$6,$7,0*
20,1,$1+$1,$6,$7,$8,$9,0*
20,1,$1+$1,$8,$9,$2,$3,0*%
%AMRotRect*
0 Rectangle, with rotation*
0 The origin of the aperture is its center*
0 $1 length*
0 $2 width*
0 $3 Rotation angle, in degrees counterclockwise*
0 Add horizontal line*
21,1,$1,$2,0,0,$3*%
G04 Aperture macros list end*
%ADD10RoundRect,0.200000X-0.200000X-0.275000X0.200000X-0.275000X0.200000X0.275000X-0.200000X0.275000X0*%
%ADD11RotRect,0.700000X1.200000X288.000000*%
%ADD12RotRect,1.000000X0.800000X288.000000*%
%ADD13RotRect,1.300000X1.900000X288.000000*%
%ADD14RotRect,1.000000X1.200000X288.000000*%
%ADD15RotRect,1.000000X2.800000X288.000000*%
%ADD16RoundRect,0.225000X-0.250000X0.225000X-0.250000X-0.225000X0.250000X-0.225000X0.250000X0.225000X0*%
%ADD17RoundRect,0.225000X0.250000X-0.225000X0.250000X0.225000X-0.250000X0.225000X-0.250000X-0.225000X0*%
%ADD18RotRect,1.270000X5.080000X125.000000*%
%ADD19R,0.300000X0.800000*%
%ADD20RoundRect,0.200000X0.200000X0.275000X-0.200000X0.275000X-0.200000X-0.275000X0.200000X-0.275000X0*%
%ADD21RoundRect,0.028800X0.131200X-0.301200X0.131200X0.301200X-0.131200X0.301200X-0.131200X-0.301200X0*%
%ADD22RoundRect,0.046200X0.163800X-0.283800X0.163800X0.283800X-0.163800X0.283800X-0.163800X-0.283800X0*%
%ADD23RoundRect,0.200000X0.275000X-0.200000X0.275000X0.200000X-0.275000X0.200000X-0.275000X-0.200000X0*%
%ADD24R,6.450000X7.450000*%
G04 APERTURE END LIST*
D10*
X71485000Y-98660000D03*
X73135000Y-98660000D03*
D11*
X116054789Y-106607077D03*
X115714870Y-105560915D03*
X115374951Y-104514753D03*
X115035032Y-103468591D03*
X114695114Y-102422428D03*
X114355195Y-101376266D03*
X114015276Y-100330104D03*
X113675358Y-99283942D03*
X113381792Y-98380438D03*
D12*
X123074319Y-94232256D03*
D13*
X131620908Y-105650041D03*
D14*
X117177768Y-96148161D03*
X116533765Y-108081215D03*
D15*
X127021203Y-92949836D03*
D16*
X71550000Y-100165000D03*
X71550000Y-101715000D03*
D17*
X71530000Y-97135000D03*
X71530000Y-95585000D03*
D18*
X46286595Y-128548886D03*
X58888069Y-146545656D03*
D19*
X108200000Y-108225000D03*
X108700000Y-108225000D03*
X109200000Y-108225000D03*
X109700000Y-108225000D03*
X110200000Y-108225000D03*
X110700000Y-108225000D03*
X111200000Y-108225000D03*
X111700000Y-108225000D03*
X111700000Y-110025000D03*
X111200000Y-110025000D03*
X110700000Y-110025000D03*
X110200000Y-110025000D03*
X109700000Y-110025000D03*
X109200000Y-110025000D03*
X108700000Y-110025000D03*
X108200000Y-110025000D03*
D17*
X73060000Y-97145000D03*
X73060000Y-95595000D03*
D20*
X73045000Y-104380000D03*
X71395000Y-104380000D03*
D21*
X75040000Y-101195000D03*
X74240000Y-101195000D03*
D22*
X74640000Y-100125000D03*
D16*
X73070000Y-100165000D03*
X73070000Y-101715000D03*
D23*
X73420000Y-115985000D03*
X73420000Y-114335000D03*
D24*
X74445000Y-74670000D03*
X74445000Y-153330000D03*
X93555000Y-153330000D03*
X93555000Y-74670000D03*
M02*
