M48
; DRILL file {KiCad 6.0.6-1.fc36} date Thu Jul 28 10:28:26 2022
; FORMAT={-:-/ absolute / metric / decimal}
; #@! TF.CreationDate,2022-07-28T10:28:26+02:00
; #@! TF.GenerationSoftware,Kicad,Pcbnew,6.0.6-1.fc36
; #@! TF.FileFunction,Plated,1,4,PTH
FMAT,2
METRIC
; #@! TA.AperFunction,Plated,PTH,ViaDrill
T1C0.200
; #@! TA.AperFunction,Plated,PTH,ViaDrill
T2C0.400
; #@! TA.AperFunction,Plated,PTH,ComponentDrill
T3C0.400
; #@! TA.AperFunction,Plated,PTH,ComponentDrill
T4C0.500
; #@! TA.AperFunction,Plated,PTH,ComponentDrill
T5C0.700
; #@! TA.AperFunction,Plated,PTH,ComponentDrill
T6C0.750
; #@! TA.AperFunction,Plated,PTH,ComponentDrill
T7C0.800
; #@! TA.AperFunction,Plated,PTH,ComponentDrill
T8C0.900
; #@! TA.AperFunction,Plated,PTH,ComponentDrill
T9C0.990
; #@! TA.AperFunction,Plated,PTH,ComponentDrill
T10C1.000
; #@! TA.AperFunction,Plated,PTH,ComponentDrill
T11C1.300
%
G90
G05
T1
X36.45Y-108.49
X37.09Y-125.95
X38.724Y-94.997
X39.9Y-131.45
X40.376Y-124.294
X40.725Y-113.925
X40.725Y-115.5
X41.0Y-133.7
X41.064Y-93.18
X41.15Y-130.775
X41.367Y-135.551
X41.427Y-94.936
X41.533Y-90.397
X41.666Y-97.581
X41.825Y-104.825
X41.86Y-139.39
X42.1Y-123.37
X42.25Y-132.925
X43.51Y-108.5
X43.856Y-85.584
X44.2Y-130.861
X44.45Y-99.78
X44.455Y-93.044
X44.526Y-131.675
X44.598Y-89.6
X44.74Y-97.39
X44.9Y-116.35
X44.95Y-114.825
X45.35Y-138.38
X45.45Y-103.19
X45.784Y-118.047
X45.87Y-122.252
X45.88Y-108.599
X46.287Y-128.549
X46.288Y-95.054
X46.425Y-113.925
X46.55Y-116.4
X46.68Y-86.49
X46.8Y-130.1
X46.865Y-145.004
X46.93Y-82.86
X47.025Y-89.846
X47.207Y-92.799
X47.529Y-138.696
X47.57Y-100.17
X48.225Y-115.9
X48.48Y-97.05
X48.811Y-94.756
X48.82Y-101.17
X48.973Y-87.865
X49.05Y-113.75
X49.095Y-89.618
X49.274Y-84.878
X49.705Y-79.938
X49.9Y-109.875
X50.16Y-93.01
X50.77Y-135.623
X50.84Y-82.45
X51.25Y-105.57
X51.29Y-90.771
X51.389Y-77.483
X51.442Y-140.064
X51.901Y-85.289
X52.18Y-97.356
X52.21Y-101.14
X52.265Y-121.561
X52.33Y-151.3
X52.41Y-79.84
X52.41Y-109.04
X52.916Y-126.878
X53.01Y-119.14
X53.58Y-107.55
X54.0Y-149.525
X54.006Y-77.113
X54.108Y-105.083
X54.22Y-97.81
X54.227Y-82.317
X54.45Y-109.068
X54.684Y-147.4
X54.775Y-148.875
X55.09Y-136.751
X55.381Y-146.956
X55.44Y-80.0
X55.46Y-99.03
X55.5Y-82.6
X56.77Y-131.06
X56.79Y-77.956
X56.847Y-75.281
X56.87Y-106.75
X57.212Y-125.475
X57.299Y-92.04
X57.45Y-147.425
X57.64Y-89.44
X57.78Y-104.83
X58.479Y-95.16
X58.739Y-86.899
X58.931Y-134.231
X59.075Y-72.125
X59.385Y-77.342
X59.482Y-99.769
X59.5Y-150.225
X59.579Y-152.546
X59.596Y-74.6
X60.82Y-143.95
X61.32Y-111.889
X61.37Y-103.86
X61.49Y-81.92
X61.53Y-77.538
X61.539Y-87.303
X61.721Y-90.479
X61.78Y-105.82
X61.8Y-144.15
X61.837Y-94.832
X62.203Y-71.83
X62.235Y-93.198
X62.236Y-75.257
X62.383Y-100.43
X62.616Y-85.577
X62.825Y-153.25
X63.078Y-79.014
X63.08Y-144.6
X63.475Y-137.5
X64.05Y-141.9
X64.175Y-151.4
X64.186Y-139.846
X64.195Y-72.972
X64.412Y-89.771
X64.415Y-158.254
X64.505Y-69.76
X64.601Y-87.759
X64.69Y-156.479
X64.7Y-148.9
X64.89Y-153.8
X65.047Y-92.306
X65.096Y-77.522
X65.52Y-154.399
X65.76Y-145.47
X65.852Y-138.352
X65.86Y-136.39
X66.4Y-109.068
X66.47Y-98.88
X66.531Y-72.709
X66.55Y-134.125
X66.553Y-69.406
X66.629Y-143.995
X66.68Y-145.4
X66.75Y-82.7
X66.925Y-74.876
X67.043Y-79.504
X67.081Y-77.667
X67.325Y-153.2
X67.5Y-134.125
X67.525Y-109.4
X67.574Y-90.682
X67.7Y-97.49
X67.72Y-106.61
X67.85Y-143.6
X68.3Y-134.925
X68.35Y-143.062
X68.425Y-134.125
X68.825Y-135.525
X68.95Y-129.55
X69.0Y-158.82
X69.25Y-85.425
X69.27Y-107.63
X69.283Y-90.72
X69.3Y-134.125
X69.3Y-134.925
X69.43Y-160.89
X69.55Y-149.275
X69.597Y-77.818
X69.6Y-138.475
X69.619Y-74.772
X69.695Y-151.285
X69.774Y-80.355
X70.12Y-67.68
X70.221Y-72.478
X70.7Y-137.625
X70.725Y-133.725
X70.725Y-134.508
X70.725Y-135.292
X70.725Y-136.075
X70.725Y-136.85
X70.749Y-148.3
X70.84Y-105.71
X70.875Y-124.225
X71.05Y-131.65
X71.399Y-147.976
X71.4Y-140.5
X71.575Y-133.725
X71.575Y-134.5
X71.575Y-135.3
X71.62Y-161.49
X71.8Y-146.325
X72.023Y-80.14
X72.5Y-148.975
X72.55Y-133.975
X72.575Y-135.075
X72.69Y-137.852
X72.75Y-158.25
X72.825Y-136.675
X73.433Y-117.867
X73.45Y-138.175
X73.538Y-69.266
X74.2Y-134.9
X74.269Y-144.153
X74.425Y-129.875
X74.425Y-130.825
X74.525Y-115.079
X74.65Y-143.45
X74.799Y-138.675
X74.862Y-144.725
X74.9Y-81.67
X75.2Y-144.0
X75.225Y-139.625
X75.45Y-149.105
X75.475Y-129.875
X75.475Y-130.825
X75.575Y-138.9
X75.6Y-140.425
X75.75Y-141.3
X75.75Y-143.1
X75.774Y-138.157
X75.815Y-144.921
X76.062Y-142.262
X76.15Y-134.0
X76.2Y-137.475
X76.2Y-139.825
X76.275Y-143.7
X76.425Y-140.85
X76.475Y-129.875
X76.475Y-130.825
X76.5Y-136.8
X76.506Y-117.194
X76.627Y-138.151
X76.638Y-142.838
X76.8Y-144.3
X77.2Y-141.125
X77.225Y-140.25
X77.3Y-147.75
X77.35Y-145.975
X77.47Y-117.31
X77.475Y-129.9
X77.475Y-130.85
X77.55Y-143.4
X77.566Y-82.709
X77.881Y-135.4
X77.95Y-141.125
X77.975Y-140.25
X78.3Y-151.3
X78.5Y-129.9
X78.5Y-130.85
X78.662Y-135.4
X78.67Y-115.03
X78.675Y-133.374
X78.69Y-143.4
X78.7Y-141.125
X78.725Y-140.25
X78.826Y-66.431
X79.05Y-112.925
X79.1Y-110.4
X79.1Y-111.925
X79.1Y-142.15
X79.1Y-144.475
X79.1Y-145.45
X79.15Y-96.49
X79.241Y-69.819
X79.444Y-135.4
X79.45Y-133.374
X79.45Y-141.125
X79.475Y-140.25
X79.475Y-147.7
X79.5Y-129.9
X79.5Y-130.85
X79.53Y-143.4
X79.545Y-90.583
X79.636Y-85.253
X79.8Y-136.1
X79.8Y-136.8
X79.8Y-139.25
X79.83Y-93.39
X80.2Y-141.125
X80.225Y-135.4
X80.225Y-140.25
X80.275Y-148.15
X80.28Y-143.4
X80.624Y-102.241
X80.79Y-87.98
X80.8Y-117.55
X80.85Y-111.2
X80.95Y-141.125
X80.975Y-140.25
X81.0Y-127.9
X81.006Y-135.4
X81.06Y-130.4
X81.07Y-143.4
X81.29Y-121.01
X81.45Y-151.55
X81.7Y-141.125
X81.725Y-140.25
X81.725Y-142.175
X81.75Y-160.36
X81.787Y-135.4
X81.915Y-157.429
X81.972Y-98.957
X82.025Y-114.825
X82.2Y-68.9
X82.569Y-135.4
X82.775Y-119.174
X82.94Y-89.73
X82.96Y-128.58
X83.075Y-107.85
X83.28Y-65.77
X83.3Y-116.8
X83.35Y-135.425
X83.369Y-152.362
X83.375Y-136.125
X83.375Y-136.825
X83.38Y-159.589
X83.4Y-156.821
X83.59Y-130.4
X83.94Y-121.721
X83.975Y-119.35
X84.019Y-112.579
X84.2Y-152.715
X84.3Y-116.775
X84.625Y-109.8
X84.876Y-112.53
X85.084Y-160.597
X85.15Y-121.6
X85.2Y-116.725
X85.662Y-111.725
X85.75Y-114.525
X85.9Y-115.325
X86.21Y-125.82
X86.225Y-109.1
X86.38Y-119.15
X86.4Y-145.55
X86.413Y-112.7
X86.5Y-92.666
X86.5Y-136.18
X86.525Y-140.8
X86.61Y-121.149
X86.62Y-134.197
X86.679Y-148.528
X86.716Y-157.597
X86.77Y-79.63
X86.78Y-102.21
X87.0Y-124.05
X87.1Y-114.025
X87.375Y-140.8
X87.499Y-122.33
X87.575Y-104.075
X87.882Y-85.546
X87.925Y-146.4
X88.075Y-116.175
X88.125Y-119.325
X88.2Y-143.35
X88.275Y-140.8
X88.53Y-125.78
X88.61Y-135.83
X88.81Y-97.46
X88.95Y-110.375
X89.0Y-90.19
X89.125Y-140.8
X89.2Y-111.5
X89.525Y-150.3
X89.55Y-113.475
X89.675Y-115.025
X89.75Y-125.82
X89.875Y-103.475
X89.975Y-140.8
X90.371Y-69.75
X90.525Y-145.1
X90.575Y-147.9
X90.6Y-102.775
X91.0Y-148.65
X91.1Y-145.95
X91.1Y-146.85
X91.375Y-127.1
X91.45Y-120.55
X91.65Y-102.75
X92.025Y-113.4
X92.05Y-159.175
X92.1Y-114.375
X92.12Y-121.75
X92.12Y-162.52
X92.13Y-115.45
X92.58Y-87.3
X92.9Y-127.125
X92.93Y-119.54
X93.01Y-110.11
X93.14Y-130.01
X93.17Y-115.54
X93.18Y-104.67
X93.414Y-107.407
X93.622Y-147.955
X93.825Y-145.45
X93.87Y-101.89
X93.9Y-143.45
X93.99Y-119.36
X94.07Y-110.25
X94.08Y-108.7
X94.26Y-69.77
X94.48Y-136.57
X94.56Y-120.94
X94.676Y-146.718
X94.775Y-148.85
X95.21Y-90.89
X95.225Y-104.625
X95.37Y-137.79
X95.375Y-158.2
X95.79Y-82.93
X96.18Y-101.35
X96.35Y-117.3
X96.437Y-126.787
X96.58Y-130.65
X96.7Y-138.0
X96.885Y-111.062
X97.0Y-145.45
X97.1Y-103.35
X97.24Y-106.62
X97.326Y-152.458
X97.35Y-118.5
X97.42Y-139.97
X97.52Y-108.0
X97.626Y-104.991
X97.729Y-110.846
X97.875Y-102.375
X97.95Y-116.7
X98.04Y-149.94
X98.1Y-150.75
X98.15Y-119.775
X98.15Y-120.974
X98.21Y-134.13
X98.44Y-110.48
X98.45Y-106.25
X98.663Y-131.228
X98.75Y-111.45
X98.76Y-112.33
X98.77Y-67.918
X98.9Y-149.64
X98.925Y-156.15
X98.94Y-127.51
X99.0Y-105.025
X99.102Y-115.878
X99.111Y-117.28
X99.125Y-75.05
X99.126Y-158.965
X99.138Y-148.877
X99.21Y-122.12
X99.22Y-78.736
X99.37Y-119.76
X99.375Y-121.0
X99.46Y-133.66
X99.561Y-89.713
X99.65Y-107.45
X99.65Y-108.3
X99.65Y-109.1
X99.726Y-83.782
X99.75Y-118.38
X99.9Y-135.78
X99.95Y-145.2
X99.974Y-160.204
X100.175Y-100.225
X100.18Y-93.28
X100.25Y-119.75
X100.39Y-117.76
X100.425Y-101.15
X100.475Y-107.45
X100.5Y-108.275
X100.5Y-109.1
X100.67Y-156.71
X100.818Y-148.064
X100.98Y-117.14
X100.99Y-115.02
X101.05Y-105.025
X101.08Y-116.03
X101.089Y-111.461
X101.19Y-81.22
X101.325Y-107.45
X101.325Y-108.275
X101.325Y-109.075
X101.97Y-133.71
X102.09Y-141.45
X102.494Y-110.249
X102.55Y-106.2
X102.7Y-137.84
X102.75Y-145.225
X103.032Y-100.821
X103.04Y-93.35
X103.07Y-158.49
X103.25Y-102.725
X103.275Y-104.275
X103.4Y-110.15
X103.41Y-138.71
X103.425Y-109.249
X103.439Y-96.053
X103.51Y-105.54
X103.599Y-113.879
X103.603Y-73.488
X103.62Y-112.37
X103.875Y-146.35
X104.25Y-86.1
X104.54Y-99.02
X104.56Y-120.81
X104.625Y-88.75
X104.64Y-129.89
X104.72Y-131.78
X105.0Y-155.99
X105.225Y-109.525
X105.489Y-110.989
X105.75Y-78.175
X105.8Y-107.825
X106.0Y-89.925
X106.06Y-140.84
X106.12Y-152.71
X106.5Y-133.125
X106.58Y-117.48
X106.8Y-103.2
X107.275Y-108.225
X107.51Y-139.36
X107.575Y-131.825
X107.78Y-148.16
X107.8Y-111.0
X107.85Y-134.35
X107.975Y-89.4
X108.091Y-156.511
X108.325Y-120.275
X108.45Y-130.75
X108.55Y-128.825
X108.76Y-142.71
X108.925Y-135.25
X108.925Y-147.2
X109.1Y-116.19
X109.15Y-90.625
X109.24Y-143.82
X109.25Y-100.29
X109.375Y-129.65
X110.25Y-136.3
X110.3Y-74.86
X110.61Y-92.37
X111.37Y-144.69
X111.45Y-135.025
X111.48Y-140.353
X112.21Y-128.82
X112.35Y-133.9
X112.618Y-127.305
X113.15Y-102.275
X113.225Y-132.9
X113.35Y-138.98
X113.36Y-116.19
X113.445Y-111.736
X113.58Y-119.49
X113.723Y-87.346
X113.88Y-108.04
X114.428Y-90.457
X114.45Y-78.06
X114.46Y-120.16
X114.675Y-97.925
X114.975Y-98.85
X115.4Y-108.525
X115.45Y-93.37
X115.775Y-101.975
X115.94Y-132.76
X116.15Y-126.75
X116.18Y-121.58
X116.26Y-138.15
X116.57Y-104.601
X116.589Y-99.114
X116.61Y-116.15
X116.625Y-90.4
X116.75Y-94.7
X116.762Y-103.825
X116.812Y-102.725
X117.1Y-105.2
X117.147Y-80.754
X117.325Y-122.7
X117.411Y-135.791
X117.475Y-106.45
X117.6Y-86.675
X117.6Y-100.15
X118.425Y-99.3
X118.628Y-124.685
X118.65Y-100.075
X119.191Y-93.717
X119.55Y-91.85
X119.675Y-121.925
X119.98Y-107.58
X120.67Y-111.784
X120.8Y-120.025
X120.95Y-130.725
X121.225Y-125.95
X121.45Y-99.75
X121.65Y-122.39
X121.69Y-116.15
X121.875Y-125.175
X122.05Y-126.725
X122.1Y-129.2
X122.65Y-92.8
X122.97Y-127.6
X123.1Y-126.88
X123.258Y-106.794
X123.57Y-128.06
X123.64Y-126.05
X123.67Y-98.08
X123.77Y-127.29
X123.95Y-124.4
X124.503Y-103.601
X126.01Y-120.65
X126.162Y-98.748
X126.475Y-91.5
X126.83Y-118.47
X127.82Y-95.97
X128.236Y-101.153
X128.489Y-109.755
X129.31Y-103.97
X130.1Y-113.575
X131.53Y-119.05
X132.25Y-107.325
T2
X46.425Y-132.975
X48.65Y-143.075
X51.475Y-86.6
X51.6Y-95.0
X52.425Y-111.975
X52.875Y-96.475
X54.225Y-139.25
X55.3Y-114.225
X55.625Y-111.65
X56.075Y-148.6
X56.87Y-100.545
X56.875Y-81.3
X62.15Y-119.9
X62.15Y-121.35
X62.175Y-123.0
X62.525Y-124.525
X62.75Y-116.375
X63.8Y-124.55
X63.912Y-116.375
X64.75Y-111.725
X64.925Y-117.45
X64.95Y-118.5
X65.075Y-116.375
X65.075Y-123.45
X65.075Y-124.55
X65.18Y-100.34
X65.325Y-81.3
X65.35Y-102.65
X66.125Y-117.45
X66.15Y-118.5
X66.237Y-116.375
X66.25Y-111.6
X66.425Y-113.05
X67.325Y-117.45
X67.35Y-118.5
X67.4Y-116.375
X67.72Y-99.92
X68.525Y-117.45
X68.55Y-118.5
X68.562Y-116.375
X69.725Y-116.375
X70.15Y-86.39
X70.17Y-95.12
X70.65Y-109.475
X70.95Y-120.65
X70.95Y-121.775
X71.19Y-102.86
X71.53Y-94.46
X71.825Y-138.15
X71.88Y-156.17
X72.1Y-150.45
X72.117Y-151.55
X72.117Y-152.65
X72.117Y-153.75
X72.117Y-154.85
X72.125Y-123.15
X72.3Y-112.5
X72.8Y-102.725
X72.85Y-127.125
X72.85Y-128.4
X73.06Y-94.44
X73.317Y-150.45
X73.333Y-151.55
X73.333Y-152.65
X73.64Y-92.18
X73.675Y-123.15
X73.75Y-120.65
X73.75Y-121.65
X73.89Y-106.82
X74.3Y-160.725
X74.533Y-150.45
X74.55Y-151.55
X74.55Y-152.65
X74.6Y-125.3
X74.625Y-126.3
X75.225Y-123.15
X75.75Y-146.95
X75.75Y-150.45
X75.767Y-151.55
X75.767Y-152.65
X75.767Y-153.75
X75.767Y-154.85
X75.775Y-125.3
X75.775Y-126.3
X75.9Y-160.725
X76.05Y-156.2
X76.1Y-135.3
X76.775Y-123.15
X76.89Y-155.52
X76.925Y-125.3
X76.95Y-126.3
X76.95Y-152.067
X76.95Y-153.283
X76.95Y-154.5
X77.4Y-137.9
X77.5Y-160.725
X77.625Y-111.475
X78.05Y-125.3
X78.05Y-126.325
X78.325Y-123.15
X79.1Y-137.9
X79.2Y-125.3
X79.225Y-126.35
X80.6Y-137.9
X81.71Y-132.12
X82.025Y-126.85
X82.1Y-152.85
X82.2Y-137.9
X82.743Y-132.12
X82.8Y-143.95
X83.5Y-150.95
X83.777Y-132.12
X84.15Y-138.0
X84.3Y-143.95
X84.81Y-132.12
X85.45Y-138.0
X85.45Y-138.9
X85.575Y-143.475
X86.425Y-142.625
X86.562Y-150.968
X86.8Y-138.0
X87.7Y-106.8
X88.15Y-138.0
X88.475Y-152.3
X89.55Y-119.375
X89.55Y-138.0
X93.1Y-111.375
X96.0Y-156.1
X102.55Y-89.4
X122.0Y-131.75
X124.57Y-128.56
T3
X81.2Y-155.29
X81.6Y-155.99
X82.4Y-155.99
X82.8Y-155.29
X83.2Y-155.99
X83.6Y-155.29
X84.4Y-155.29
X84.8Y-155.99
X85.2Y-155.29
X85.6Y-155.99
X86.4Y-155.99
X86.8Y-155.29
T5
X44.9Y-126.85
X70.775Y-118.05
X73.92Y-154.3
X76.07Y-106.94
X82.93Y-123.4
X83.7Y-146.85
X97.25Y-159.65
T6
X87.9Y-127.15
X87.9Y-128.42
X87.9Y-129.69
T7
X56.747Y-152.704
X58.425Y-153.794
X60.102Y-154.883
T8
X82.725Y-71.46
X85.265Y-71.46
X108.4Y-80.7
X110.742Y-80.675
X110.929Y-82.822
X113.077Y-82.635
X126.5Y-112.7
X126.5Y-115.24
T9
X37.0Y-111.725
X37.0Y-116.225
X37.991Y-122.992
X37.997Y-104.951
X39.08Y-127.358
X39.086Y-100.585
X102.593Y-70.781
X106.637Y-72.754
X120.422Y-84.152
X123.067Y-87.793
X128.914Y-127.407
X130.003Y-123.041
T10
X50.2Y-117.5
X50.2Y-122.5
X92.435Y-95.435
X92.435Y-97.975
X94.975Y-95.435
X94.975Y-97.975
X109.188Y-114.425
X111.688Y-114.425
X114.188Y-114.425
X116.688Y-114.425
X119.188Y-114.425
X121.688Y-114.425
T11
X39.49Y-110.475
X39.49Y-117.485
X40.105Y-121.177
X40.109Y-106.776
X41.801Y-127.979
X41.804Y-99.975
X100.369Y-72.467
X106.669Y-75.54
X117.667Y-84.596
X121.787Y-90.268
X126.196Y-128.017
X127.891Y-121.216
T4
X79.51Y-161.54G85X79.51Y-162.14
G05
X79.87Y-155.59G85X79.87Y-156.19
G05
X88.13Y-155.59G85X88.13Y-156.19
G05
X88.49Y-161.54G85X88.49Y-162.14
G05
T0
M30
