G04 #@! TF.GenerationSoftware,KiCad,Pcbnew,6.0.7-1.fc36*
G04 #@! TF.CreationDate,2022-08-11T18:34:54+02:00*
G04 #@! TF.ProjectId,LAITS-HW,4c414954-532d-4485-972e-6b696361645f,1.0.2*
G04 #@! TF.SameCoordinates,Original*
G04 #@! TF.FileFunction,Soldermask,Bot*
G04 #@! TF.FilePolarity,Negative*
%FSLAX46Y46*%
G04 Gerber Fmt 4.6, Leading zero omitted, Abs format (unit mm)*
G04 Created by KiCad (PCBNEW 6.0.7-1.fc36) date 2022-08-11 18:34:54*
%MOMM*%
%LPD*%
G01*
G04 APERTURE LIST*
G04 Aperture macros list*
%AMRoundRect*
0 Rectangle with rounded corners*
0 $1 Rounding radius*
0 $2 $3 $4 $5 $6 $7 $8 $9 X,Y pos of 4 corners*
0 Add a 4 corners polygon primitive as box body*
4,1,4,$2,$3,$4,$5,$6,$7,$8,$9,$2,$3,0*
0 Add four circle primitives for the rounded corners*
1,1,$1+$1,$2,$3*
1,1,$1+$1,$4,$5*
1,1,$1+$1,$6,$7*
1,1,$1+$1,$8,$9*
0 Add four rect primitives between the rounded corners*
20,1,$1+$1,$2,$3,$4,$5,0*
20,1,$1+$1,$4,$5,$6,$7,0*
20,1,$1+$1,$6,$7,$8,$9,0*
20,1,$1+$1,$8,$9,$2,$3,0*%
%AMRotRect*
0 Rectangle, with rotation*
0 The origin of the aperture is its center*
0 $1 length*
0 $2 width*
0 $3 Rotation angle, in degrees counterclockwise*
0 Add horizontal line*
21,1,$1,$2,0,0,$3*%
G04 Aperture macros list end*
%ADD10R,2.000000X2.000000*%
%ADD11C,2.000000*%
%ADD12O,0.950000X0.650000*%
%ADD13C,0.650000*%
%ADD14O,0.800000X1.400000*%
%ADD15C,1.500000*%
%ADD16R,1.500000X1.050000*%
%ADD17O,1.500000X1.050000*%
%ADD18R,1.508000X1.508000*%
%ADD19C,1.508000*%
%ADD20R,1.700000X1.700000*%
%ADD21O,1.700000X1.700000*%
%ADD22C,2.250000*%
%ADD23C,1.308000*%
%ADD24RoundRect,0.450000X-0.633974X-0.055466X0.055466X-0.633974X0.633974X0.055466X-0.055466X0.633974X0*%
%ADD25C,1.800000*%
%ADD26RoundRect,0.200000X-0.200000X-0.275000X0.200000X-0.275000X0.200000X0.275000X-0.200000X0.275000X0*%
%ADD27RotRect,0.700000X1.200000X288.000000*%
%ADD28RotRect,1.000000X0.800000X288.000000*%
%ADD29RotRect,1.300000X1.900000X288.000000*%
%ADD30RotRect,1.000000X1.200000X288.000000*%
%ADD31RotRect,1.000000X2.800000X288.000000*%
%ADD32RoundRect,0.225000X-0.250000X0.225000X-0.250000X-0.225000X0.250000X-0.225000X0.250000X0.225000X0*%
%ADD33RoundRect,0.225000X0.250000X-0.225000X0.250000X0.225000X-0.250000X0.225000X-0.250000X-0.225000X0*%
%ADD34C,2.100000*%
%ADD35C,1.750000*%
%ADD36RotRect,1.270000X5.080000X125.000000*%
%ADD37C,17.800000*%
%ADD38R,0.300000X0.800000*%
%ADD39R,1.800000X1.800000*%
%ADD40RoundRect,0.200000X0.200000X0.275000X-0.200000X0.275000X-0.200000X-0.275000X0.200000X-0.275000X0*%
%ADD41RoundRect,0.028800X0.131200X-0.301200X0.131200X0.301200X-0.131200X0.301200X-0.131200X-0.301200X0*%
%ADD42RoundRect,0.046200X0.163800X-0.283800X0.163800X0.283800X-0.163800X0.283800X-0.163800X-0.283800X0*%
%ADD43RoundRect,0.200000X0.275000X-0.200000X0.275000X0.200000X-0.275000X0.200000X-0.275000X-0.200000X0*%
%ADD44C,3.450000*%
%ADD45C,3.170000*%
%ADD46C,2.390000*%
%ADD47R,6.450000X7.450000*%
G04 APERTURE END LIST*
D10*
X50200000Y-122500000D03*
D11*
X50200000Y-117500000D03*
D12*
X87600000Y-154640000D03*
D13*
X80400000Y-154640000D03*
X86800000Y-155290000D03*
X86400000Y-155990000D03*
X85600000Y-155990000D03*
X85200000Y-155290000D03*
X84800000Y-155990000D03*
X84400000Y-155290000D03*
X83600000Y-155290000D03*
X83200000Y-155990000D03*
X82800000Y-155290000D03*
X82400000Y-155990000D03*
X81600000Y-155990000D03*
X81200000Y-155290000D03*
D14*
X88490000Y-161840000D03*
X88130000Y-155890000D03*
X79510000Y-161840000D03*
X79870000Y-155890000D03*
D15*
X76070000Y-106940000D03*
X82930000Y-123400000D03*
X97250000Y-159650000D03*
D16*
X87900000Y-127150000D03*
D17*
X87900000Y-128420000D03*
X87900000Y-129690000D03*
D15*
X44900000Y-126850000D03*
X70775000Y-118050000D03*
D18*
X109187500Y-114425000D03*
D19*
X111687500Y-114425000D03*
X114187500Y-114425000D03*
X116687500Y-114425000D03*
X119187500Y-114425000D03*
X121687500Y-114425000D03*
D15*
X73920000Y-154300000D03*
D20*
X94975000Y-97975000D03*
D21*
X94975000Y-95435000D03*
X92435000Y-97975000D03*
X92435000Y-95435000D03*
D15*
X83700000Y-146850000D03*
D22*
X61863356Y-156026653D03*
X54986258Y-151560613D03*
D23*
X60102148Y-154882911D03*
X58424807Y-153793633D03*
X56747466Y-152704355D03*
D24*
X108400000Y-80700000D03*
D25*
X110741635Y-80675425D03*
X110929479Y-82822485D03*
X113076539Y-82634641D03*
D26*
X71485000Y-98660000D03*
X73135000Y-98660000D03*
D27*
X116054789Y-106607077D03*
X115714870Y-105560915D03*
X115374951Y-104514753D03*
X115035032Y-103468591D03*
X114695114Y-102422428D03*
X114355195Y-101376266D03*
X114015276Y-100330104D03*
X113675358Y-99283942D03*
X113381792Y-98380438D03*
D28*
X123074319Y-94232256D03*
D29*
X131620908Y-105650041D03*
D30*
X117177768Y-96148161D03*
X116533765Y-108081215D03*
D31*
X127021203Y-92949836D03*
D32*
X71550000Y-100165000D03*
X71550000Y-101715000D03*
D33*
X71530000Y-97135000D03*
X71530000Y-95585000D03*
D34*
X41800828Y-127978681D03*
X40104956Y-121176908D03*
D35*
X37991322Y-122992163D03*
X39079971Y-127358494D03*
D34*
X126195543Y-128017492D03*
X127891416Y-121215719D03*
D35*
X128913982Y-127407008D03*
X130002631Y-123040677D03*
D36*
X46286595Y-128548886D03*
X58888069Y-146545656D03*
D37*
X52587332Y-137547271D03*
D38*
X108200000Y-108225000D03*
X108700000Y-108225000D03*
X109200000Y-108225000D03*
X109700000Y-108225000D03*
X110200000Y-108225000D03*
X110700000Y-108225000D03*
X111200000Y-108225000D03*
X111700000Y-108225000D03*
X111700000Y-110025000D03*
X111200000Y-110025000D03*
X110700000Y-110025000D03*
X110200000Y-110025000D03*
X109700000Y-110025000D03*
X109200000Y-110025000D03*
X108700000Y-110025000D03*
X108200000Y-110025000D03*
D39*
X82725000Y-71460388D03*
D25*
X85265000Y-71460388D03*
D33*
X73060000Y-97145000D03*
X73060000Y-95595000D03*
D34*
X106669440Y-75539751D03*
X100368894Y-72466769D03*
D35*
X106637492Y-72753790D03*
X102592919Y-70781120D03*
D40*
X73045000Y-104380000D03*
X71395000Y-104380000D03*
D34*
X117666671Y-84596421D03*
X121787045Y-90267631D03*
D35*
X123066766Y-87792774D03*
X120421732Y-84152198D03*
D34*
X40108584Y-106776444D03*
X41804457Y-99974671D03*
D35*
X39086018Y-100585155D03*
X37997369Y-104951486D03*
D34*
X39490000Y-117485000D03*
X39490000Y-110475000D03*
D35*
X37000000Y-111725000D03*
X37000000Y-116225000D03*
D41*
X75040000Y-101195000D03*
X74240000Y-101195000D03*
D42*
X74640000Y-100125000D03*
D39*
X126500000Y-112700000D03*
D25*
X126500000Y-115240000D03*
D32*
X73070000Y-100165000D03*
X73070000Y-101715000D03*
D43*
X73420000Y-115985000D03*
X73420000Y-114335000D03*
D44*
X66495000Y-141600000D03*
X101505000Y-86400000D03*
D45*
X84000000Y-141600000D03*
X84000000Y-86400000D03*
D46*
X101505000Y-149820000D03*
D47*
X74445000Y-74670000D03*
X74445000Y-153330000D03*
X93555000Y-153330000D03*
X93555000Y-74670000D03*
M02*
